<svg xmlns="http://www.w3.org/2000/svg" width="177" height="180" viewBox="0 0 177 180"><path fill="#1C283C" d="M91.166 21C50.583 20.11 16 53.907 16 94.5s30.907 74.833 73.5 73.5c40.573-1.27 73.5-32.907 73.5-73.5S136.76 22 91.166 21z"/><path fill="#AEAEAE" d="M89.5 71.253c-30.515 0-60.932 3.762-60.932 3.762l16.2 79.03C56.908 163.24 72.245 168.54 89.5 168c17.418-.545 33.416-6.7 46.016-16.743l14.62-76.242S119.77 71.253 89.5 71.253z"/><path fill="#C5C5C5" d="M130.367 75.605l-20.36 3.54-2.5 86.205c10.345-2.768 19.812-7.587 27.894-14.004l9.36-48.293 5.32-27.743-19.71.295z"/><path fill="#777B7C" d="M89.5 70.253c-36.284 0-60.932 2.997-60.29 4.685.536 1.734 2.288 9.68 13.127 10.812-6.904 7.634 4.28 3.075 4.28 3 0-3.3 12.07 5.394 14.82 5.76 2.673.357 13.044-3.19 13.163 0 9.376.636 13.793 1.646 25.715 1.646 31.225 0 46.408-17.472 49.742-20.72l.08-.42S137.94 70.252 89.5 70.252z"/><path fill="#EFD28E" d="M100.098 74.622c-1.77-2.213-10.18 2.214-13.72 2.656-4.398.55-6.42-.442-6.42-.442s-.297-7.042-4.133-15.468l.372.418.885-3.762s.222-.442.443-1.77c.22-1.328-.885-3.763-.885-3.763l.442-1.323c.443-1.328-.22-3.54-3.54-5.09-2.7-1.26-9.782-1.934-12.34-2.142-13.386-7.805-33.25-6.488-33.25-6.488s-1.992 1.328-1.77 2.655l.22 1.328s-2.876-.222-3.098 1.328c-.205 1.433-.02 16.303 11.384 30.084-.075 2.392.143 5.58 1.452 8.2 2.434 4.87 10.18 9.736 10.18 9.736s-.664-1.327-.885-3.54c-.168-1.685.685-3.744 1.104-4.638 12.91 6.48 26.78 3.31 26.78 3.31s.88-1.107 1.77 4.203c.88 5.315 1.77 15.716 4.42 16.158 2.657.443 2.657-9.737 7.747-15.712 5.09-5.973 14.607-13.718 12.837-15.932z"/><path fill="#E3AA59" d="M49.457 61.427c1.403-1.52-1.02-4.985-1.02-4.985s4.107 1.293 5.168.24c1.062-1.054.088-5.294.088-5.294s.162 3.238-.646 4.32c-.808 1.084-5.128.438-5.128.438s2.072 2.376.762 4.26c-1.31 1.886-4.955.504-4.955.504s.88 2.914.18 4.237c-.7 1.322-4.69-.19-4.69-.19s4.093 3.338 5.403 1.452c1.31-1.89-.563-5.148-.563-5.148s3.993 1.68 5.396.16zM63.5 72.7c.894-.966-.65-3.172-.65-3.172s2.616.822 3.29.152c.676-.67.057-3.37.057-3.37s.103 2.062-.41 2.75c-.515.69-3.265.28-3.265.28s1.32 1.51.487 2.71c-.838 1.2-3.158.32-3.158.32s.56 1.855.114 2.697c-.446.842-2.987-.12-2.987-.12s2.605 2.123 3.44.924c.832-1.2-.36-3.27-.36-3.27s2.544 1.07 3.437.105zm-4.064-3.408c1.233-1.335-.897-4.382-.897-4.382s3.61 1.136 4.54.21c.93-.926.076-4.652.076-4.652s.142 2.846-.568 3.798-4.508.385-4.508.385 1.825 2.09.673 3.75-4.356.44-4.356.44 2.903 2.76 5.03.456zm-4.163-6.01c1.233-1.335-.897-4.382-.897-4.382s3.61 1.137 4.543.21c.93-.925.073-4.65.073-4.65s.143 2.845-.567 3.796c-.71.953-4.51.385-4.51.385s1.826 2.09.675 3.75c-1.15 1.657-4.354.44-4.354.44s.774 2.56.16 3.725c-.617 1.163-4.125-.168-4.125-.168s3.6 2.935 4.75 1.278-.495-4.52-.495-4.52 3.51 1.476 4.742.14zm14.33 8.545s.107 2.115-.42 2.822c-.53.703-3.352.28-3.352.28s1.36 1.553.506 2.785c-.856 1.23-3.237.328-3.237.328s2.16 2.05 3.74.338c.917-.992-.667-3.26-.667-3.26s2.685.848 3.377.16c.693-.687.057-3.457.057-3.457z" opacity=".631"/><path fill="#FCE7B1" d="M79.96 76.836s-.3-7.042-4.135-15.468l.372.418.885-3.762s.222-.442.443-1.77c.22-1.328-.885-3.763-.885-3.763l.442-1.323c.443-1.328-.22-3.54-3.54-5.09-2.7-1.26-9.782-1.934-12.34-2.142-5.33-3.106-11.682-4.766-17.402-5.64 7.48 2.67 15.167 7.157 21.996 14.42 10.4 11.066 11.95 25.673 11.95 25.673l2.25-1.533-.037-.014z"/><path fill="#E7B96D" d="M40.346 71.08c-6.75-7.145-10.41-16.898-12.264-23.59 1.49-2.757 1.787-8.092 1.847-10.118-.54.01-.97.024-1.296.038l-2.03 1.323c-.295.415-.505.89-.426 1.365l.222 1.328s-2.877-.222-3.1 1.328c-.204 1.433-.02 16.303 11.385 30.084-.062 1.94.08 4.402.832 6.66l9.913 9.508.277-.096c-.11-.48-.21-1.035-.275-1.675-.168-1.684.685-3.743 1.104-4.637 2.9 1.455 5.84 2.404 8.665 3.032l2.4-.83c0 .003-5.974-1.768-17.26-13.72zm59.752 3.542c-1.77-2.213-10.18 2.214-13.72 2.656-4.124.515-6.133-.315-6.37-.422l-5.36 5.954 5.09 9.737 7.608-2.087c5.11-5.962 14.513-13.636 12.752-15.838zM77.082 58.024s.222-.442.443-1.77c.22-1.328-.885-3.763-.885-3.763l.442-1.323c.443-1.328-.22-3.54-3.54-5.09-2.7-1.26-9.782-1.934-12.34-2.142-.356-.207-.72-.405-1.084-.6 1.167.815 4.28 3.116 8.112 6.947 3.207 3.206 6.308 8.127 8.058 11.12l.794-3.374z" opacity=".529"/><circle fill="#FFF" cx="43.592" cy="50.205" r="3.024"/><circle fill="#4D4D4D" cx="43.296" cy="49.763" r=".959"/><path fill="#D0DEE5" d="M117.518 54.193c4.24-17.38-2.092-30.835-2.902-32.034-.876-1.3-3.367.154-3.367.154l-.386-1.29-2.753-1.616s-18.44 7.496-27.07 20.366c-2.21 1.305-8.287 5.006-10.164 7.316-2.31 2.846-1.94 5.127-.96 6.128s.977 1 .977 1 .068 2.674.847 3.772c.78 1.097 1.172 1.4 1.172 1.4l2.44 2.995.15-.54c.23 9.256 3.04 15.72 3.04 15.72s-1.385 1.776-5.58 3.202c-3.38 1.15-12.877.842-13.503 3.605-.63 2.767 11.313 5.576 18.502 8.728s11.636 12.31 13.832 10.75c2.195-1.558-1.552-11.3-3.076-16.465-1.524-5.165-.244-4.556-.244-4.556s13.86-3.207 22.644-14.68c.77.62 2.438 2.1 3.02 3.69.77 2.088.75 3.57.75 3.57s4.84-7.762 4.906-13.205c.032-2.926-1.165-5.89-2.278-8.01z"/><path fill="#81ADC2" d="M102.32 51.303c-1.207-.884-1.69-3.89-1.69-3.89s-2.673 2.835-4.675 1.712-1.172-4.167-1.172-4.167-3.604 2.468-4.804 1.847-2.47-3.605-2.47-3.605.974 4.24 2.39 4.723c1.413.484 4.543-2.474 4.543-2.474s-.666 4.172 1.26 4.93c1.926.75 4.785-2.507 4.785-2.507s-.263 3.75 1.74 4.872c2 1.123 4.225-3.67 4.225-3.67s-2.93 3.107-4.138 2.223zm-10.112 15.94c-.77-.56-1.075-2.475-1.075-2.475s-1.7 1.805-2.977 1.09c-1.273-.715-.745-2.652-.745-2.652s-2.29 1.57-3.053 1.175c-.763-.39-1.57-2.29-1.57-2.29s.62 2.7 1.52 3.007c.9.31 2.894-1.574 2.894-1.574s-.424 2.658.8 3.14c1.227.48 3.047-1.595 3.047-1.595s-.168 2.387 1.106 3.102 2.69-2.336 2.69-2.336-1.862 1.978-2.63 1.415zm-7.076-8.57c-1.055-.548-2.17-3.17-2.17-3.17s.86 3.727 2.103 4.15c1.243.427 3.994-2.173 3.994-2.173s-.59 3.67 1.103 4.333c2.92 1.144 4.328-2.606 4.328-2.606s-2.35 2.492-4.11 1.504c-1.76-.982-1.03-3.66-1.03-3.66s-3.167 2.17-4.222 1.626zM97.1 55.4c-1.062-.776-1.484-3.418-1.484-3.418s-2.352 2.492-4.11 1.505-1.03-3.663-1.03-3.663-3.17 2.17-4.223 1.623c-1.055-.546-2.17-3.168-2.17-3.168s.86 3.72 2.103 4.15c1.244.42 3.996-2.18 3.996-2.18s-.586 3.673 1.106 4.335 4.206-2.2 4.206-2.2-.23 3.295 1.53 4.282 3.713-3.225 3.713-3.225-2.576 2.73-3.637 1.953zm-9.455 17.007c-1.308-.733-.766-2.723-.766-2.723s-2.36 1.613-3.14 1.207c-.788-.4-1.617-2.35-1.617-2.35s.638 2.77 1.562 3.086 2.97-1.616 2.97-1.616-.436 2.73.822 3.22c2.17.85 3.217-1.94 3.217-1.94s-1.747 1.854-3.055 1.12z" opacity=".631"/><path fill="#EAF3F7" d="M80.744 49.68c2.97-9.52 7.923-16.91 13.485-22.582-4.768 3.285-9.758 7.554-13.19 12.677-2.21 1.305-8.29 5.006-10.168 7.316-2.31 2.85-1.94 5.13-.96 6.13l.977 1s.07 2.675.847 3.77c.78 1.1 1.17 1.4 1.17 1.4l2.44 2.998.15-.54c.23 9.256 3.04 15.72 3.04 15.72l-.024.03 2.692.397s-4.988-13.815-.466-28.312z"/><path fill="#96A8B1" d="M72.962 80.767c-3.378 1.15-12.876.842-13.502 3.605-.623 2.75 11.19 5.545 18.39 8.677l7.755-1.45.325-10.984-7.422-3.017c-.167.2-1.612 1.826-5.546 3.163zm-2.07-26.55s.07 2.674.848 3.772c.78 1.093 1.172 1.394 1.172 1.394l2.19 2.69c.266-3.46.906-9.24 2.39-13.525 1.757-5.078 3.55-8.518 4.257-9.787-.247.333-.48.668-.71 1.01-2.21 1.304-8.29 5.005-10.168 7.315-2.31 2.843-1.94 5.124-.96 6.125s.977 1 .977 1zm46.626-.024c4.24-17.38-2.092-30.835-2.902-32.034-.876-1.3-3.367.154-3.367.154l-.386-1.29c-.137-.465-.533-.8-.98-1.043l-2.404-.303c-.3.13-.69.305-1.175.53.938 1.795 3.537 6.464 6.082 8.294 1.253 6.83 2.222 17.203-.728 26.58-4.935 15.68-9.536 19.883-9.536 19.883l2.55-.307c2.26-1.796 4.478-3.945 6.442-6.51.768.62 2.436 2.1 3.02 3.687.222.603.373 1.146.482 1.628l.29-.034 4.766-12.88c-.314-2.36-1.26-4.636-2.163-6.356z" opacity=".529"/><circle fill="#FFF" cx="99.622" cy="37.723" r="3.025"/><circle fill="#4D4D4D" cx="99.694" cy="37.196" r=".959"/><path fill="#D0DEE5" d="M111.737 102.536c-.626-2.765-10.124-2.457-13.503-3.605-4.195-1.422-5.58-3.2-5.58-3.2s2.81-6.46 3.04-15.72l.15.54 2.44-2.995s.392-.3 1.17-1.397c.78-1.1.848-3.77.848-3.77l.98-1.002s1.347-3.28-.962-6.124c-1.877-2.312-7.953-6.012-10.164-7.317-8.63-12.87-27.074-20.363-27.074-20.363s-2.372.322-2.752 1.613l-.38 1.29s-2.492-1.455-3.368-.158c-.81 1.2-7.142 14.656-2.902 32.035-1.114 2.12-2.31 5.083-2.277 8.01.062 5.444 4.903 13.208 4.903 13.208s-.017-1.484.75-3.572c.584-1.588 2.252-3.068 3.02-3.688 8.784 11.47 22.644 14.674 22.644 14.674s1.277-.608-.247 4.556-5.27 14.906-3.076 16.465c2.196 1.56 6.643-7.6 13.832-10.75 7.19-3.155 19.13-5.965 18.503-8.73z"/><path fill="#81ADC2" d="M70.705 66.04s2.86 3.257 4.785 2.503 1.26-4.93 1.26-4.93 3.13 2.957 4.545 2.473c1.415-.483 2.392-4.722 2.392-4.722s-1.27 2.982-2.468 3.604c-1.2.622-4.81-1.847-4.81-1.847s.83 3.05-1.17 4.17c-2.002 1.125-4.677-1.71-4.677-1.71s-.48 3.006-1.69 3.89c-1.206.884-4.136-2.22-4.136-2.22s2.224 4.79 4.226 3.667c2-1.124 1.738-4.873 1.738-4.873zm12.493 18.78c1.226-.48.8-3.14.8-3.14s1.994 1.884 2.894 1.576c.9-.31 1.522-3.006 1.522-3.006s-.808 1.898-1.57 2.294c-.765.396-3.06-1.176-3.06-1.176s.53 1.938-.745 2.652c-1.28.715-2.98-1.09-2.98-1.09s-.308 1.913-1.076 2.477c-.77.562-2.632-1.414-2.632-1.414s1.415 3.05 2.69 2.334c1.273-.715 1.106-3.1 1.106-3.1s1.82 2.073 3.046 1.593zm2.934-7.002c1.243-.426 2.102-4.15 2.102-4.15s-1.115 2.62-2.17 3.167c-1.054.547-4.222-1.623-4.222-1.623s.73 2.676-1.03 3.663-4.11-1.505-4.11-1.505 1.407 3.75 4.328 2.607c1.693-.662 1.107-4.334 1.107-4.334s2.752 2.6 3.995 2.175zm-6.222-5.065c1.693-.662 1.107-4.334 1.107-4.334s2.752 2.6 3.995 2.17 2.102-4.15 2.102-4.15-1.114 2.62-2.17 3.166c-1.054.546-4.222-1.624-4.222-1.624s.73 2.676-1.03 3.663-4.11-1.506-4.11-1.506-.424 2.643-1.485 3.42c-1.062.776-3.636-1.953-3.636-1.953s1.96 4.21 3.72 3.226c1.76-.988 1.53-4.283 1.53-4.283s2.51 2.864 4.204 2.2zm7.547 16.302c-.784.406-3.14-1.207-3.14-1.207s.543 1.99-.765 2.724c-1.308.734-3.055-1.118-3.055-1.118s1.046 2.787 3.218 1.938c1.258-.493.823-3.223.823-3.223s2.045 1.93 2.97 1.61c.924-.314 1.562-3.084 1.562-3.084s-.83 1.947-1.613 2.354z" opacity=".631"/><path fill="#EAF3F7" d="M100.32 65.255c-1.877-2.312-7.953-6.012-10.164-7.317-3.436-5.123-8.426-9.39-13.19-12.676 5.563 5.67 10.517 13.063 13.486 22.58 4.522 14.498-.465 28.313-.465 28.313l2.692-.396-.03-.03s2.81-6.47 3.04-15.72l.15.534 2.44-2.997s.392-.3 1.17-1.398c.78-1.1.85-3.77.85-3.77l.98-1.003s1.346-3.28-.96-6.124z"/><path fill="#96A8B1" d="M96.095 80.24l2.19-2.69s.392-.3 1.17-1.397c.78-1.1.848-3.77.848-3.77l.98-1.002s1.347-3.28-.962-6.12c-1.872-2.312-7.95-6.012-10.16-7.317-.23-.34-.466-.676-.71-1.01.707 1.27 2.5 4.71 4.26 9.79 1.48 4.28 2.12 10.063 2.387 13.52zm15.642 22.296c-.626-2.765-10.124-2.457-13.503-3.605-3.932-1.332-5.377-2.96-5.545-3.16l-7.427 3.018.325 10.982 7.754 1.445c7.2-3.13 19.013-5.927 18.39-8.676zm-52.202-29.29c-2.95-9.375-1.98-19.748-.727-26.576 2.544-1.83 5.143-6.5 6.082-8.295-.486-.226-.878-.4-1.177-.53l-2.403.304c-.448.24-.844.574-.98 1.04l-.38 1.29s-2.492-1.458-3.368-.16c-.81 1.2-7.142 14.655-2.902 32.034-.903 1.72-1.85 3.995-2.162 6.355l4.765 12.883.29.035c.11-.48.262-1.025.483-1.63.584-1.587 2.252-3.067 3.02-3.687 1.964 2.566 4.182 4.716 6.443 6.51l2.544.308s-4.6-4.203-9.533-19.884z" opacity=".529"/><circle fill="#FFF" cx="71.575" cy="55.887" r="3.025"/><circle fill="#4D4D4D" cx="71.502" cy="55.36" r=".959"/><path fill="#EFD28E" d="M155.203 41.377c-.223-1.55-3.1-1.327-3.1-1.327l.223-1.328c.22-1.328-1.77-2.656-1.77-2.656s-19.864-1.316-33.25 6.49c-2.56.208-9.642.882-12.34 2.14-3.32 1.55-3.983 3.764-3.54 5.09l.442 1.33s-1.106 2.434-.886 3.762c.223 1.328.443 1.77.443 1.77l.885 3.763.373-.414c-3.837 8.426-4.135 15.468-4.135 15.468s-2.02.993-6.418.443c-3.54-.442-11.95-4.868-13.72-2.655s7.745 9.96 12.835 15.935c5.09 5.977 5.09 16.156 7.745 15.714s3.54-10.844 4.427-16.155c.885-5.312 1.77-4.205 1.77-4.205s13.867 3.172 26.78-3.31c.42.893 1.272 2.953 1.104 4.637-.22 2.213-.88 3.54-.88 3.54s7.745-4.868 10.18-9.736c1.31-2.62 1.527-5.806 1.45-8.2 11.41-13.783 11.59-28.654 11.387-30.09z"/><path fill="#E3AA59" d="M134.597 62.77c-.7-1.323.18-4.237.18-4.237s-3.644 1.382-4.954-.504c-1.31-1.89.766-4.26.766-4.26s-4.32.64-5.13-.44c-.81-1.086-.648-4.32-.648-4.32s-.973 4.24.088 5.29c1.063 1.053 5.17-.24 5.17-.24s-2.423 3.467-1.02 4.985c1.403 1.52 5.398-.162 5.398-.162s-1.875 3.258-.564 5.144c1.31 1.884 5.403-1.455 5.403-1.455s-3.994 1.513-4.694.19zm-16.06 9.92c-.447-.84.113-2.696.113-2.696s-2.32.88-3.152-.32c-.834-1.2.486-2.71.486-2.71s-2.75.41-3.264-.28c-.514-.688-.41-2.75-.41-2.75s-.62 2.7.056 3.37c.675.67 3.29-.153 3.29-.153s-1.543 2.21-.65 3.178c.894.967 3.436-.103 3.436-.103s-1.192 2.075-.36 3.274c.836 1.2 3.44-.926 3.44-.926s-2.54.963-2.986.12zm1.213-6.672c-1.152-1.656.674-3.745.674-3.745s-3.798.568-4.508-.384-.568-3.8-.568-3.8-.854 3.724.078 4.65 4.543-.21 4.543-.21-2.136 3.045-.9 4.38c2.13 2.305 5.03-.454 5.03-.454s-3.203 1.214-4.354-.443zm8.36-1.843c-.616-1.163.157-3.725.157-3.725s-3.203 1.215-4.354-.442c-1.15-1.656.673-3.744.673-3.744s-3.797.567-4.507-.385-.57-3.8-.57-3.8-.857 3.724.075 4.65 4.543-.21 4.543-.21-2.13 3.045-.898 4.38c1.234 1.336 4.744-.14 4.744-.14s-1.647 2.863-.496 4.52 4.75-1.276 4.75-1.276-3.51 1.33-4.123.168zm-15.934 11.167c-.856-1.23.5-2.783.5-2.783s-2.822.42-3.35-.29-.423-2.824-.423-2.824-.636 2.77.058 3.46c.698.686 3.38-.16 3.38-.16s-1.58 2.266-.664 3.26c1.582 1.712 3.74-.34 3.74-.34s-2.38.903-3.236-.33z" opacity=".631"/><path fill="#FCE7B1" d="M117.306 42.555c-2.56.21-9.642.883-12.34 2.142-3.32 1.55-3.983 3.763-3.54 5.09l.442 1.328s-1.106 2.435-.886 3.763c.223 1.328.443 1.77.443 1.77l.885 3.763.373-.414c-3.837 8.426-4.135 15.468-4.135 15.468l-.036.017 2.25 1.533s1.548-14.606 11.95-25.672c6.828-7.264 14.514-11.75 21.994-14.42-5.72.872-12.07 2.53-17.4 5.64z"/><path fill="#E7B96D" d="M92.13 75.9c-3.54-.442-11.95-4.868-13.72-2.655-1.76 2.2 7.643 9.876 12.752 15.838l7.607 2.088 5.09-9.732-5.36-5.955c-.24.107-2.25.937-6.37.42zm12.837-31.204c-3.32 1.55-3.984 3.763-3.54 5.09l.44 1.328s-1.105 2.435-.885 3.763c.223 1.328.443 1.77.443 1.77l.795 3.378c1.75-2.996 4.852-7.917 8.057-11.123 3.832-3.83 6.946-6.13 8.113-6.947-.365.195-.73.393-1.085.6-2.558.21-9.64.883-12.338 2.14zm50.236-3.32c-.223-1.548-3.1-1.326-3.1-1.326l.223-1.328c.078-.477-.13-.95-.428-1.366l-2.03-1.323c-.325-.013-.753-.027-1.29-.037.06 2.026.36 7.36 1.848 10.118-1.854 6.69-5.515 16.445-12.264 23.59-11.287 11.95-17.262 13.72-17.262 13.72l2.4.83c2.827-.627 5.768-1.576 8.667-3.03.42.892 1.272 2.952 1.104 4.636-.06.64-.16 1.193-.272 1.675l.277.096 9.915-9.502c.75-2.26.893-4.72.83-6.66 11.408-13.783 11.59-28.654 11.386-30.087z" opacity=".529"/><circle fill="#FFF" cx="134.916" cy="47.828" r="3.025"/><circle fill="#4D4D4D" cx="135.211" cy="47.385" r=".959"/><path fill="#AEAEAE" d="M87.93 84.62c-22.023 0-43.86-3.336-53.93-6.12-3.882-1.074-5.433-3.485-5.432-3.485l16.2 79.03C56.908 163.24 72.245 168.54 89.5 168c17.418-.545 33.416-6.7 46.016-16.743l14.62-76.242s-1.354 2.19-6.07 3.374c-11.235 2.812-34.818 6.23-56.136 6.23z"/><circle fill="#AEAEAE" cx="62.84" cy="83.205" r="7.031"/><path fill="#C5C5C5" d="M139.288 79.548c-13.896 3.127-30.65 3.784-30.65 3.784l-1.132 82.02c10.346-2.77 19.813-7.588 27.895-14.005l9.36-48.293 5.32-27.743s.29 1.75-10.79 4.24z"/><path fill="#828282" d="M119.28 135.86c-15.352 0-29.868-8.4-42.246-24.536-10.23-13.336-15.343-27.024-15.556-27.6-.287-.777.11-1.64.888-1.926.775-.29 1.64.11 1.927.887.2.544 20.58 54.436 59.58 49.91 10.454-1.212 18-5.322 22.43-12.215 9.105-14.167 1.982-35.704 1.982-35.704s.332-2.034.543-2.834c.375-1.427.64-3.33.64-3.33s3.78 10.844 4.392 18.355c.816 10.043-.92 18.73-5.024 25.123-4.938 7.693-13.22 12.263-24.617 13.584-1.66.192-3.307.287-4.94.287z"/></svg>