<svg xmlns="http://www.w3.org/2000/svg" width="512.975" height="407.979" viewBox="0 0 512.975 407.979"><filter filterUnits="objectBoundingBox" id="b"><feGaussianBlur result="blur" in="SourceAlpha" stdDeviation="12"/><feOffset result="offsetBlurredAlpha" in="blur" dy="5"/><feMerge><feMergeNode in="offsetBlurredAlpha"/><feMergeNode in="SourceGraphic"/></feMerge></filter><circle fill="#4B4B4B" cx="428.781" cy="252.19" r="29.998" enable-background="new"/><path fill="#2B2B2B" d="M452.332 251.646s-2.188 10.004-13.293 15.92c-11.11 5.92-22.5 1.565-22.5 1.565s10.36 12.158 26.312 3.658c12.52-6.67 9.476-21.138 9.476-21.138z" opacity=".502" enable-background="new"/><path fill="#CF3428" d="M222.99 9.39c-45.27 0-36.085 42.645-36.085 42.645l8.53 57.078 59.045-1.312 7.217-59.04s6.56-39.37-38.707-39.37z" enable-background="new"/><path fill="#AB1600" d="M234.24 42.672c-4.252 0-8.052 1.93-10.578 4.957-2.527-3.03-6.327-4.96-10.58-4.96-7.607 0-13.774 6.165-13.774 13.773 0 7.607 6.167 13.775 13.775 13.775 3.004 0 5.772-.978 8.035-2.61V113h3.936V66.68c2.44 2.19 5.65 3.54 9.188 3.54 7.607 0 13.775-6.168 13.775-13.775 0-7.61-6.168-13.776-13.776-13.776z" enable-background="new"/><path fill="#FF8783" d="M200.758 81.086c2.975-.85 2.55-5.523 2.55-5.523s-2.298-13.435 2.125-28.467c4.25-14.445 8.508-19.216 7.65-23.367-.95-4.6-5.1-5.1-8.075-3.83-2.976 1.275-9.775 3.4-12.325 19.12-2.55 15.72 4.675 37.39 4.675 37.39s.424 5.523 3.4 4.673zm2.112 4.143c-1.52 0-2.75 1.23-2.75 2.75s1.23 2.75 2.75 2.75 2.75-1.236 2.75-2.75-1.23-2.75-2.75-2.75z" opacity=".6" enable-background="new"/><path fill="#2C2C2C" d="M224.957 101.896c-49.86 0-55.766 9.84-55.766 9.84l2.63 12.467 105.626-2.625 2.625-10.497s-5.25-9.18-55.11-9.18z" enable-background="new"/><path fill="#ADADAD" d="M478.84 178c-3.608-2.297-4.265-4.265-4.265-4.265l-31.163 59.046s-1.64 3.94 2.624 6.237 5.576-.656 5.576-.656l33.788-58.39s-2.952.328-6.56-1.97z" enable-background="new"/><g enable-background="new"><linearGradient id="a" gradientUnits="userSpaceOnUse" x1="228.766" y1="129.197" x2="224.867" y2="370.429"><stop offset="0" stop-color="#2F2311"/><stop offset=".179" stop-color="#E4AE50"/><stop offset=".204" stop-color="#F3FEA3"/><stop offset=".479" stop-color="#AF8F34"/><stop offset=".53" stop-color="#B9983C"/><stop offset=".758" stop-color="#F4D16C"/><stop offset=".99" stop-color="#C0A256"/></linearGradient><path fill="url(#a)" d="M409.883 256.29c0-19.665-4.29-63.46-9.44-86.7-5.15-23.238-18.37-24.49-31.754-26.812-20.59-3.573-72.04-10.716-142.36-10.724h-.125c-70.32.008-121.77 7.15-142.357 10.724-13.386 2.324-26.606 3.575-31.756 26.813-5.15 23.24-9.44 67.04-9.44 86.7 0 3.737-.186 8.58-.346 14.11-.68 23.572-.894 59.49 15.794 73.972 20.588 17.87 90.053 23.93 168.11 23.934h.108c78.058-.003 147.522-6.064 168.112-23.934 20.597-17.88 15.447-68.42 15.447-88.08z"/></g><g enable-background="new"><path fill="#005245" d="M108.06 345.987c-1.287-.227-2.552-.46-3.796-.696 1.244.24 2.508.47 3.796.7zm4.87.813c-1.443-.23-2.867-.463-4.262-.705 1.395.242 2.82.475 4.262.704zm21.75 2.783c-1.67-.17-3.313-.35-4.942-.533 1.628.183 3.272.363 4.942.533zm-8.33-15.783c0-3.928-3.187-7.11-7.116-7.11s-7.116 3.183-7.116 7.11v4.723l14.232-.186V333.8z"/><path fill="#005245" d="M110.06 338.55v-4.664c0-5.11 4.146-9.254 9.26-9.254 5.113 0 9.26 4.143 9.26 9.254v4.422l10.46-.138.884 21.51c1.542.14 4.962.47 6.534.602l-2.288-20.853s-1.2-4.4-4-4.4-5.6-.6-5.6-.6-1.2-13.2-14.4-13.2c-.1 0-.2.01-.3.02-.1-.01-.2-.02-.3-.02-13.2 0-14.4 13.2-14.4 13.2s-2.8.6-5.6.6-4 4.4-4 4.4l-2.087 11.55c1.32.31 3.617 1.032 5 1.33l1.29-13.63 10.287-.134z"/><path fill="#005245" d="M99.708 344.373c1.263.27 2.548.53 3.86.786-1.312-.26-2.596-.52-3.86-.79zm18.607 3.234c-1.506-.213-2.984-.435-4.444-.66 1.46.226 2.94.448 4.45.66zm4.885.657c-1.46-.188-2.904-.38-4.326-.58 1.422.2 2.866.392 4.327.58zm5.506.67c-1.59-.184-3.16-.37-4.707-.566 1.542.194 3.113.382 4.702.566zm11.217 1.156c-1.656-.152-3.298-.31-4.917-.475 1.62.165 3.26.323 4.917.475z"/><path fill="#00C2AA" d="M141.983 360.062l-2.945-21.893-10.46.133v-4.422c0-5.11-4.146-9.253-9.26-9.253-5.113 0-9.26 4.143-9.26 9.254v4.665l-10.287.133-1.284 13.63c0 1.08 43.5 7.75 43.5 7.75zM112.117 333.8c0-3.928 3.187-7.11 7.116-7.11s7.116 3.183 7.116 7.11v4.537l-14.237.186V333.8z"/></g><g enable-background="new"><path fill="#005245" d="M253.57 261.23l-3.4-37.8s-1.2-4.4-4-4.4-5.6-.6-5.6-.6-1.2-13.2-14.4-13.2c-.1 0-.2.015-.3.02-.1-.006-.2-.02-.3-.02-13.2 0-14.4 13.2-14.4 13.2s-2.8.6-5.6.6-4 4.4-4 4.4l-3.4 37.8s-2 8 5.4 8h44.6c7.4 0 5.4-8 5.4-8zm-51.4 2.414l3.602-40.96 10.288-.134v-4.664c0-5.11 4.146-9.254 9.26-9.254 5.113 0 9.26 4.143 9.26 9.254v4.422l10.46-.138 5.144 41.988-48.013-.514z"/><path fill="#005245" d="M225.233 210.688c-3.93 0-7.116 3.184-7.116 7.11v4.724l14.232-.186V217.8c0-3.928-3.19-7.112-7.12-7.112z"/><path fill="#00C2AA" d="M234.58 222.308v-4.422c0-5.11-4.147-9.254-9.26-9.254-5.115 0-9.26 4.143-9.26 9.254v4.664l-10.29.135-3.6 40.96 48.012.514-5.145-41.99-10.458.134zm-2.23.03l-14.232.185V217.8c0-3.928 3.187-7.11 7.116-7.11s7.116 3.183 7.116 7.11v4.537z"/></g><path fill="#005245" d="M363.57 260.23l-3.4-37.8s-1.2-4.4-4-4.4-5.6-.6-5.6-.6-1.2-13.2-14.4-13.2c-.1 0-.2.015-.3.02-.1-.006-.2-.02-.3-.02-13.2 0-14.4 13.2-14.4 13.2s-2.8.6-5.6.6-4 4.4-4 4.4l-3.4 37.8s-2 8 5.4 8h44.6c7.4 0 5.4-8 5.4-8z"/><path fill="#00C2AA" d="M355.038 221.17l-10.46.138v-4.422c0-5.11-4.145-9.254-9.26-9.254-5.113 0-9.26 4.143-9.26 9.254v4.664l-10.287.135-3.6 40.96 48.016.514-5.144-41.99zm-12.688.167l-14.232.186V216.8c0-3.928 3.187-7.11 7.116-7.11s7.116 3.183 7.116 7.11v4.537z"/><g enable-background="new"><path fill="#005245" d="M147.57 261.23l-3.4-37.8s-1.2-4.4-4-4.4-5.6-.6-5.6-.6-1.2-13.2-14.4-13.2c-.1 0-.2.014-.3.02-.1-.006-.2-.02-.3-.02-13.2 0-14.4 13.2-14.4 13.2s-2.8.6-5.6.6-4 4.4-4 4.4l-3.4 37.8s-2 8 5.4 8h44.6c7.4 0 5.4-8 5.4-8zm-51.4 2.414l3.602-40.96 10.288-.134v-4.664c0-5.11 4.146-9.254 9.26-9.254 5.113 0 9.26 4.143 9.26 9.254v4.422l10.46-.138 5.144 41.988-48.013-.514z"/><path fill="#005245" d="M119.233 210.688c-3.93 0-7.116 3.184-7.116 7.11v4.724l14.232-.186V217.8c0-3.928-3.19-7.112-7.12-7.112z"/><path fill="#00C2AA" d="M128.578 222.308v-4.422c0-5.11-4.146-9.254-9.26-9.254-5.113 0-9.26 4.143-9.26 9.254v4.664l-10.287.135-3.6 40.96 48.016.514-5.145-41.99-10.46.134zm-2.228.03l-14.232.185V217.8c0-3.928 3.187-7.11 7.116-7.11s7.116 3.183 7.116 7.11v4.537z"/></g><g enable-background="new"><path fill="#005245" d="M147.57 152.23l-.988-10.985c-24.668 2.024-43.186 4.58-53.994 6.34l-.418 4.645s-2 8 5.4 8h44.6c7.4 0 5.4-8 5.4-8z"/><path fill="#00C2AA" d="M142.52 141.588c-19.74 1.712-35.253 3.733-45.67 5.324l-.68 7.73 48.013.516-1.663-13.57z"/></g><g enable-background="new"><path fill="#005245" d="M254.57 154.23l-1.423-15.816c-8.576-.228-17.517-.358-26.82-.36h-.117c-8.867.002-17.407.12-25.615.328l-1.426 15.848s-2 8 5.4 8h44.6c7.4 0 5.4-8 5.4-8z"/><path fill="#00C2AA" d="M248.873 138.308c-7.265-.16-14.777-.253-22.545-.254h-.118c-7.37 0-14.508.085-21.427.23l-1.613 18.36 48.012.514-2.31-18.85z"/></g><g enable-background="new"><path fill="#005245" d="M362.57 154.23l-.567-6.31-.55-.09c-10.227-1.705-28.49-4.3-53.133-6.39l-1.15 12.788s-2 8 5.4 8h44.6c7.4 0 5.4-8 5.4-8z"/><path fill="#00C2AA" d="M357.97 147.267c-9.965-1.573-25.448-3.667-45.494-5.464l-1.305 14.84 48.017.516-1.212-9.897z"/></g><g enable-background="new"><path fill="#005245" d="M335.233 326.688c-3.93 0-7.116 3.184-7.116 7.11v4.724l14.232-.186V333.8c0-3.928-3.19-7.112-7.12-7.112z"/><path fill="#005245" d="M314.786 359.833l.985-21.148 10.29-.135v-4.664c0-5.11 4.15-9.254 9.26-9.254 5.116 0 9.26 4.143 9.26 9.254v4.422l10.46-.138 3.05 22.847c2.026-.336 3.95-.724 5.73-1.184l-3.646-20.404s-1.2-4.4-4-4.4-5.6-.6-5.6-.6-1.2-13.2-14.4-13.2c-.1 0-.2.01-.3.02-.1-.01-.2-.02-.3-.02-13.2 0-14.4 13.2-14.4 13.2s-2.8.6-5.6.6-4 4.4-4 4.4l-1.503 25.13c14.983-1.328 30.81-1.37 43.41-2.897-11.04.746-25.13-3.14-38.69-1.834z"/><path fill="#00C2AA" d="M358.086 361.017l-3.048-22.847-10.46.138v-4.422c0-5.11-4.145-9.254-9.26-9.254-5.113 0-9.26 4.143-9.26 9.254v4.664l-10.287.135-.98 21.148c13.56-1.305 27.65 2.58 38.69 1.833 1.605-.108 3.146-.312 4.61-.646v-.003zm-15.736-22.68l-14.232.186V333.8c0-3.928 3.187-7.11 7.116-7.11s7.116 3.183 7.116 7.11v4.537z"/></g><g enable-background="new"><path fill="#005245" d="M217.525 353.393c-.773-.005-1.543-.013-2.313-.02.77.008 1.54.015 2.313.02zm33.638-.197c-.457.008-.914.017-1.373.024.458-.007.916-.016 1.373-.024zm-17.143.204c.63-.003 1.25-.01 1.878-.014-.627.006-1.25.01-1.877.014zm5.33-19.6c0-3.928-3.187-7.11-7.116-7.11s-7.116 3.183-7.116 7.11v4.723l14.232-.186V333.8zm4.287 19.512c-.6.007-1.195.016-1.796.022.6-.006 1.2-.014 1.8-.022z"/><path fill="#005245" d="M223.06 338.55v-4.664c0-5.11 4.146-9.254 9.26-9.254 5.113 0 9.26 4.143 9.26 9.254v4.422l10.46-.138 1.834 24.393c1.51-.032 4.03.037 5.526 0l-2.23-23.134s-1.2-4.4-4-4.4-5.6-.6-5.6-.6-1.2-13.2-14.4-13.2c-.1 0-.2.01-.3.02-.1-.01-.198-.02-.3-.02-13.2 0-14.4 13.2-14.4 13.2s-2.8.6-5.6.6-4 4.4-4 4.4l-2.087 22.55c1.378.014 2.864-.23 4.25-.22l2.04-23.08 10.287-.134z"/><path fill="#00C2AA" d="M255.484 361.975l-1.612-8.836-1.834-14.97-10.46.134v-4.422c0-5.11-4.145-9.254-9.26-9.254-5.113 0-9.26 4.143-9.26 9.254v4.664l-10.287.133-2.034 23.89 1.25-.81c1.238.01 42.604.23 43.502.21zm-30.367-23.453V333.8c0-3.928 3.187-7.11 7.116-7.11s7.116 3.183 7.116 7.11v4.537l-14.237.185z"/></g><path fill="#FFF" d="M104.542 234.22c-.394 0-.73.136-1.008.408-.17-.038-.37-.066-.595-.085-.23-.02-.48-.03-.76-.03-1.65 0-3.26.94-4.84 2.816-1.86 2.21-2.788 4.38-2.788 6.5 0 1.356.47 2.535 1.408 3.54.983 1.04 2.188 1.56 3.614 1.56 1.807 0 3.582-.737 5.325-2.208.33-.28.493-.605.493-.98 0-.335-.123-.633-.37-.894-.267-.277-.59-.417-.97-.417-.254 0-.628.166-1.123.495-.734.5-1.216.812-1.444.932-.646.33-1.283.493-1.91.493-.647 0-1.202-.247-1.665-.742-.46-.493-.692-1.086-.692-1.777 0-1.514.73-3.14 2.195-4.877 1.047-1.242 1.97-1.864 2.768-1.864.408 0 .66.022.75.066.13.058.258.23.385.514.272.604.694.904 1.265.904.454 0 .803-.17 1.044-.513.184-.26.275-.55.275-.864 0-.71-.056-1.33-.16-1.863-.155-.743-.555-1.113-1.2-1.113zm8.73 4.43h-5.62c-.38 0-.69.126-.928.376-.238.25-.356.547-.356.89 0 .538.237.902.713 1.093.3.12.776.18 1.42.18h.85c.112 2.42.17 4.063.17 4.932 0 .222-.01.56-.028 1.013-.02.452-.03.79-.03 1.012 0 .342.14.624.42.846.26.208.56.312.903.312.927 0 1.39-.71 1.39-2.13 0-1.174-.066-3.184-.2-6.03.114-.013.22-.02.313-.02.172 0 .427.01.766.024.34.015.596.022.767.022.387 0 .7-.12.946-.36s.367-.54.367-.895c0-.85-.62-1.275-1.857-1.275zm11.677 7.515c-.176-.527-.26-1.39-.26-2.59 0-.508.02-.95.05-1.33.035-.38.085-.696.148-.947.146-.17.22-.367.22-.594 0-.54-.48-1.014-1.438-1.42-.792-.34-1.49-.51-2.092-.51-1.57 0-2.92.544-4.05 1.63-1.13 1.088-1.692 2.396-1.692 3.924 0 1.63.382 2.853 1.146 3.67.764.818 1.91 1.228 3.438 1.228.31 0 .69-.07 1.133-.214.443-.144.957-.354 1.54-.633.634.56 1.097.842 1.39.842.335 0 .632-.11.888-.33.26-.22.388-.496.388-.828 0-.075-.124-.383-.37-.923-.274-.596-.42-.922-.44-.98zm-3.537.602c-.353.13-.725.195-1.118.195-.61 0-1.065-.214-1.37-.642-.304-.428-.456-1.066-.456-1.916 0-.888.323-1.67.97-2.345.646-.68 1.4-1.018 2.264-1.018.07 0 .153.015.252.043.098.027.21.073.337.137-.057.323-.1.617-.128.88s-.044.496-.044.7c0 .747.096 1.875.286 3.384-.31.254-.64.446-.993.576zm10.73-7.907c-.43 0-.86.06-1.288.176s-.855.296-1.28.537l.01-.095c0-.337-.12-.625-.36-.866-.242-.24-.54-.36-.895-.36-.462 0-.83.212-1.103.637-.234.37-.35.82-.35 1.35 0-.118.046.51.14 1.87.07.99.115 2.17.134 3.536.015.97.015 2.222 0 3.756-.01 2.066-.02 3.25-.02 3.547 0 .367.126.672.374.913.247.24.56.36.94.36.38 0 .694-.12.942-.36.246-.24.37-.546.37-.913l.01-3.88c.602.13 1.175.19 1.72.19 1.427 0 2.565-.49 3.415-1.473.794-.914 1.19-2.064 1.19-3.453 0-1.483-.25-2.69-.75-3.623-.67-1.233-1.735-1.852-3.193-1.852zm.847 7.17c-.35.463-.85.694-1.5.694-.564 0-1.13-.092-1.693-.276 0-1.312-.04-2.62-.115-3.927.42-.37.834-.65 1.246-.84.41-.19.82-.28 1.22-.28.62 0 1.02.39 1.204 1.16.076.33.114.925.114 1.78 0 .71-.16 1.275-.477 1.694zm10.69-7.38h-5.62c-.38 0-.69.126-.927.376s-.356.547-.356.89c0 .538.236.902.712 1.093.296.12.77.18 1.415.18h.846c.115 2.42.17 4.063.17 4.932 0 .222-.01.56-.026 1.013-.02.452-.03.79-.03 1.012 0 .342.14.624.42.846.26.208.56.312.902.312.926 0 1.39-.71 1.39-2.13 0-1.174-.067-3.184-.2-6.03.113-.013.218-.02.313-.02.17 0 .426.01.766.024.34.015.595.022.766.022.387 0 .702-.12.946-.36s.364-.54.364-.895c-.003-.85-.62-1.275-1.857-1.275zm62.01-4.43c-.394 0-.73.136-1.01.408-.17-.038-.37-.066-.593-.085-.227-.02-.48-.03-.758-.03-1.65 0-3.264.94-4.84 2.816-1.86 2.21-2.79 4.38-2.79 6.5 0 1.356.47 2.535 1.41 3.54.982 1.04 2.187 1.56 3.613 1.56 1.807 0 3.582-.737 5.325-2.208.33-.28.493-.605.493-.98 0-.335-.122-.633-.37-.894-.266-.277-.59-.417-.97-.417-.253 0-.627.166-1.122.495-.734.5-1.216.812-1.444.932-.646.33-1.283.493-1.91.493-.647 0-1.202-.247-1.665-.742-.46-.493-.693-1.086-.693-1.777 0-1.514.73-3.14 2.195-4.877 1.047-1.242 1.97-1.864 2.768-1.864.407 0 .658.022.75.066.13.058.257.23.384.514.272.604.694.904 1.265.904.454 0 .803-.17 1.044-.513.184-.26.276-.55.276-.864 0-.71-.054-1.33-.16-1.863-.153-.743-.55-1.113-1.2-1.113zm10.803 4.592c-.476 0-.85.23-1.122.685-.43.717-.87 1.547-1.32 2.49-.144.312-.556 1.22-1.233 2.72-1.198-2.408-2.248-4.212-3.148-5.41-.237-.31-.56-.466-.98-.466-.356 0-.67.13-.94.396-.275.26-.41.56-.41.903 0 .24.084.506.256.8l.466.73c1.516 2.675 2.62 4.7 3.32 6.076-1.343 2.903-2.015 4.65-2.015 5.24 0 .354.136.65.41.884.27.233.588.35.95.35.582 0 .988-.3 1.217-.894.285-.773.494-1.356.627-1.75.425-1.09 1.043-2.463 1.854-4.117 1.496-3.08 2.59-5.344 3.28-6.78.108-.224.162-.427.162-.61 0-.35-.14-.644-.418-.885-.28-.24-.596-.362-.952-.362zm12.962 4.67c0-.38.016-.955.047-1.723.032-.77.048-1.35.048-1.73 0-.33-.13-.62-.394-.87-.264-.247-.572-.37-.928-.37-.547 0-1.368-.007-2.465-.02s-1.918-.02-2.463-.02c-.234 0-.58.032-1.036.096-.457.062-.8.094-1.027.094-.457 0-.83.14-1.123.42-.292.278-.438.627-.438 1.046 0 .55.04 1.37.12 2.462.077 1.09.117 1.907.117 2.452 0 .285-.03.712-.09 1.28s-.09.992-.09 1.278c0 .354.124.65.374.884.25.234.567.353.947.353s.697-.117.95-.352.382-.53.382-.884c0-.287.027-.71.084-1.28.058-.567.086-.994.086-1.28 0-.513-.027-1.182-.085-2.005-.073-1.06-.114-1.73-.12-2.017.4-.05.716-.077.95-.077l3.576.03c-.045 1.18-.066 1.943-.066 2.292 0 .476.04 1.186.122 2.13.083.945.125 1.658.125 2.14 0 .355.123.648.373.88.25.23.566.348.946.348.386 0 .704-.115.955-.347.25-.23.377-.524.377-.88 0-.487-.042-1.21-.13-2.168-.082-.96-.124-1.68-.124-2.17zm10.374 2.358c-.316 0-.738.155-1.265.466-.59.35-1.31.523-2.158.523-.56 0-1.055-.088-1.485-.25-.432-.167-.8-.41-1.104-.74l3.206-1.42c1.07-.477 1.784-.838 2.14-1.085.78-.54 1.17-1.158 1.17-1.855 0-.99-.48-1.717-1.437-2.187-.73-.354-1.646-.532-2.75-.532-1.59 0-2.855.617-3.793 1.847-.844 1.11-1.265 2.467-1.265 4.07 0 1.452.53 2.577 1.596 3.376.962.723 2.2 1.084 3.717 1.084.995 0 1.937-.19 2.824-.57 1.06-.457 1.59-1.046 1.59-1.77 0-.64-.33-.96-.99-.96zm-5.19-4.185c.42-.393.92-.59 1.51-.59.686 0 1.24.12 1.665.362-.507.33-1.188.688-2.045 1.074l-2.14.928c.256-.785.59-1.375 1.01-1.77zm12.912-2.795c-.43 0-.86.06-1.288.176s-.854.296-1.28.537l.01-.095c0-.337-.12-.625-.36-.866-.24-.24-.54-.36-.894-.36-.46 0-.83.212-1.102.637-.236.37-.354.82-.354 1.35 0-.118.047.51.143 1.87.07.99.113 2.17.132 3.536.012.97.012 2.222 0 3.756-.014 2.066-.02 3.25-.02 3.547 0 .367.123.672.37.913.25.24.562.36.942.36s.693-.12.94-.36c.248-.24.37-.546.37-.913l.01-3.88c.604.13 1.177.19 1.723.19 1.425 0 2.562-.49 3.412-1.473.793-.914 1.19-2.064 1.19-3.453 0-1.483-.252-2.69-.753-3.623-.67-1.233-1.736-1.852-3.195-1.852zm.846 7.17c-.35.463-.85.694-1.504.694-.564 0-1.13-.092-1.693-.276 0-1.312-.037-2.62-.113-3.927.42-.37.833-.65 1.245-.84.412-.19.817-.28 1.217-.28.62 0 1.023.39 1.207 1.16.08.33.117.925.117 1.78 0 .71-.158 1.275-.476 1.694zm4.62-1.322c0 .336.115.615.347.837s.524.333.88.333c.354 0 .647-.11.88-.333.23-.222.347-.5.347-.837v-10.09c0-.336-.117-.616-.352-.84-.235-.227-.526-.34-.875-.34s-.64.113-.875.34c-.234.224-.352.504-.352.84 0 .875-.006 2.188-.02 3.938s-.024 3.062-.024 3.937c0 .248.008.617.023 1.108s.022.86.022 1.11zm2.016 2.416c-.323-.406-.675-.61-1.056-.61-.33 0-.62.112-.88.334-.26.223-.39.498-.39.827 0 .323.147.673.445 1.047.33.405.685.608 1.065.608.33 0 .62-.114.88-.343s.384-.504.384-.827c0-.317-.148-.662-.446-1.036zm62.588-14.477l-7.92-.02c-.502 0-1.248-.02-2.24-.057s-1.74-.057-2.24-.057c-.07 0-.187-.004-.352-.01h-.38c-1.332 0-1.997.435-1.997 1.303 0 .36.125.662.375.903.254.24.57.36.95.36.29 0 .627-.007 1.007-.01.07.802.105 1.214.105 1.232.1 3.088.15 4.745.15 4.974 0 .29-.017.696-.055 1.217-.045.57-.07.976-.076 1.217-.013.515-.02 1.525-.02 3.034 0 .36.13.66.386.895s.572.35.946.35c.62 0 1.024-.267 1.21-.8.094-.266.142-.763.142-1.49 0-.12-.003-.445-.01-.97-.006-.396-.006-.715 0-.96.007-.25.032-.665.077-1.248.04-.533.058-.948.058-1.246 0-.253-.05-1.933-.153-5.04-.038-.5-.07-.874-.095-1.12 1.482.05 3.007.075 4.573.075 1.18 0 1.92-.02 2.217-.065-.063.892-.096 2.17-.096 3.83 0 .432.033 1.287.097 2.567.066 1.28.098 2.412.098 3.396 0 .35.06.98.18 1.89.103.78.54 1.17 1.313 1.17.374 0 .69-.12.946-.355s.386-.538.386-.9c0-.202-.026-.503-.083-.902-.057-.4-.085-.7-.085-.903 0-1.003-.032-2.165-.1-3.486-.065-1.32-.1-2.146-.1-2.477 0-1.598.035-2.855.105-3.775 1.35.07 2.025-.35 2.025-1.264 0-.36-.127-.662-.38-.903-.25-.242-.57-.363-.95-.363zm11.155 4.87c-.477 0-.85.228-1.123.685-.432.716-.872 1.547-1.322 2.49-.146.312-.558 1.22-1.236 2.72-1.2-2.408-2.248-4.212-3.148-5.41-.234-.31-.56-.466-.98-.466-.353 0-.668.13-.94.39-.272.26-.41.562-.41.903 0 .24.087.503.258.794l.47.732c1.515 2.675 2.62 4.7 3.32 6.076-1.346 2.903-2.02 4.65-2.02 5.24 0 .354.137.648.41.884.27.235.59.353.95.353.583 0 .99-.298 1.217-.894.286-.775.495-1.36.628-1.75.426-1.093 1.044-2.465 1.855-4.12 1.494-3.08 2.59-5.34 3.28-6.78.106-.222.16-.424.16-.61 0-.347-.14-.64-.418-.882-.28-.243-.597-.363-.952-.363zm12.96 4.67c0-.382.016-.955.05-1.723.03-.767.046-1.344.046-1.73 0-.33-.132-.618-.395-.865-.263-.25-.57-.376-.927-.376-.544 0-1.365-.006-2.462-.02s-1.915-.02-2.46-.02c-.234 0-.58.033-1.036.097-.457.064-.8.096-1.027.096-.456 0-.83.14-1.122.417-.292.28-.438.628-.438 1.047 0 .55.04 1.373.12 2.464.078 1.09.117 1.908.117 2.453 0 .286-.03.713-.09 1.28-.06.567-.09.993-.09 1.278 0 .355.124.65.375.885.25.235.563.353.944.353.38 0 .698-.117.95-.352.255-.23.38-.53.38-.882 0-.285.03-.71.088-1.278.06-.568.087-.995.087-1.28 0-.514-.028-1.183-.085-2.007-.075-1.06-.116-1.73-.123-2.016.4-.05.716-.076.95-.076l3.575.03c-.044 1.18-.066 1.943-.066 2.29 0 .478.04 1.188.123 2.13.082.947.123 1.66.123 2.14 0 .357.125.65.376.88.25.23.563.35.944.35.386 0 .704-.118.955-.35.25-.23.376-.524.376-.88 0-.488-.043-1.21-.128-2.168-.085-.957-.128-1.68-.128-2.167zm10.375 2.357c-.317 0-.738.155-1.265.466-.59.35-1.31.523-2.156.523-.557 0-1.05-.083-1.482-.248-.43-.164-.8-.412-1.102-.74l3.205-1.418c1.07-.476 1.787-.837 2.14-1.084.78-.54 1.17-1.157 1.17-1.854 0-.99-.48-1.72-1.434-2.19-.73-.357-1.646-.53-2.748-.53-1.593 0-2.857.61-3.796 1.84-.842 1.11-1.264 2.466-1.264 4.07 0 1.452.532 2.577 1.598 3.376.964.722 2.203 1.083 3.718 1.083.996 0 1.938-.19 2.825-.57 1.06-.457 1.59-1.047 1.59-1.77 0-.64-.33-.96-.99-.96zm-5.192-4.185c.42-.398.923-.59 1.513-.59.685 0 1.24.12 1.664.36-.505.33-1.186.69-2.042 1.07-.71.305-1.423.61-2.14.923.254-.784.59-1.374 1.008-1.768zm12.914-2.8c-.43 0-.86.06-1.288.175-.43.117-.855.296-1.28.537l.01-.096c0-.336-.12-.624-.36-.865-.24-.24-.54-.36-.896-.36-.463 0-.83.213-1.103.638-.234.373-.352.823-.352 1.35 0-.115.045.51.14 1.873.07.99.114 2.17.134 3.538.012.97.012 2.224 0 3.757-.014 2.066-.02 3.25-.02 3.547 0 .367.123.672.37.912s.562.36.94.36c.38 0 .695-.12.94-.36.25-.24.373-.546.373-.913l.01-3.88c.6.127 1.175.19 1.72.19 1.427 0 2.564-.49 3.414-1.474.792-.913 1.188-2.063 1.188-3.452 0-1.482-.25-2.69-.75-3.622-.672-1.236-1.737-1.855-3.195-1.855zm.847 7.17c-.35.463-.85.693-1.502.693-.563 0-1.127-.092-1.69-.275 0-1.31-.04-2.62-.115-3.928.42-.374.834-.654 1.246-.84.412-.19.817-.282 1.217-.282.62 0 1.02.39 1.205 1.16.076.33.114.925.114 1.78 0 .71-.16 1.275-.476 1.694zm4.62-1.32c0 .334.118.613.35.835s.524.332.88.332.647-.11.88-.334.347-.502.347-.838v-10.09c0-.337-.115-.617-.35-.84-.234-.228-.526-.34-.875-.34s-.64.112-.874.34c-.234.223-.352.503-.352.84 0 .874-.008 2.187-.023 3.937-.016 1.75-.023 3.062-.023 3.937 0 .246.01.616.024 1.107s.023.86.023 1.107zm2.018 2.413c-.322-.405-.675-.608-1.055-.608-.33 0-.625.11-.885.332s-.39.497-.39.826c0 .322.15.67.45 1.045.33.406.685.61 1.064.61.33 0 .623-.115.88-.344s.385-.503.385-.826c0-.316-.15-.66-.447-1.036z" enable-background="new"/><path fill="#DC8400" filter="url(#b)" d="M423.44 248.31c0-20.085-4.562-64.822-10.04-88.56-5.477-23.738-19.537-25.016-33.774-27.39-21.896-3.65-76.62-10.946-151.41-10.955h-.13c-29.18.004-55.28 1.118-77.59 2.69l-46.238 4.37c-11.818 1.428-21.135 2.82-27.584 3.896-14.237 2.38-28.297 3.656-33.774 27.39s-10.042 68.48-10.042 88.566S27.38 336.87 49.29 355.13c21.897 18.25 95.78 21.908 178.8 21.91h.122c83.02-.002 156.9-3.66 178.8-21.91 21.907-18.26 16.43-86.733 16.43-106.82zm-33.636 91.857c-19.792 17.253-86.566 23.106-161.602 23.11h-.104c-75.035-.004-141.81-5.857-161.6-23.11-19.802-17.26-14.853-66.058-14.853-85.042 0-18.986 4.126-61.27 9.076-83.71 4.95-22.436 17.66-23.645 30.53-25.888 19.79-3.45 69.25-10.347 136.843-10.355h.12c67.595.008 117.053 6.906 136.843 10.355 12.867 2.243 25.575 3.452 30.526 25.89 4.95 22.437 9.073 64.722 9.073 83.708.004 18.984 4.955 67.782-14.845 85.042z"/><path fill="#DC8400" d="M406.455 256.683c0-19.382-4.21-62.55-9.263-85.455-5.055-22.905-18.027-24.14-31.163-26.43-20.208-3.52-70.698-10.56-139.7-10.57h-.12c-69.01.01-119.5 7.05-139.7 10.57-13.14 2.29-26.11 3.524-31.16 26.43-5.06 22.905-9.27 66.073-9.27 85.455 0 19.38-5.054 69.196 15.16 86.816 20.203 17.61 88.372 23.583 164.973 23.59h.105c76.6-.007 144.77-5.98 164.973-23.59 20.215-17.62 15.16-67.44 15.16-86.82zm-21.948 82.997c-19.373 16.89-84.737 22.618-158.187 22.62h-.102c-73.45-.002-138.814-5.73-158.187-22.62-19.38-16.895-14.533-64.66-14.533-83.245 0-18.585 4.04-59.977 8.885-81.94s17.284-23.146 29.88-25.34c19.37-3.378 67.786-10.13 133.953-10.138h.116c66.168.01 114.58 6.76 133.953 10.137 12.597 2.195 25.036 3.378 29.88 25.34 4.847 21.964 8.884 63.356 8.884 81.94 0 18.585 4.848 66.35-14.535 83.246z"/><path fill="#EBB600" d="M438.657 252.688c0-21.642-4.918-69.845-10.82-95.42s-21.05-26.955-36.39-29.512c-23.593-3.933-82.556-11.795-163.14-11.804h-.14c-31.44.004-59.562 1.205-83.6 2.9l-49.82 4.707c-12.732 1.533-22.77 3.033-29.72 4.19-15.34 2.558-30.49 3.936-36.39 29.51s-10.82 73.78-10.82 95.423-5.9 95.42 17.704 115.093c23.6 19.664 103.2 23.604 192.65 23.607h.136c89.45-.003 169.056-3.943 192.65-23.608 23.607-19.675 17.705-93.45 17.705-115.093zm-47.362 90.81c-20.204 17.613-88.372 23.59-164.973 23.592h-.105c-76.6-.003-144.77-5.98-164.973-23.59-20.214-17.62-15.16-67.437-15.16-86.817 0-19.382 4.21-62.55 9.265-85.455 5.05-22.905 18.02-24.14 31.16-26.43 20.2-3.52 70.69-10.56 139.7-10.57h.12c69.002.01 119.492 7.05 139.7 10.57 13.13 2.29 26.103 3.524 31.16 26.43 5.05 22.905 9.26 66.073 9.26 85.455 0 19.38 5.055 69.196-15.16 86.816z"/><path fill="#E22424" d="M427.12 238.98l-10.75.75s-1-4-2-5.75-2.75-1.25-2.75-1.25l-11.75 10s-3.5 2.75-3 5 2.25 3 2.25 3l14.5 10.75s1.25.25 2.25-1.25 1.5-7 1.5-7h10.75s3.25.782 3.25-7.75c0-5.75-4.25-6.5-4.25-6.5zm-370.812 3.75l-11.75-10s-1.75-.5-2.75 1.25-2 5.75-2 5.75l-10.75-.75s-4.25.75-4.25 6.5c0 8.532 3.25 7.75 3.25 7.75h10.75s.5 5.5 1.5 7 2.25 1.25 2.25 1.25l14.5-10.75s1.75-.75 2.25-3-3-5-3-5z" enable-background="new"/><path fill="#EBB600" d="M120.643 138.636l-.656 14.433 21.65-1.317-.656-15.746-20.333 2.625zm203.71 0l-20.34-2.625-.655 18.37 21.65 1.317-.656-17.057zm-159.1 227.654l16.403 2.625v-26.243L164.6 341.36l.655 24.93zm115.47 1.313l13.777-.656 4.593-20.994-14.434-3.28-3.94 24.93z" enable-background="new"/><circle fill="#4B4B4B" cx="482.779" cy="169.193" r="20.499" enable-background="new"/><path fill="#2B2B2B" d="M483.17 179.23c-11 0-18-9.2-18-9.2s3 15.6 18.8 15.6c12.4 0 16-14.2 16-14.2s-5.8 7.8-16.8 7.8z" opacity=".502" enable-background="new"/><path fill="#FFF" d="M492.42 157.99c-1.527-5.422-8.11-8.31-14.702-6.452-6.59 1.858-10.695 7.76-9.166 13.183s7.465 4.55 14.057 2.69c6.59-1.86 11.34-3.994 9.81-9.416z" opacity=".4" enable-background="new"/><g fill="#FFF800"><circle cx="399.208" cy="148.672" r="6.809"/><circle cx="409.455" cy="170.229" r="6.809"/><circle cx="413.825" cy="193.629" r="6.809"/><circle cx="416.54" cy="217.632" r="6.809"/><circle cx="419.634" cy="275.803" r="6.809"/><circle cx="419.634" cy="299.803" r="6.809"/><circle cx="415.54" cy="324.632" r="6.809"/><circle cx="406.017" cy="343.198" r="6.809"/><circle cx="388.013" cy="358.754" r="6.809"/><circle cx="363.816" cy="367.09" r="6.809"/><circle cx="336.941" cy="372.371" r="6.809"/><circle cx="308.924" cy="375.898" r="6.809"/><circle cx="283.067" cy="377.041" r="6.809"/><circle cx="258.395" cy="378.041" r="6.809"/><circle cx="232.858" cy="378.18" r="6.809"/><circle cx="208.323" cy="378.18" r="6.809"/><circle cx="185.329" cy="378.18" r="6.809"/><circle cx="162.383" cy="377.18" r="6.809"/><circle cx="140.506" cy="376.041" r="6.809"/><circle cx="116.732" cy="373.898" r="6.809"/><circle cx="95.216" cy="370.232" r="6.809"/><circle cx="73.066" cy="365.09" r="6.809"/><circle cx="52.548" cy="356.754" r="6.809"/><circle cx="42.083" cy="339.027" r="6.809"/><circle cx="35.274" cy="317.823" r="6.809"/><circle cx="33.274" cy="292.994" r="6.809"/><circle cx="33.249" cy="269.229" r="6.809"/><circle cx="36.274" cy="222.192" r="6.809"/><circle cx="39.058" cy="196.5" r="6.809"/><circle cx="42.083" cy="173.735" r="6.809"/><circle cx="48.892" cy="151.835" r="6.809"/><circle cx="67.257" cy="138.054" r="6.809"/><circle cx="91.923" cy="134.228" r="6.809"/><circle cx="116.732" cy="131.245" r="6.809"/><circle cx="142.183" cy="129.419" r="6.809"/><circle cx="166.066" cy="127.437" r="6.809"/><circle cx="188.14" cy="126.202" r="6.809"/><circle cx="211.482" cy="125.202" r="6.809"/><circle cx="232.858" cy="125.406" r="6.809"/><circle cx="256.484" cy="125.202" r="6.809"/><circle cx="281.067" cy="126.202" r="6.809"/><circle cx="304.924" cy="127.437" r="6.809"/><circle cx="328.133" cy="129.419" r="6.809"/><circle cx="353.374" cy="132.214" r="6.809"/><circle cx="378.434" cy="137.228" r="6.809"/></g></svg>