<svg xmlns="http://www.w3.org/2000/svg" width="273" height="230" viewBox="0 0 273 230"><path fill="#1C283C" d="M150.926 121.434C136.43 83.518 95.75 62.776 57.398 76.08c-38.352 13.303-59.897 48.55-45.9 91.953 12.46 38.634 55.724 60.23 94.075 46.93 38.35-13.305 60.572-53.726 45.353-93.53z"/><path fill="#291D17" d="M111.042 130.78c-14.9-26.54-37.066-45.134-59.392-52.47-34.706 14.72-53.432 48.544-40.152 89.723 12.46 38.634 55.724 60.23 94.075 46.93 7.397-2.567 14.186-6.15 20.23-10.535 3.878-22.09-.798-48.776-14.76-73.648z"/><path fill="#FFF" d="M107.79 130.77c-15.925-28.37-41.478-46.233-64.988-48.1-28.926 16.42-43.405 47.836-31.304 85.36 12.46 38.634 55.724 60.23 94.075 46.93 3.35-1.163 6.57-2.544 9.66-4.103 10.4-21.035 8.373-51.916-7.442-80.09z"/><ellipse transform="rotate(-29.308 59.536 157.972)" fill="#AEAEAE" cx="59.535" cy="157.97" rx="44.317" ry="62.283"/><ellipse transform="rotate(-29.308 61.153 157.136)" fill="#FFF" cx="61.153" cy="157.134" rx="28.844" ry="40.538"/><ellipse transform="rotate(-29.308 62.775 156.304)" fill="#E11C33" cx="62.771" cy="156.298" rx="13.869" ry="19.491"/><path d="M83.86 149.503c-17.295-25.973-36.882-46.54-51.24-59.967-21.958 17.532-31.706 45.68-21.122 78.497 12.46 38.634 55.724 60.23 94.075 46.93 1.79-.62 3.53-1.32 5.246-2.056-4.52-18.783-12.56-41.78-26.96-63.404z" opacity=".11"/><path fill="#372820" d="M234.113 14.108c-1.396-1.63-13.748-3.664-21.805 2.9-2.88 2.345-7.546 6.578-12.353 11.048-.878 3.105-1.984 6.202-1.984 6.202l.5-4.816c-8.163 7.628-16.25 15.453-16.25 15.453l-4.242 11.988-101.092 83.794c-2.788.33-7.53 1.366-10.368 4.627-4.21 4.836-6.97 9.83-6.97 9.83l2.043 1.937s6.86-1.932 11.473-4.864 6.83-9.2 6.83-9.2l-.21-.673 100.64-82.69 13.824-.137s5.372-3.54 12.017-8.06c-1.55-.7-3.672-1.58-4.815-1.704-.968-.105-1.515-.117-1.82-.103l-.37.055s.065-.04.37-.055c1.52-.22 7.4-1.008 9.764-.33.952-.653 1.917-1.318 2.884-1.987-.678-.22-1.596-.464-2.68-.604l-2.352-.304s3.493-1.86 6.845-1.116l.83.185c4.45-3.11 8.728-6.187 11.78-8.574 9.85-7.703 8.914-21.167 7.517-22.797z"/><path fill="#514036" d="M212.31 17.008c-2.88 2.346-7.547 6.58-12.354 11.05-.878 3.104-1.984 6.2-1.984 6.2l.498-4.815c-8.166 7.628-16.25 15.453-16.25 15.453l-4.245 11.988-101.093 83.793c-2.788.33-7.53 1.366-10.368 4.627-4.21 4.836-6.97 9.83-6.97 9.83l.787.745L233.46 13.65c-2.992-1.475-13.836-2.597-21.145 3.358z"/><path fill="#372820" d="M249.596 33.1c-1.244-1.748-13.364-4.88-21.977.936-3.08 2.08-8.11 5.877-13.297 9.897-1.153 3.015-2.532 6-2.532 6l.93-4.753c-8.816 6.867-17.57 13.936-17.57 13.936l-5.3 11.56-108.193 74.4c-2.808.08-7.623.688-10.74 3.682-4.627 4.438-7.823 9.165-7.823 9.165l1.86 2.113s7.01-1.313 11.864-3.82c4.853-2.51 7.624-8.553 7.624-8.553l-.147-.69 107.637-73.34 13.78 1.102s5.67-3.046 12.69-6.95c-1.478-.836-3.517-1.903-4.643-2.13-.953-.19-1.497-.25-1.803-.265l-.373.022s.066-.035.372-.022c1.533-.084 7.46-.34 9.753.546 1.007-.565 2.027-1.14 3.05-1.72-.655-.283-1.548-.607-2.615-.844l-2.315-.513s3.647-1.546 6.92-.5l.81.26c4.71-2.7 9.245-5.387 12.5-7.49 10.5-6.79 10.774-20.285 9.53-22.033z"/><path fill="#514036" d="M227.62 34.035c-3.08 2.08-8.105 5.877-13.293 9.897-1.153 3.015-2.532 6-2.532 6l.928-4.753c-8.816 6.862-17.57 13.93-17.57 13.93l-5.3 11.56L81.66 145.08c-2.807.08-7.622.687-10.74 3.68-4.626 4.44-7.822 9.166-7.822 9.166l.716.812L248.98 32.586c-2.847-1.74-13.547-3.827-21.36 1.45z"/><path fill="#372820" d="M266.696 71.355c-.923-1.938-12.317-7.122-21.807-2.886-3.397 1.51-9 4.38-14.81 7.442-1.658 2.77-3.534 5.47-3.534 5.47l1.736-4.52c-9.872 5.236-19.72 10.683-19.72 10.683l-7.22 10.467-119.44 54.543c-2.78-.41-7.626-.645-11.217 1.764-5.325 3.57-9.29 7.673-9.29 7.673l1.465 2.404s7.13-.08 12.347-1.71 8.99-7.103 8.99-7.103l-.024-.704 118.716-53.59 13.38 3.47s6.11-2.016 13.702-4.646c-1.312-1.078-3.135-2.482-4.204-2.9-.908-.354-1.434-.508-1.73-.573l-.37-.04s.07-.022.37.04c1.527.186 7.41.96 9.514 2.23 1.09-.384 2.193-.773 3.3-1.167-.596-.39-1.418-.862-2.43-1.28l-2.19-.905s3.857-.887 6.9.707l.753.396c5.106-1.842 10.037-3.7 13.605-5.207 11.52-4.872 14.127-18.114 13.203-20.052z"/><path fill="#514036" d="M244.89 68.47c-3.392 1.515-9 4.385-14.806 7.447-1.657 2.77-3.533 5.47-3.533 5.47l1.74-4.52c-9.87 5.236-19.72 10.683-19.72 10.683l-7.22 10.468L81.91 152.56c-2.78-.407-7.627-.643-11.218 1.766-5.323 3.57-9.29 7.673-9.29 7.673l.565.92L266.18 70.74c-2.503-2.205-12.68-6.115-21.288-2.272z"/></svg>