<svg xmlns="http://www.w3.org/2000/svg" width="173" height="261" viewBox="0 0 173 261"><path fill="#1C283C" d="M153.986 143.1c-17.37-36.69-63.072-52.486-99.372-34.317-36.3 18.17-53.084 61.135-32.827 98.626 19.297 35.712 62.326 50.995 98.625 32.825 36.3-18.17 53.087-55.918 33.574-97.135z"/><path fill="#304165" d="M87.307 202.118l-16.25-1.47.055.332 2.545 15.454.928.836h.743l.278.557 1.486.186.557-.37h.556l.093.835 2.32.37.28-.557h1.02v.837h2.6v-.928h1.393v1.02H88.7v-1.02h1.392v.927h2.6v-.836h1.02l.28.56 2.32-.372.094-.836h.557l.558.37 1.486-.185.278-.557h.743l.93-.836 2.544-15.454.056-.33-16.25 1.468z"/><path fill="#182F4C" d="M80.01 203.21l.72 15.422.17-.34h1.02v.835h.21l-.395-15.918H80.01zm3.715.265l.81 14.725h1.38v.99l.065.004-.398-16.05-1.857.33zm-10.214-1.66l1.507 15.455h.312l.226.454-1.315-15.908h-.73zm2.654.93l1.214 15.077.272-.18h.557l.093.835.035.005-.91-15.737h-1.26zm16.318 16.382h.21v-.836h1.02l.17.342.72-15.423h-1.726l-.394 15.917zm7.89-17.31l-1.314 15.907.227-.454h.312l1.506-15.454h-.73zm-11.74 17.376l.067-.003v-.99h1.376l.812-14.726-1.856-.33-.4 16.05zm7.646-.71l.035-.006.093-.836h.557l.272.182 1.214-15.077h-1.262l-.91 15.737z"/><path fill="#2C272E" d="M70.66 200.888l1.06 5.77 1.858.664-.464-5.24-2.455-1.194zm3.315 1.526l.53 5.173 1.924.465-.267-5.24-2.188-.398zm3.317.796l.464 4.974 2.056.266s.133-4.975-.133-4.975-2.388-.265-2.388-.265zm4.244 5.438h2.122v-4.71l-2.32-.198.198 4.908zm4.112.2h3.25v-4.908l-3.25.066v4.842zm15.852-6.766l-.465 5.24 1.857-.664 1.062-5.77-2.454 1.194zm-3.316 5.97l1.923-.465.53-5.173-2.187.397-.266 5.242zm-3.383.397l2.058-.267.464-4.974s-2.122.264-2.388.264-.133 4.975-.133 4.975zm-3.846.198h2.122l.2-4.908-2.322.2v4.708z"/><path fill="#4F6595" d="M113.46 89.596c-4.952-19.5-12.226-34.976-15.166-40.392-2.94-5.417-10.523-14.857-10.523-14.857V11.753s.156-.93-.618-.93c-.09 0-.166.017-.232.042-.066-.025-.143-.04-.232-.04-.774 0-.62.928-.62.928v22.594s-7.582 9.44-10.522 14.857c-2.94 5.416-10.214 20.892-15.167 40.392-4.953 19.5-4.953 50.142-3.096 64.224 1.857 14.083 10.833 43.487 11.762 45.5s1.547 2.784 1.547 2.784 4.755 2.02 13.117 2.52c-2.26.047-4.266.112 2.668.112.183 0 .36-.003.542-.005.18.003.358.006.542.006 6.935 0 4.928-.065 2.668-.11 8.363-.5 13.117-2.522 13.117-2.522s.62-.773 1.548-2.785 9.904-31.417 11.762-45.5c1.855-14.083 1.855-44.725-3.097-64.224z"/><path fill="#00B59F" d="M100.89 54.38c-1.036-2.194-1.93-3.947-2.596-5.176-2.94-5.417-10.523-14.857-10.523-14.857V11.753s.156-.93-.618-.93c-.09 0-.166.017-.232.042-.066-.025-.143-.04-.232-.04-.774 0-.62.928-.62.928v22.594s-7.582 9.44-10.522 14.857c-.678 1.25-1.59 3.04-2.646 5.284 1.705.206 5.62.52 13.71.52 9.717 0 13.264-.45 14.28-.628zm12.593 35.313c-1.398.44-8.27 2.224-27.802 2.224-16.657 0-23.197-1.167-25.438-1.757-3.59 14.567-4.495 35.07-3.957 50.34 3.552 1.302 12.093 3.415 30.093 3.415 22.32 0 29.584-3.08 31.193-3.95.505-15.375-.44-35.846-4.087-50.272z"/><path fill="#C0BFBF" d="M105.742 89.31l-.468.047.048.462.468-.05-.048-.46zm-12.638.897l-.47.017.017.464.47-.017-.016-.463zm11.236-.758l-.467.044.044.462.468-.045-.045-.46zm4.2-.456l-.466.056.054.46.468-.054-.056-.462zm-1.398.163l-.467.052.05.46.47-.052-.053-.46zm-11.226.923l-.47.024.024.464.47-.024-.024-.464zm-1.407.07l-.47.02.02.464.47-.02-.02-.465zm2.81-.15l-.468.03.027.462.47-.027-.03-.464zm1.407-.088l-.468.03.028.464.47-.03-.03-.464zm2.808-.21l-.468.037.036.462.47-.038-.038-.463zm-1.403.11l-.47.034.035.464.47-.035-.035-.463zm2.806-.23l-.468.04.04.463.47-.042-.042-.462zM88.664 66.5H84.95v.463h3.714V66.5zm25.91 76.977l.455-.113-.114-.45-.45.11.108.452zm-2.733.63l.458-.102-.1-.453-.456.1.1.454zM88.665 63.976H84.95v.464h3.714v-.463zm0 3.85H84.95v.464h3.714v-.464zm27.725 75.192l-.12-.45-.45.118.116.45.453-.12zM88.663 65.137H84.95v.464h3.714v-.464zm23.666 23.825l.466-.067-.074-.46-.458.068.066.46zm-.996-.327l-.465.062.06.46.468-.063-.064-.46zM88.664 62.7H84.95v.464h3.714V62.7zm0 6.645H84.95v.464h3.714v-.465zm0-7.95H84.95v.464h3.714v-.465zm21.274 27.426l-.466.06.06.46.467-.06-.062-.46zm-13.33 57.613l.464-.04-.042-.464-.464.04.04.463zm4.18-.442l.465-.058-.06-.46-.46.058.056.46zm4.165-.587l.462-.074-.075-.46-.46.075.073.458zm-1.387.212l.462-.068-.068-.46-.46.068.066.46zm-4.17.54l.465-.055-.053-.46-.462.053.05.46zm-1.393.147l.465-.047-.048-.462-.463.047.046.462zm4.176-.49l.463-.064-.064-.46-.462.063.06.46zm8.29-1.413l.457-.096-.095-.454-.456.095.094.454zm2.74-.597l.455-.106-.106-.45-.453.104.102.453zm-6.873 1.373l.46-.08-.08-.457-.458.078.077.458zm1.38-.243l.46-.084-.084-.458-.46.084.084.457zm1.378-.26l.458-.09-.105-.45-.44.085.087.456zm-22.29 2.176h.47v-.464h-.467l-.002.463zm1.013-50.58l.032-3.913-.464-.004-.426 51.592.465.004.39-47.214c.5.012 1.77.035 3.58.035 2.937 0 7.29-.062 12.023-.35 7.535-.46 10.76-1.09 11.486-1.25l-.083-.457c-.664.145-3.932.787-11.43 1.242-7.642.466-14.283.347-15.572.316zm3.877-6.017l-.47.013.013.465.47-.013-.013-.464zm-4.22.07h-.47v.465h.47v-.465zm2.813-.035l-.47.01.01.464.47-.01-.01-.464zm-1.417.024l-.458.005.004.465.47-.006-.015-.464zm2.14 56.47l.47-.02-.02-.463-.466.017.017.464zm2.8-.14l.468-.03-.03-.462-.464.03.027.463zm-1.4.08l.468-.025-.046-.462-.443.023.02.463zm-4.203.124l.467-.005-.005-.464-.467.005.004.466zm1.402-.023l.466-.012-.012-.464-.466.012.01.465zm5.6-.276l.467-.036-.037-.462-.464.035.035.464zm-23.314-.662l.057-.46-.46-.06-.06.46.463.06zm-4.165-.58l.073-.46-.46-.07-.074.457.46.073zm.926.14l.462.066.066-.46-.46-.065-.068.46zm1.387.2l.463.06.062-.458-.462-.062-.063.46zm-3.695-.564l.076-.457-.46-.077-.077.457.46.078zm6.94.97l.052-.463-.463-.053-.053.462.463.053zm-9.7-1.46l.086-.456-.458-.088-.088.456.46.087zm1.38.253l.08-.457-.46-.082-.082.457.46.083zm9.713 1.354l.048-.46-.463-.05-.05.462.466.047zm4.19.36l.032-.465-.463-.032-.035.463.466.033zm.933.06l.466.026.026-.463-.465-.028-.027.464zM65.13 87.532l.083-.043.573-1.635.012-.055c.008-.08.095-.77.71-.77.847 0 3.816-.1 3.915-.105.01 0 .833.076.952.666.155.773.463 2.472.463 2.473l.032.177.18.013c.06.005 6.234.465 9.38.465h10.678c3.145 0 9.317-.46 9.38-.465l.18-.013.03-.177s.31-1.7.464-2.472c.117-.586.935-.663.926-.664.13.004 3.095.104 3.94.104.616 0 .703.69.71.77l.585 1.69.084.043c.063.03.433.18 1.605.022 1.17-.156 2.538-.61 2.597-.63l-.148-.44c-.014.006-1.384.46-2.51.61-.746.1-1.116.064-1.262.04l-.492-1.41c-.05-.417-.35-1.16-1.17-1.16-.838 0-3.895-.102-3.95-.103-.05.004-1.184.103-1.37 1.038-.126.622-.35 1.847-.434 2.303-1.04.075-6.34.45-9.166.45H87V75.835h1.94l.782-.78v-3.758c.13-.068.247-.152.344-.265.457-.53.342-1.35.338-1.368l-.754-9.28c6.444-.055 12.57-.287 14.242-.354-.064-.152-.13-.306-.192-.457-2.17.087-9.652.36-16.803.36-8.434 0-16.442-.382-16.522-.386l-.022.464c.07.005 6.292.302 13.54.373L83.37 70.1c-.005.02-.1.48.215.87.148.182.363.31.63.39v3.837l.068.067.503.503.068.068h1.682v12.42H81.43c-2.828 0-8.128-.376-9.168-.45-.083-.457-.308-1.682-.433-2.304-.19-.935-1.323-1.033-1.397-1.037-.03 0-3.087.103-3.925.103-.82 0-1.12.743-1.17 1.16l-.492 1.408c-.15.026-.52.06-1.26-.04-1.126-.148-2.498-.603-2.512-.607l-.146.44c.058.02 1.427.473 2.596.63 1.172.155 1.542.007 1.605-.024zM89.257 73.63h-4.58v-2.186c.09.008.174.02.272.02h4.062c.087 0 .166-.01.246-.022v2.188zm-5.31-2.95c-.176-.213-.127-.475-.12-.52l.53-9.773c.836.007 1.685.01 2.54.01.76 0 1.524-.002 2.286-.007l.76 9.328c0 .007.085.646-.23 1.012-.156.18-.386.27-.703.27h-4.06c-.484 0-.83-.11-1-.32zm1.098 4.69l-.184-.183-.183-.184v-.91h4.578v.77l-.51.508h-3.702zm-8.97 70.962l.042-.462-.463-.044-.043.463.464.042zm24.025 41.255l2.037-4.583h-3.264l1.228 4.583zm.11-1.39l-.73-2.728h1.942l-1.213 2.728zm12.476-35.148l-6.312.83-2.2-3.937-.146.01c-.082.004-8.243.517-16.73.52-8.482-.004-16.644-.517-16.726-.52l-.146-.01-2.2 3.937-6.313-.83-1.732-5.546-3.638-1.155.03.495 3.238 1.028 1.75 5.598 6.918.91 2.21-3.955c1.134.068 8.657.505 16.486.514v16.307h-7.68c-.89 0-1.588.264-2.074.783-.784.837-.714 2.025-.71 2.06v2.032h-7.487v.464h7.95v-2.51c0-.012-.062-1.037.586-1.73.394-.422.978-.636 1.735-.636h7.68v.116h.463v-.116h7.572c.756 0 1.34.213 1.733.634.646.688.59 1.72.588 1.746v2.495h7.952v-.464h-7.486v-2.016c.003-.05.072-1.238-.71-2.075-.487-.52-1.186-.784-2.076-.784h-7.572v-16.31c7.753-.015 15.15-.444 16.272-.512l2.21 3.956 6.92-.91 1.75-5.598 2.51-.797c.012-.163.02-.333.03-.497l-2.912.925-1.732 5.546zm-13.278 4.575v-5.397l-9.23.322v5.397l9.23-.322zm-8.763-4.627l8.3-.29v4.47l-8.3.29v-4.47zm-28.433-6.676l.092-.455-.457-.093-.094.454.46.094zm54.956-1.994l.124.447.143-.04c.01-.162.017-.326.024-.49l-.292.083zm-32.335 8.222l-9.228-.322v5.397l9.228.322v-5.397zm-.464 4.917l-8.3-.29v-4.47l8.3.29v4.47zM76.01 96.724v.835l.514.512h2.716l.46-.46v-.87c.38-.006.674-.014.882-.02l-.74 29.478-10.023 9.103-.075.068v7.765h.464v-7.558l10.02-9.1.074-.067.854-34.05-.464-.01-.098 3.906c-1.156.038-5.402.128-11.53-.36-7.826-.624-9.876-1.593-9.896-1.603l-.047.096-.065.36c.473.198 2.836 1.04 9.973 1.607 2.735.22 5.097.323 6.982.367zm.464.01c.713.013 1.352.02 1.905.02.314 0 .6-.003.858-.006v.67l-.188.19h-2.333l-.242-.242v-.633zM59.55 143.28l-.432-.1-.104.453.456.104.08-.457zm1.288.758l.098-.454-.456-.098-.1.453.458.098zm-3.987-1.397c-.188-.043-.238-.05-.277-.05l-.015.462c.028.004.09.02.188.04l.105-.45zm1.36.33l-.453-.11-.11.452.455.108.108-.45zm16.184 33.718c-.163-.047-.324-.07-.48-.07-.78 0-1.325.563-1.325 1.37v2.38c0 .943.735 1.894 1.676 2.164.163.046.324.07.48.07.78 0 1.324-.563 1.324-1.37v-2.38c0-.944-.736-1.895-1.676-2.164zm1.212 4.544c0 .66-.542 1.043-1.212.853-.74-.213-1.34-.983-1.34-1.72v-2.378c0-.542.345-.905.86-.905.112 0 .23.018.352.052.74.212 1.34.983 1.34 1.72v2.378zm1.867-34.78l.036-.464-.465-.037-.038.463.466.038zm4.368-56.185l-.468-.012-.012.465.47.01.01-.463zM60.773 88.84c-.146-.018-.23-.024-.254-.024l-.003.464c.025 0 .094.01.207.02l.05-.46zm21.83 57.917l.468.018.016-.465-.465-.017-.017.464zM80.42 90.694l.014-.464-.47-.014-.013.464.47.014zm-1.41-.045l.016-.465-.47-.017-.016.464.47.017zm4.24-.356l-.47-.008-.01.464.472.008.007-.464zm-5.65.303l.02-.464-.47-.02-.02.464.47.02zm1.372-23.93l2.085 2.978 1.788-2.98h-3.873zm2.055 2.126l-1.164-1.663h2.162l-.998 1.663zm2.976 78.01l.467.013.01-.464-.464-.012-.013.464zm2.062-56.48l-.47-.003-.002.464.47.002.002-.464zm-.66 56.512l.466.006.006-.463-.466-.007-.006.465zm-.748-56.523l-.47-.005-.004.464.47.006.004-.464zm-3.455 56.382l.466.022.022-.463-.465-.022-.023.464zM67.742 89.99l.038-.46-.468-.04-.04.463.47.038zm-3.28-.293l.467.046.043-.463-.468-.045-.044.462zm1.405.132l.47.04.04-.46-.468-.043-.043.462zm-3.746-.374l.05-.46-.466-.053-.05.462.467.05zm.937.1l.468.05.047-.463-.467-.048-.048.46zm10.315.832l.027-.464-.47-.027-.027.463.47.028zm-4.224-.284l.036-.463-.47-.035-.035.463.468.036zm7.042.43l.022-.463-.47-.02-.022.463.47.022zm-1.41-.068l.026-.464-.47-.025-.024.464.47.026zm-4.694-.293l.47.033.032-.463-.468-.033-.034.463zm1.41.098l.468.03.03-.462-.47-.03-.03.463z"/><path fill="#2E3E61" d="M94.642 168.43h-1.3v5.385H92.32v-5.386h-3.992-.558v5.385h-1.02v-5.386h-4.365v5.385h-1.02v-5.386H79.97c-2.413 0-1.763 1.856-1.763 1.856l2.6 26.37h13l2.6-26.37s.65-1.857-1.765-1.857z"/><path fill="#036A73" d="M62.08 174.056c-.773-4.18-1.547-4.023-1.547-4.023s-1.547 1.702-5.726 7.12c-4.178 5.415-9.595 14.08-9.595 14.08l.01.102c-1.758-7.234-3.392-9.755-4.276-10.627-.042-.296-.067-.46-.067-.46s-.11.014-.31.146c-.2-.133-.31-.147-.31-.147l-.068.46c-1.19 1.176-3.74 5.33-6.123 19.968-1.477 9.065-1.704 16.545-1.516 22.034 4.07 4.528 8.602 8.507 13.482 11.886 2.016-.64 1.497-1.576 1.497-1.576s1.875-8.35.75-22.385l17.976-14.293s-3.406-18.108-4.18-22.286zm80.784 26.618c-2.383-14.64-4.933-18.792-6.123-19.967l-.066-.46s-.11.014-.31.146c-.2-.133-.31-.147-.31-.147l-.067.46c-.884.873-2.518 3.394-4.276 10.628l.012-.1s-5.417-8.667-9.595-14.083c-4.18-5.416-5.727-7.118-5.727-7.118s-.773-.155-1.547 4.023c-.774 4.18-4.18 22.285-4.18 22.285l17.978 14.293c-1.125 14.035.75 22.385.75 22.385s-.426.77.996 1.392c5.247-3.537 9.93-7.553 13.993-11.968.17-5.463-.075-12.852-1.526-21.768z"/><path fill="#00B59F" d="M65.176 163.105s-6.035 8.047-13.928 20.272c-7.893 12.227-13.155 21.666-13.155 21.666s-2.012-4.643-3.404-7.273c-1.394-2.63-2.323-4.643-3.715-1.237-1.226 2.997-3.89 9.234-5.144 17.547 4.556 6.76 10.03 12.617 16.147 17.48-.092-3.874-.17-6.707-.17-6.707s4.643-7.43 15.63-17.333 14.238-11.452 14.238-11.452-.464-6.035-3.25-20.273c-2.785-14.237-3.25-12.69-3.25-12.69zm78.927 33.428c-1.394-3.405-2.32-1.394-3.715 1.237-1.393 2.63-3.404 7.273-3.404 7.273s-5.262-9.44-13.154-21.666c-7.893-12.226-13.93-20.272-13.93-20.272s-.463-1.548-3.248 12.69c-2.786 14.237-3.25 20.272-3.25 20.272s3.25 1.548 14.237 11.452 15.63 17.332 15.63 17.332-.092 3.317-.193 7.683c6.47-4.736 11.99-10.24 16.447-16.347-1.084-9.363-4.094-16.41-5.42-19.655z"/><path fill="#00B59F" d="M68.426 175.795c-2.786-14.237-3.25-12.69-3.25-12.69s-6.035 8.048-13.928 20.273c-7.893 12.227-13.155 21.666-13.155 21.666s-.16-.367-.415-.943l-.166.287s.39.975 2.09 7.776c1.856 7.43 2.088 12.65 2.088 12.65l.247-.162c.82-1.245 5.565-8.175 15.5-17.13 10.988-9.904 14.238-11.452 14.238-11.452s-.464-6.035-3.25-20.273z"/><path fill="#009A8C" d="M68.426 175.795c-1.2-6.14-1.97-9.335-2.456-10.993l-6.042 5.63c-2.355 3.382-5.35 7.785-8.68 12.946-7.893 12.227-13.155 21.666-13.155 21.666l-.026-.06c1.696 6.507 3.596 14.292 4.308 19.023 1.527-2.203 6.25-8.543 15.063-16.487 10.988-9.904 14.238-11.452 14.238-11.452s-.465-6.035-3.25-20.273z"/><path fill="#1FCDB8" d="M65.077 163.238c-.798 1.073-6.514 8.81-13.83 20.14-7.892 12.227-13.154 21.666-13.154 21.666s-.3-.693-.748-1.692l-.296.455.81 2.205s6.85-12.304 13.465-22.17c6.616-9.865 13.812-19.847 13.812-19.847l-.06-.757z"/></svg>