<svg xmlns="http://www.w3.org/2000/svg" width="68.001" height="45" viewBox="0 0 68.001 45"><path fill="#566685" d="M56.976 3.778c5.198-.05 8.423.72 8.724.795.804.2 1.293 1.015 1.093 1.818-.2.806-1.018 1.29-1.818 1.094-.25-.062-16.41-3.813-35.83 7.202C11.88 24.48 4.128 42.05 4.052 42.226c-.327.76-1.21 1.11-1.972.78s-1.11-1.21-.78-1.972c.326-.758 8.234-18.672 26.366-28.956 11.79-6.688 22.33-8.233 29.312-8.3z"/><path fill="#566685" d="M5.715 22.196c.09 0 .178.006.27.02.814.142 1.364.916 1.226 1.733L4.798 38.1l11.355-8.748c.656-.503 1.6-.385 2.104.273.505.656.384 1.598-.273 2.104L3.59 42.817c-.49.377-1.162.414-1.69.097-.53-.318-.81-.93-.706-1.538l3.058-17.934c.124-.725.75-1.24 1.463-1.247z"/></svg>