<svg xmlns="http://www.w3.org/2000/svg" width="68.001" height="45" viewBox="0 0 68.001 45"><path fill="#566685" d="M9.84 42.83c-5.2 0-8.416-.8-8.716-.878-.802-.21-1.283-1.027-1.075-1.83.208-.802 1.028-1.28 1.827-1.074.25.063 16.374 3.97 35.896-6.86C55.133 22.56 63.053 5.067 63.13 4.893c.335-.758 1.223-1.1 1.98-.763.757.335 1.098 1.222.762 1.978-.335.755-8.414 18.593-26.644 28.703-11.853 6.577-22.407 8.02-29.388 8.02z"/><path fill="#566685" d="M61.274 24.903c-.09 0-.178-.008-.27-.023-.813-.147-1.355-.928-1.21-1.743l2.55-14.128-11.44 8.64c-.66.496-1.602.368-2.1-.294-.5-.66-.37-1.602.292-2.102l14.5-10.95c.493-.373 1.165-.404 1.69-.082.525.324.8.937.69 1.545L62.75 23.67c-.132.725-.764 1.233-1.476 1.233z"/></svg>