<svg xmlns="http://www.w3.org/2000/svg" width="151" height="152.5" viewBox="0 0 151 152.5"><path fill="#549ACB" d="M79.166 2.75C38.583 1.86 4 35.657 4 76.25s30.907 74.834 73.5 73.5c40.573-1.27 73.5-32.907 73.5-73.5s-26.24-72.5-71.834-73.5z"/><path fill="#CCDFE9" d="M108.49 8.5H49.506C23.074 19.73 4 46.11 4 76.25c0 6.63.84 13.086 2.404 19.25H148.41c1.678-6.11 2.59-12.556 2.59-19.25 0-30.87-15.188-56.7-42.51-67.75z"/><path fill="#55ACE4" d="M125.57 88.32c-3.142-2-5-1.856-5-1.856s-1.284-1.714-5.284-2.428c-4-.715-14.857-5.144-14.857-5.144S99 75.75 98 74.322s-5.43-2.144-8.285-2.43C86.857 71.607 63 74.607 63 74.607s-4.143 1.285-6.714 3.43c-2.57 2.142-4 6.427-4 6.427s-2.857 2.144-5.857 3.144-5.72 4.714-5.72 4.714l89.858.57s-1.858-2.57-5-4.57z"/><path fill="#133558" d="M93.857 74.036c-3.43-2.572-6.143-1.43-6.143-1.43l2.083 3.305c-6.74 1.13-32.227 7.986-32.227 7.986l3.43 9.57 31.715-.427s2.995-6.46 4.212-9.983c.573.75 1.172 1.63 1.788 2.696l3.714 6.43 2.85-.43s-8-15.142-11.427-17.713zM62.43 82.464l2-6.714s-2.573-.43-4.573 1-2.143 3.857-2.143 3.857l-6.43 11.714 2.287.72 4.86-11.43 4 .858z"/><path fill="#9C806C" d="M79.75 20.375C69.625 13 60.625 16 58 17.375s-2.125 2.25-2.125 2.25-4.125-.875-5.875 4.5-3 14.25-1.5 19.125 3.125 8 3.125 8l33.25-1 2.875-5.375L87.625 41s2.25-13.25-7.875-20.625z"/><path fill="#E0C1B5" d="M91.5 77l-5.25-8.25S84.75 62.375 85 60s.375-3.625.375-3.625 3.25-.875 4.125-5 1.5-7.25.125-8.875-2.5-2.125-2.5-2.125l-.375 6s-3-9.75-9.875-12.375-16.75-3.25-20.625-3-5.375 3.75-6 4.875-.75 3.5-.75 3.5.375 6.25.75 10.375 2.25 13.375 6.25 19.125S61.125 75 61.125 75s.875 1.625-.375 4.375S57.5 84 57.5 84l6.75 10.375L90.75 92l4.125-13.75L91.5 77z"/><path fill="#794A47" d="M72.78 44.97c-2.587 1.6-3.14 4.456-3.468 4.218 0 0 3.656.656 6.03-.344s3.907-2.375 3.907-2.375-3.39-3.41-6.47-1.5zm-17.09 2.81c-2.875.75-2.656 2.25-2.656 2.25s1.718.97 3.343.908S62 50.562 62 50.562s-3.438-3.53-6.312-2.78z"/><path fill="#E5D2D0" d="M73.68 46.216c-2.46.52-3.45 3.5-3.45 3.5s1.998.422 4.048-.138 3.43-1.912 3.43-1.912-1.57-1.972-4.03-1.45zM61.174 50.53s-1.215-1.814-3.814-1.658c-1.976.12-2.336 1.834-2.336 1.834s1.078.865 2.75.808c1.828-.063 4.225-1.123 3.4-.984z"/><path fill="#61696F" d="M74.03 46.28c-.776 0-1.405.63-1.405 1.407s.63 1.406 1.406 1.406 1.41-.63 1.41-1.406-.63-1.406-1.405-1.406zm-16.014 2.47c-.595 0-1.078.482-1.078 1.078s.483 1.078 1.078 1.078 1.078-.482 1.078-1.078-.483-1.078-1.078-1.078z"/><path fill="#795750" d="M77.625 40.688c-1.188-.312-3.875-.438-6.062.625s-2.812 3.562-2.812 3.562l.75.25s.19-.438.817-1.438 2.125-2.188 4.125-2.625S80 42.125 80 42.125 78.812 41 77.625 40.688zM54.68 44.27c-2.256.956-2.485 3.636-2.485 3.636s.118-1.688 2.427-2.822c2.308-1.134 5.564.604 5.564.604l.497-.877s-3.318-1.67-6.002-.54z"/><path fill="#AD7F6D" d="M66.354 60.104c-1.75.416-3.52-.77-3.854-.604s.833.75 1.917 1.417c1.083.666 2.583.666 3.333 0 .75-.667 2.584-2.5 2.584-2.5s-2.23 1.27-3.98 1.687z"/><path fill="#AD7F6D" d="M57.833 61.667c-1.417 2.583 2.75 4.25 2.75 4.25l-.667-1.5s-.25-1-.083-2.417c.167-1.417 2.25-4.25 2.25-4.25l.083-.667s-2.916 2-4.333 4.584zm18.833-1.417c.5 1.5.334 2.833.334 2.833s2.25-1.75 1.084-3.666C76.916 57.5 71 55.5 71 55.5l.166.667s5 2.583 5.5 4.083zm-3.95 17.786C68.57 78.75 62.57 76.18 62.57 76.18s4.86 4.713 10.43 3.427c5.57-1.286 8.715-9.43 8.715-9.43s-4.858 7.144-9 7.86z" opacity=".2"/><path fill="#C38480" d="M70.906 62.75c-1.656.312-3.062.78-4.75 1.03s-6.125.876-6.125.876.44.75 2.16 2.5 4.157 3.938 6.376 3.875 4.75-2.433 5.78-4.4 2.19-5.157 2.19-5.157-3.97.97-5.626 1.28z"/><path fill="#E3E7E4" d="M68.75 65.188c-3.125.97-6.03.438-6.03.438s1.31 2.594 5.218 2.28 7.22-5.53 7.22-5.53-3.283 1.843-6.408 2.812z"/><path fill="#766051" d="M62.125 22.625C67 22.75 73.75 24.25 76.875 25.5c.353.14.677.283.988.425-3.428-1.985-8.506-4.685-11.738-5.3-5.25-1-7.375-.375-7.375-.375s-1.5 2.25 3.375 2.375zm15.738 3.3c2.14 1.24 3.637 2.2 3.637 2.2s-1.188-1.083-3.637-2.2zm-5.113-5.05C77.125 22.5 81 25.25 81 25.25s-5.625-4.5-11.25-6.25-5.875-1.75-6.375-.75 5 1 9.375 2.625zM58.5 24.5c-.75 1.375 1.875 1.875 8.875 2.75s13.25 5.25 13.25 5.25-7.375-5.25-14.5-6.75-6.875-2.625-7.625-1.25zM86 39.875c-1.75-3.875-7.875-5.75-7.875-5.75s1.25.875 3.875 4.25 4.5 9.125 4.5 9.125 1.25-3.75-.5-7.625zM53.75 22.75c1.5-2 5.875-5.25 5.875-5.25s-7.328 2.26-7.75 8.375c-.5 7.25 24.375 7.25 24.375 7.25s-14.75-1.875-19.625-3.5-4.375-4.875-2.875-6.875z"/><path fill="#559ACC" d="M79.166 2.75c-13.057-.286-25.484 3.033-36.347 9h72.6c-10.14-5.473-22.284-8.693-36.26-9z"/><path fill="#FFF" d="M5.55 91.75c6.73 33.42 34.916 59.16 71.95 58 35.235-1.103 64.69-25.115 71.834-58H5.55z"/><path fill="#559ACC" d="M16 102.75H8.638c2.156 5.936 5.026 11.517 8.526 16.62.504-.363.835-.95.835-1.62v-13c0-1.104-.9-2-2-2zm71 0H74c-1.104 0-2 .896-2 2v13c0 1.104.896 2 2 2h13c1.104 0 2-.896 2-2v-13c0-1.104-.896-2-2-2zm0 23H74c-1.104 0-2 .896-2 2v13c0 1.104.896 2 2 2h13c1.104 0 2-.896 2-2v-13c0-1.104-.896-2-2-2zm-32.5-22h-31c-.83 0-1.5.672-1.5 1.5s.67 1.5 1.5 1.5h31c.83 0 1.5-.672 1.5-1.5s-.67-1.5-1.5-1.5zm-28-45H6.202c-.252.994-.492 1.99-.702 3h21c.83 0 1.5-.672 1.5-1.5s-.67-1.5-1.5-1.5zm13-5H7.658c-.33.99-.63 1.992-.917 3H39.5c.83 0 1.5-.672 1.5-1.5s-.67-1.5-1.5-1.5zM26 35.25c0-.177-.035-.344-.092-.5.056-.157.092-.324.092-.5s-.036-.343-.092-.5c.057-.156.092-.323.092-.5 0-.828-.67-1.5-1.5-1.5h-5.083c-1.25 1.614-2.424 3.287-3.54 5H24.5c.83 0 1.5-.672 1.5-1.5zm12.908-1.5c.057-.156.092-.323.092-.5 0-.828-.67-1.5-1.5-1.5h-8c-.83 0-1.5.672-1.5 1.5 0 .177.035.344.092.5-.056.157-.092.324-.092.5s.036.343.092.5c-.057.156-.092.323-.092.5 0 .828.67 1.5 1.5 1.5h8c.83 0 1.5-.672 1.5-1.5 0-.177-.035-.344-.092-.5.056-.157.092-.324.092-.5s-.036-.343-.092-.5zm-10.408 6H14.02c-.956 1.632-1.86 3.295-2.69 5H28.5c.83 0 1.5-.672 1.5-1.5 0-.177-.035-.344-.092-.5.056-.157.092-.324.092-.5s-.036-.343-.092-.5c.057-.156.092-.323.092-.5 0-.828-.67-1.5-1.5-1.5z"/><path fill="#D2D2D2" d="M58.5 110.75h-35c-.83 0-1.5.672-1.5 1.5s.67 1.5 1.5 1.5h35c.83 0 1.5-.672 1.5-1.5s-.67-1.5-1.5-1.5zm-21 5h-14c-.83 0-1.5.672-1.5 1.5s.67 1.5 1.5 1.5h14c.83 0 1.5-.672 1.5-1.5s-.67-1.5-1.5-1.5zm20 0h-14c-.83 0-1.5.672-1.5 1.5s.67 1.5 1.5 1.5h14c.83 0 1.5-.672 1.5-1.5s-.67-1.5-1.5-1.5z"/><path fill="#A2BFCE" d="M16.5 72.75H4.093c-.05.995-.072 1.996-.08 3H16.5c.83 0 1.5-.672 1.5-1.5s-.67-1.5-1.5-1.5zm20 0h-14c-.83 0-1.5.672-1.5 1.5s.67 1.5 1.5 1.5h14c.83 0 1.5-.672 1.5-1.5s-.67-1.5-1.5-1.5zm1-5H4.528c-.12.994-.213 1.995-.29 3H37.5c.83 0 1.5-.672 1.5-1.5s-.67-1.5-1.5-1.5z"/><path fill="#559ACC" d="M125.5 103.75h-31c-.828 0-1.5.672-1.5 1.5s.672 1.5 1.5 1.5h31c.828 0 1.5-.672 1.5-1.5s-.672-1.5-1.5-1.5z"/><path fill="#D2D2D2" d="M125.5 110.75h-31c-.828 0-1.5.672-1.5 1.5s.672 1.5 1.5 1.5h31c.828 0 1.5-.672 1.5-1.5s-.672-1.5-1.5-1.5zm-24 5h-7c-.828 0-1.5.672-1.5 1.5s.672 1.5 1.5 1.5h7c.828 0 1.5-.672 1.5-1.5s-.672-1.5-1.5-1.5zm16 0h-10c-.828 0-1.5.672-1.5 1.5s.672 1.5 1.5 1.5h10c.828 0 1.5-.672 1.5-1.5s-.672-1.5-1.5-1.5z"/><path fill="#559ACC" d="M62.5 126.75h-31c-.83 0-1.5.672-1.5 1.5s.67 1.5 1.5 1.5h31c.83 0 1.5-.672 1.5-1.5s-.67-1.5-1.5-1.5zm63 0h-31c-.828 0-1.5.672-1.5 1.5s.672 1.5 1.5 1.5h31c.828 0 1.5-.672 1.5-1.5s-.672-1.5-1.5-1.5z"/><path fill="#FF8400" d="M129.28 21.75H97c-1.104 0-2 .896-2 2v56c0 1.104.896 2 2 2h37c1.104 0 2-.896 2-2V29.18c-2.042-2.643-4.283-5.125-6.72-7.43z"/><path fill="#F2B87A" d="M122.5 27.75h-14c-.828 0-1.5.672-1.5 1.5s.672 1.5 1.5 1.5h14c.828 0 1.5-.672 1.5-1.5s-.672-1.5-1.5-1.5z"/><path fill="#FFF" d="M130 36.75h-29c-1.104 0-2 .896-2 2v2c0 1.104.896 2 2 2h29c1.104 0 2-.896 2-2v-2c0-1.104-.896-2-2-2zm0 8h-29c-1.104 0-2 .896-2 2v2c0 1.104.896 2 2 2h29c1.104 0 2-.896 2-2v-2c0-1.104-.896-2-2-2zm0 8h-29c-1.104 0-2 .896-2 2v2c0 1.104.896 2 2 2h29c1.104 0 2-.896 2-2v-2c0-1.104-.896-2-2-2z"/><path fill="#FF5400" d="M130 63.75h-29c-1.104 0-2 .896-2 2v8c0 1.104.896 2 2 2h29c1.104 0 2-.896 2-2v-8c0-1.104-.896-2-2-2z"/></svg>