<svg xmlns="http://www.w3.org/2000/svg" width="160" height="159" viewBox="0 0 160 159"><path fill="#CCDFE9" d="M82.166 7C41.583 6.11 7 39.907 7 80.5s30.907 74.833 73.5 73.5c40.573-1.27 73.5-32.907 73.5-73.5S127.76 8 82.166 7z"/><path fill="#44566E" d="M131.166 101.833c0-15.666-16.5-13.666-16.5-13.666H9.833l.46 1.53-2.16 4.028c1.657 9.71 5.11 18.816 10.065 26.87L115.166 123l8.73-2.688 5.98-11.396-.07-.062c.842-1.895 1.36-4.2 1.36-7.02z"/><path fill="#98A4B4" d="M107.666 31.967c-2 0-31.866.033-34.066.033-2.2 0-1.6 2.4-1.6 2.4v57.5h38.066V36.966c0-3.6-.4-5-2.4-5z"/><path fill="#B8C3D1" d="M106.666 31.967c-2 0-31.866.033-34.066.033-2.2 0-1.6 2.4-1.6 2.4v57.5h38.066V36.966c0-3.6-.4-5-2.4-5z"/><path fill="#FFF" d="M108.495 36H70.927C69.863 36 69 36.896 69 38v52c0 1.104.863 2 1.927 2h37.568c1.063 0 1.927-.896 1.927-2V38c0-1.104-.863-2-1.927-2z"/><path fill="#CCDFE9" d="M109.03 36.892H68.857c-.26 0-.468.21-.468.47V56.8c0 .26.204.47.463.47h40.173c.26 0 .47-.21.47-.47V37.36c0-.258-.21-.468-.47-.468z"/><path fill="#55ACE4" d="M102.547 55.59c-.736-.47-1.172-.435-1.172-.435s-.3-.402-1.238-.57c-.937-.166-3.48-1.204-3.48-1.204s-.334-.73-.568-1.07-1.276-.5-1.94-.564c-.67-.066-6.26.636-6.26.636s-.97.3-1.576.804c-.602.502-.937 1.506-.937 1.506s-.67.5-1.37.734-1.34 1.104-1.34 1.104l21.05.134c-.003-.002-.438-.604-1.174-1.073z"/><path fill="#133558" d="M87.756 54.218l.47-1.572s-.604-.1-1.072.233c-.468.33-.502.9-.502.9l-1.506 2.742.536.168 1.137-2.677.932.202zm7.36-1.975c-.802-.603-1.437-.334-1.437-.334l.483.77c-1.58.263-7.55 1.87-7.55 1.87l.804 2.24 7.43-.1s.7-1.515.986-2.34c.134.176.274.382.42.632l.868 1.506.67-.1s-1.873-3.546-2.677-4.15z"/><path fill="#9C806C" d="M91.812 39.674c-2.37-1.728-4.48-1.025-5.094-.703-.615.327-.498.53-.498.53s-.967-.203-1.377 1.056c-.41 1.26-.702 3.338-.35 4.48.35 1.142.73 1.874.73 1.874l7.79-.235.673-1.26-.03-.907c.002 0 .53-3.104-1.844-4.83z"/><path fill="#E0C1B5" d="M94.565 52.938l-1.23-1.933s-.35-1.493-.292-2.05c.06-.556.088-.85.088-.85s.767-.204.97-1.17c.207-.967.35-1.698.03-2.08-.32-.38-.585-.497-.585-.497l-.087 1.405s-.703-2.283-2.313-2.898-3.923-.762-4.83-.703-1.26.88-1.407 1.143-.176.82-.176.82.088 1.463.176 2.43c.088.966.527 3.133 1.465 4.48.938 1.347 1.084 1.435 1.084 1.435s.206.38-.087 1.024c-.292.645-.76 1.083-.76 1.083l1.58 2.43 6.208-.556.966-3.22-.79-.29z"/><path fill="#794A47" d="M90.18 45.435c-.605.375-.734 1.044-.81.988 0 0 .855.153 1.412-.08.557-.234.915-.557.915-.557s-.795-.798-1.516-.35zm-4.003.66c-.674.175-.622.525-.622.525s.402.228.783.213 1.317-.088 1.317-.088-.805-.827-1.478-.65z"/><path fill="#E5D2D0" d="M90.39 45.727c-.575.122-.807.82-.807.82s.468.1.948-.032.81-.448.81-.448-.37-.463-.945-.34zm-3.822.622c-.463.023-.547.43-.547.43s.257.2.65.184c.43-.015.99-.263.796-.23 0 0-.284-.426-.894-.39z"/><path fill="#61696F" d="M90.474 45.742c-.183 0-.33.147-.33.33s.147.328.33.328.33-.147.33-.33-.148-.328-.33-.328zm-3.75.578c-.142 0-.255.113-.255.253s.11.252.25.252.25-.113.25-.252c0-.14-.113-.253-.25-.253z"/><path fill="#795750" d="M91.315 44.432c-.278-.073-.907-.103-1.42.146s-.66.835-.66.835l.177.06s.044-.104.19-.338.497-.513.966-.615 1.303.25 1.303.25-.272-.265-.55-.338zm-5.374.84c-.524.223-.58.85-.58.85s.03-.395.57-.66c.54-.266 1.3.14 1.3.14l.12-.204s-.777-.393-1.405-.127z"/><path fill="#AD7F6D" d="M88.676 48.98c-.41.098-.825-.18-.903-.142s.195.176.448.33c.26.157.61.157.786 0 .176-.154.605-.584.605-.584s-.522.3-.93.396z"/><path fill="#D9B4A6" d="M86.68 49.346c-.332.605.644.996.644.996l-.155-.352s-.06-.234-.02-.566.52-.995.52-.995l.02-.16s-.682.47-1.014 1.072zm4.41-.33c.118.35.08.662.08.662s.526-.41.253-.858c-.273-.45-1.66-.918-1.66-.918l.04.156s1.17.605 1.288.957zm-.925 4.165c-.97.17-2.376-.43-2.376-.43s1.133 1.103 2.44.803c1.303-.302 2.04-2.21 2.04-2.21s-1.138 1.674-2.11 1.84z"/><path fill="#C38480" d="M89.742 49.6c-.39.073-.718.184-1.113.242s-1.44.204-1.44.204.103.176.505.586.973.923 1.492.908c.52-.015 1.11-.57 1.353-1.032.243-.462.513-1.208.513-1.208s-.93.226-1.316.3z"/><path fill="#E3E7E4" d="M89.236 50.17c-.732.228-1.412.104-1.412.104s.307.607 1.222.534 1.69-1.296 1.69-1.296-.767.432-1.5.66z"/><path fill="#766051" d="M87.685 40.2c1.142.03 2.724.38 3.455.674.108.043.19.087.283.13-.803-.467-2.027-1.125-2.802-1.272-1.224-.234-1.722-.088-1.722-.088s-.35.527.79.556zm3.738.804c.473.275.8.485.8.485s-.273-.24-.8-.49zm-1.25-1.213c1.025.38 1.933 1.03 1.933 1.03s-1.316-1.06-2.636-1.47c-1.316-.41-1.375-.41-1.492-.175s1.17.235 2.196.616zm-3.337.85c-.176.326.438.44 2.078.65 1.64.204 3.104 1.23 3.104 1.23s-1.727-1.23-3.396-1.583c-1.67-.352-1.61-.616-1.786-.293zm6.44 3.6c-.41-.902-1.844-1.342-1.844-1.342s.293.205.907.995c.61.79 1.05 2.138 1.05 2.138s.294-.877-.117-1.785zm-7.553-4.01C86.073 39.76 87.1 39 87.1 39s-1.717.53-1.816 1.962c-.117 1.698 5.71 1.698 5.71 1.698s-3.455-.44-4.597-.82c-1.143-.38-1.026-1.142-.674-1.61z"/><path fill="#559ACC" d="M110.143 32.202h-40.29c-.26 0-.47.21-.47.47v3.513c0 .26.21.47.47.47h40.29c.26 0 .47-.21.47-.47V32.67c-.002-.258-.21-.468-.47-.468z"/><path fill="#E3E2E2" d="M72 45h7v-1h-7v1zm8-1v2h2v-2h-2zm-8 4h7v-2h-7v2z"/><path fill="#FF8100" d="M96 42h11v15H96z"/><path fill="#FF4800" d="M98 53h7v2h-7z"/><path fill="#FFF" d="M98 44h7v2h-7zm0 3h7v2h-7zm0 3h7v2h-7z"/><path fill="#52A8E1" d="M72 66h4v-4h-4v4zm18 0h4v-4h-4v4zm0 6h4v-4h-4v4zm-18 0h4v-4h-4v4zm6-3h7v-1h-7v1zm0-6h7v-1h-7v1zm25-1h-7v1h7v-1zm0 6h-7v1h7v-1zM72 81h4v-4h-4v4zm8 0h4v-4h-4v4zm7 0h4v-4h-4v4zm8 0h4v-4h-4v4zm7-4v4h4v-4h-4zM72 48h7v-2h-7v2zm0-4v1h7v-1h-7zm8 0v2h2v-2h-2zm-8 9h7v-2h-7v2zm0-4v1h7v-1h-7zm8 2h2v-2h-2v2z"/><path fill="#DEDEDE" d="M78 65v1h5v-1h2v-1h-7v1zm18-1v2h5v-1h2v-1h-7zm0 7v1h5v-1h2v-1h-7v1zm-18 0v1h5v-1h2v-1h-7v1z"/><path fill="#BCD7EB" d="M72 89h8v-2h-8v2zm13 0h8v-2h-8v2zm12-2v2h8v-2h-8z"/><path fill="#78879A" d="M73 33c-.552 0-1 .447-1 1s.448 1 1 1c.553 0 1-.447 1-1s-.447-1-1-1zm3 0c-.553 0-1 .447-1 1s.447 1 1 1 1-.447 1-1-.447-1-1-1zm3 0c-.553 0-1 .447-1 1s.447 1 1 1 1-.447 1-1-.447-1-1-1z"/><path fill="#FFF" d="M107 33H82c-.553 0-1 .447-1 1s.447 1 1 1h25c.553 0 1-.447 1-1s-.447-1-1-1z"/><path fill="#98A4B4" d="M63.667 31.967c-2 0-31.867.033-34.067.033-2.2 0-1.6 2.4-1.6 2.4v57.5h38.067V36.966c0-3.6-.4-5-2.4-5z"/><path fill="#B8C3D1" d="M62.667 31.967c-2 0-31.867.033-34.067.033-2.2 0-1.6 2.4-1.6 2.4v57.5h38.067V36.966c0-3.6-.4-5-2.4-5z"/><path fill="#FFF" d="M64.495 36H26.927C25.863 36 25 36.896 25 38v52c0 1.104.863 2 1.927 2h37.568c1.064 0 1.927-.896 1.927-2V38c0-1.104-.863-2-1.927-2z"/><path fill="#CCDFE9" d="M65.03 36.892H24.857c-.26 0-.468.21-.468.47V56.8c0 .26.204.47.463.47H65.03c.26 0 .47-.21.47-.47V37.36c0-.258-.21-.468-.47-.468z"/><path fill="#55ACE4" d="M58.547 55.59c-.736-.47-1.17-.435-1.17-.435s-.302-.402-1.24-.57-3.48-1.204-3.48-1.204-.334-.73-.568-1.07c-.24-.33-1.277-.5-1.946-.564-.67-.066-6.258.636-6.258.636s-.97.3-1.574.804-.937 1.506-.937 1.506-.67.5-1.373.734-1.34 1.104-1.34 1.104l21.05.134c0-.002-.435-.604-1.17-1.073z"/><path fill="#133558" d="M43.756 54.218l.468-1.572s-.602-.1-1.07.233c-.47.33-.503.9-.503.9l-1.5 2.742.535.168 1.14-2.677.936.202zm7.362-1.975c-.803-.603-1.44-.334-1.44-.334l.49.77c-1.58.263-7.55 1.87-7.55 1.87l.803 2.24 7.43-.1s.706-1.515.99-2.34c.135.176.275.382.42.632l.87 1.506.67-.1s-1.875-3.546-2.678-4.15z"/><path fill="#9C806C" d="M47.813 39.674c-2.372-1.728-4.48-1.025-5.095-.703s-.498.53-.498.53-.966-.203-1.376 1.056c-.41 1.26-.703 3.338-.35 4.48.35 1.142.73 1.874.73 1.874l7.79-.235.673-1.26-.03-.907s.528-3.104-1.844-4.83z"/><path fill="#E0C1B5" d="M50.565 52.938l-1.23-1.933s-.35-1.493-.292-2.05c.06-.556.088-.85.088-.85s.766-.204.97-1.17c.206-.967.35-1.698.03-2.08-.322-.38-.585-.497-.585-.497l-.087 1.405s-.703-2.283-2.313-2.898-3.923-.762-4.83-.703-1.26.88-1.407 1.143-.176.82-.176.82.088 1.463.176 2.43c.088.966.527 3.133 1.464 4.48.935 1.347 1.08 1.435 1.08 1.435s.206.38-.087 1.024c-.292.645-.76 1.083-.76 1.083l1.58 2.43 6.21-.556.965-3.22-.793-.29z"/><path fill="#794A47" d="M46.18 45.435c-.605.375-.735 1.044-.81.988 0 0 .855.153 1.412-.08.556-.234.915-.557.915-.557s-.794-.798-1.516-.35zm-4.003.66c-.674.175-.623.525-.623.525s.403.228.784.213c.38-.015 1.317-.088 1.317-.088s-.805-.827-1.478-.65z"/><path fill="#E5D2D0" d="M46.39 45.727c-.575.122-.807.82-.807.82s.468.1.948-.032.81-.448.81-.448-.37-.463-.945-.34zm-3.822.622c-.463.023-.547.43-.547.43s.257.2.65.184c.43-.015.99-.263.796-.23 0 0-.285-.426-.894-.39z"/><path fill="#61696F" d="M46.474 45.742c-.182 0-.33.147-.33.33s.147.328.33.328.33-.147.33-.33-.148-.328-.33-.328zm-3.752.578c-.14 0-.253.113-.253.253s.11.252.25.252.25-.113.25-.252c0-.14-.113-.253-.25-.253z"/><path fill="#795750" d="M47.315 44.432c-.278-.073-.908-.103-1.42.146-.513.25-.66.835-.66.835l.177.06s.044-.104.19-.338.498-.513.966-.615c.468-.103 1.303.25 1.303.25s-.272-.265-.55-.338zm-5.374.84c-.524.223-.58.85-.58.85s.03-.395.57-.66c.54-.266 1.3.14 1.3.14l.12-.204s-.777-.393-1.405-.127z"/><path fill="#AD7F6D" d="M44.675 48.98c-.41.098-.825-.18-.903-.142s.195.176.45.33c.253.157.604.157.78 0 .175-.154.605-.584.605-.584s-.522.3-.932.396z"/><path fill="#D9B4A6" d="M42.68 49.346c-.333.605.643.996.643.996l-.156-.352s-.06-.234-.02-.566.527-.995.527-.995l.02-.16s-.683.47-1.015 1.072zm4.41-.33c.118.35.08.662.08.662s.526-.41.253-.858c-.273-.45-1.66-.918-1.66-.918l.04.156s1.17.605 1.288.957zm-.925 4.165c-.97.17-2.376-.43-2.376-.43s1.133 1.103 2.44.803c1.303-.302 2.04-2.21 2.04-2.21s-1.138 1.674-2.11 1.84z"/><path fill="#C38480" d="M45.742 49.6c-.388.073-.717.184-1.113.242s-1.44.204-1.44.204.102.176.505.586.973.923 1.492.908c.52-.015 1.112-.57 1.353-1.032.243-.462.513-1.208.513-1.208s-.93.226-1.316.3z"/><path fill="#E3E7E4" d="M45.236 50.17c-.732.228-1.413.104-1.413.104s.308.607 1.222.534c.915-.073 1.69-1.296 1.69-1.296s-.767.432-1.5.66z"/><path fill="#766051" d="M47.424 41.005c.472.274.8.484.8.484s-.273-.24-.8-.49zm-3.74-.805c1.143.03 2.724.38 3.456.674.11.043.192.087.284.13-.803-.467-2.028-1.124-2.802-1.27-1.23-.235-1.728-.09-1.728-.09s-.352.527.79.556zm2.49-.41c1.024.38 1.932 1.025 1.932 1.025S46.79 39.76 45.47 39.35c-1.316-.41-1.375-.41-1.492-.175s1.17.235 2.195.616zm-3.34.85c-.175.322.44.44 2.08.645 1.64.205 3.104 1.23 3.104 1.23s-1.728-1.23-3.396-1.582-1.61-.616-1.787-.293zm6.443 3.6c-.41-.906-1.845-1.346-1.845-1.346s.293.205.908.995 1.054 2.133 1.054 2.133.293-.878-.117-1.786zm-7.554-4.01C42.073 39.76 43.1 39 43.1 39s-1.718.53-1.816 1.962c-.117 1.698 5.71 1.698 5.71 1.698s-3.456-.44-4.598-.82c-1.142-.38-1.024-1.142-.673-1.61z"/><path fill="#559ACC" d="M66.143 32.202h-40.29c-.26 0-.47.21-.47.47v3.513c0 .26.21.47.47.47h40.29c.26 0 .47-.21.47-.47V32.67c-.002-.258-.21-.468-.47-.468z"/><path fill="#E3E2E2" d="M28 45h7v-1h-7v1zm8-1v2h2v-2h-2zm-8 4h7v-2h-7v2z"/><path fill="#FF8100" d="M52 42h11v15H52z"/><path fill="#FF4800" d="M54 53h7v2h-7z"/><path fill="#FFF" d="M54 44h7v2h-7zm0 3h7v2h-7zm0 3h7v2h-7z"/><path fill="#52A8E1" d="M28 66h4v-4h-4v4zm18 0h4v-4h-4v4zm0 6h4v-4h-4v4zm-18 0h4v-4h-4v4zm6-3h7v-1h-7v1zm0-6h7v-1h-7v1zm25-1h-7v1h7v-1zm0 6h-7v1h7v-1zM28 81h4v-4h-4v4zm8 0h4v-4h-4v4zm7 0h4v-4h-4v4zm8 0h4v-4h-4v4zm7-4v4h4v-4h-4zM28 44v1h7v-1h-7zm8 0v2h2v-2h-2zm-8 4h7v-2h-7v2zm0 1v1h7v-1h-7zm0 4h7v-2h-7v2zm8-2h2v-2h-2v2z"/><path fill="#DEDEDE" d="M34 65v1h5v-1h2v-1h-7v1zm18-1v2h5v-1h2v-1h-7zm0 7v1h5v-1h2v-1h-7v1zm-18 0v1h5v-1h2v-1h-7v1z"/><path fill="#BCD7EB" d="M28 89h8v-2h-8v2zm13 0h8v-2h-8v2zm12-2v2h8v-2h-8z"/><path fill="#78879A" d="M29 33c-.552 0-1 .447-1 1s.448 1 1 1 1-.447 1-1-.448-1-1-1zm3 0c-.552 0-1 .447-1 1s.448 1 1 1 1-.447 1-1-.448-1-1-1zm3 0c-.552 0-1 .447-1 1s.448 1 1 1 1-.447 1-1-.448-1-1-1z"/><path fill="#FFF" d="M63 33H38c-.552 0-1 .447-1 1s.448 1 1 1h25c.552 0 1-.447 1-1s-.448-1-1-1z"/><path fill="#98A4B4" d="M7 80.5c0 3.866.284 7.674.83 11.4h13.237V37.823C12.263 49.923 7 64.69 7 80.5z"/><path fill="#B8C3D1" d="M7 80.5c0 3.866.284 7.674.83 11.4h12.237V39.194C11.857 51.03 7 65.288 7 80.5z"/><path fill="#FFF" d="M21.34 37.45C12.37 49.62 7 64.527 7 80.5c0 3.9.292 7.742.845 11.5h11.65c1.064 0 1.927-.896 1.927-2V38c0-.192-.034-.374-.083-.55z"/><path fill="#CCDFE9" d="M10.914 57.27h9.117c.26 0 .47-.21.47-.468v-18.2c-4.04 5.702-7.282 11.98-9.582 18.67z"/><path fill="#FF8100" d="M11.01 57H18V42.347c-2.85 4.586-5.196 9.5-6.99 14.653z"/><path fill="#FF4800" d="M12.534 53c-.276.665-.56 1.326-.816 2H16v-2h-3.466z"/><path fill="#FFF" d="M15.882 46H16v-.223c-.04.074-.077.15-.118.223zm-.528 1c-.35.663-.696 1.326-1.024 2H16v-2h-.646zm-1.492 3c-.312.664-.628 1.326-.92 2H16v-2h-2.138z"/><path fill="#52A8E1" d="M14 68H8.128c-.06.334-.13.664-.187 1H14v-1zm0-6H9.446c-.09.33-.16.668-.244 1H14v-1zm-1 15v4h4v-4h-4zm-6 3.5c0 .168.01.333.012.5H10v-4H7.093C7.036 78.16 7 79.327 7 80.5z"/><path fill="#2C3A4C" d="M109.666 98.167H9.02c2.52 10.882 7.322 20.89 13.98 29.333h87.334s15.832 0 15.832-15.667c0-15.666-16.5-13.666-16.5-13.666z"/><path fill="#64768D" d="M110.416 100.667c-6.857 0-12.416 5.56-12.416 12.416s5.56 12.417 12.416 12.417c6.858 0 12.418-5.56 12.418-12.417s-5.56-12.416-12.418-12.416zm.004 17.25c-2.672 0-4.836-2.166-4.836-4.837s2.164-4.837 4.836-4.837c2.67 0 4.836 2.166 4.836 4.837s-2.165 4.837-4.836 4.837zm-33.004-17.25c-6.857 0-12.416 5.56-12.416 12.416S70.56 125.5 77.416 125.5c6.858 0 12.418-5.56 12.418-12.417s-5.56-12.416-12.418-12.416zm.004 17.25c-2.672 0-4.836-2.166-4.836-4.837s2.165-4.837 4.836-4.837c2.67 0 4.836 2.166 4.836 4.837s-2.165 4.837-4.836 4.837zm-33.003-17.25c-6.857 0-12.417 5.56-12.417 12.416S37.56 125.5 44.417 125.5c6.858 0 12.417-5.56 12.417-12.417s-5.56-12.416-12.417-12.416zm.003 17.25c-2.67 0-4.836-2.166-4.836-4.837s2.165-4.837 4.836-4.837c2.67 0 4.836 2.166 4.836 4.837s-2.165 4.837-4.836 4.837zm-32.003-17.25c-.923 0-1.82.108-2.687.3.676 2.49 1.47 4.928 2.383 7.308.104-.007.202-.03.307-.03 2.67 0 4.836 2.165 4.836 4.836 0 1.337-.54 2.54-1.41 3.418 1.2 2.265 2.517 4.455 3.937 6.568 3.058-2.262 5.05-5.883 5.05-9.98 0-6.856-5.56-12.415-12.416-12.415z"/></svg>