<svg xmlns="http://www.w3.org/2000/svg" width="182" height="152.333" viewBox="0 0 182 152.333"><path fill="#D0DEE8" d="M88.167 3C47.583 2.11 13 35.907 13 76.5s30.907 74.834 73.5 73.5c40.573-1.27 73.5-32.907 73.5-73.5S133.76 4 88.167 3z"/><ellipse fill="#FAF7E3" cx="88.459" cy="56.38" rx="28.301" ry="20.182"/><path fill="#FFF" d="M85.675 50.116c-3.248-3.247-6.96-3.247-6.96-3.247l-1.855 2.314s2.784.928 6.03 2.784c3.25 1.855 6.033 5.566 6.033 5.566s0-4.174-3.248-7.422z"/><path fill="#3A2621" d="M87.45 70.51c-22.408 7.795-26.112-9.25-26.112-9.25l-1.177 39.754h66.48V63.91s-20.72.176-39.187 6.6z"/><path fill="#FF5A4E" d="M108.875 57.526c1.412 0 2.557-1.146 2.557-2.558s-1.145-2.557-2.557-2.557-2.557 1.15-2.557 2.56 1.145 2.56 2.557 2.56zm-28.47-4.964c-2.04 0-3.693 1.654-3.693 3.693 0 2.04 1.654 3.694 3.693 3.694 2.04 0 3.694-1.658 3.694-3.7 0-2.037-1.66-3.692-3.7-3.692zm95.214 28.422l-4.93.486 6.75-3.332-.37-9-1.7 6.34-6.777 3.314 4.534-3.855-1.006-6.96-9.742-.54 6.96 2.01-.39 5.026-5.334 3.943-5.66-1.994-1.58-2.042 2.83-5.01-6.262 4.64 3.48 6.494 2.853 1.605c-.03.33-.076.69-.127 1.054l-.02.043.014.003c-.534 3.737-2.223 8.916-7.43 10.593-4.775 1.538-10.275.38-14.16-.92-1.605-5.844-3.685-12.16-6.378-18.863-3.037-7.562-5.913-14.068-8.567-19.65l2.106-3.09 1.137-8.524-1.42-.57-1.99 6.82-1.87 1.17c-8.887-17.89-14.788-24.58-14.788-24.58s-10.74-4.45-26.126-4.828C71.87 15.555 62.82 15.23 62.82 15.23l3.22 3.385s-.668-.245-3.41-.986c-4.594-1.24-8.884-1.016-8.884-1.016l4.23 1.687-14.662 4.07s5.753-.847 10.58-.38c3.543.344 4.65 1.14 4.65 1.14l2.185.257C49.68 27.5 44.16 35.083 44.16 35.083s2.464 10.2 4.086 21.76l-3.545-.886-8.284-10.2-1.458 1.876L40.08 63.39l9.193 2.46c.235 2.815.373 5.58.364 8.17-.02 6.496-.007 12.546-.128 18.39-4.37 1.327-10.11 2.32-15.15.694-5.995-1.933-7.94-7.894-8.56-12.195l.018-.01-.025-.06c-.05-.35-.093-.693-.126-1.02.917-.376 2.28-1.05 3.267-2.036 1.624-1.622 4.006-7.48 4.006-7.48l-4.892-6.27.94 6.7-1.816 2.35-6.517 2.298s-4.52-2.223-6.144-4.54c-1.623-2.32-.444-5.79-.444-5.79l3.834-6.49-7.043 4.8s-2.08 5.698-1.152 8.018c.688 1.72 3.29 3.384 4.59 4.13l-7.172-3.505L2.38 65.63s.963 7.813 2.355 9.437c.66.77 3.765 2.322 6.845 3.743l-4.742-.468-5.02-1.6 3.56 3.95s6.457 2.297 9.936 2.528c2.088.14 5.444-.72 7.802-1.433.72 4.564 2.534 11.787 7.03 15.326 5.647 4.442 15.637 4.84 19.003 4.84-.89 5.99-4.28 22.878-4.69 29.363-.638 10.178 7.496 9.82 2.714 5.27 32.443 30.878 86.033 3.645 91.49-36.607 3.48-.07 12.194.853 16.708-2.7 3.99-3.14 5.546-9.607 6.143-13.55l6.738 1.484 8.63-2.194 3.093-4.237-4.36 2.196zm-69.59-32.816c4.63 0 8.382 3.753 8.382 8.382 0 .567-.058 1.12-.165 1.656l-14.47 3.91c-1.32-1.48-2.128-3.427-2.128-5.566 0-4.63 3.75-8.382 8.38-8.382zM64.69 57.26c0-7.375 5.98-13.354 13.354-13.354S91.4 49.886 91.4 57.26c0 1.945-.424 3.787-1.17 5.454l-20.9 4.645c-2.835-2.45-4.636-6.066-4.636-10.1zm42.94 29.972c-1.304 3.606-2 6.602-2.992 8.802l-1.18-.296-1.896 3.79c-.21.1-.438.186-.674.262l-2.07-1.423-3.4 1.7-3.093-5.103-4.02 2.783v-1.855h-2.012l-.154-4.794-4.483.464-.155-3.71-4.256-1.277c-3.995-5.57-6.526-10.533-6.526-10.533s.964.675 2.806 1.55l2.72 1.754h1.74c1.186.384 2.51.75 3.97 1.07l1.868 1.87 2.754-1.104c.156.02.31.04.467.056l2.657 3.984 1.49-3.72c.093 0 .184.006.277.008l2.872 2.01 2.294-2.17c.783-.062 1.587-.145 2.403-.242l7.056 1.485.68-2.86c.19-.044.383-.088.57-.133l1.842.982 1.806-1.956c1.223-.363 2.37-.74 3.43-1.124-.21.127-4.225 2.65-6.785 9.73z"/><path fill="#3A2621" d="M69.596 44.04l20.266 1.305 1.247-2.41-20.63-4.74-.888 5.846zm31.383 1.66l.75 2.397 9.17.866.3-3.63-10.224.367z"/><path fill="#2FB3B5" d="M139.67 101.483c.04 0 .088-.003.13-.004l-1.903-8.49-.34-.107c-.666-2.428-1.437-4.956-2.277-7.54l-.368 25.71c-10.26 2.146-24.854 5.026-32.997 5.868-13.455 1.394-19.95.465-19.95.465S73.15 103.935 67.12 96.51c-5.786-7.12-16.662-8.262-17.545-8.343-.014 1.294-.034 2.574-.06 3.847 1.878.58 8.78 3.018 11.573 8.206 3.248 6.032 8.35 19.95 8.35 19.95s-8.35 5.103-15.773 8.35c-3.46 1.515-6.708 2.318-9.2 2.75-.504 1.81-1.06 3.653-1.66 5.52C54.78 145.517 69.727 150.525 86.5 150c22.517-.705 42.666-10.772 56.152-26.522-.27-5.61-1.055-13.07-2.983-21.995z"/></svg>