<svg xmlns="http://www.w3.org/2000/svg" width="18" height="85" viewBox="0 0 18 85"><path d="M2.557 83.796c3.146-.9 5.36-2.29 6.645-4.177 1.284-1.89 1.925-4.23 1.925-7.02V50c0-1.846.406-3.266 1.217-4.262.81-.994 2.105-1.492 3.89-1.492v-3.442c-1.783 0-3.08-.49-3.89-1.47s-1.217-2.398-1.217-4.26V12.448c0-2.81-.643-5.152-1.925-7.03-1.285-1.877-3.5-3.266-6.645-4.164l-.915 2.72c1.83.594 3.126 1.61 3.888 3.046.762 1.437 1.144 3.246 1.144 5.43v22.625c0 1.78.35 3.306 1.047 4.574.7 1.264 1.81 2.235 3.336 2.91-1.523.69-2.636 1.66-3.333 2.913-.696 1.25-1.045 2.758-1.045 4.524V72.6c0 2.166-.385 3.967-1.156 5.403-.77 1.437-2.07 2.45-3.9 3.046l.94 2.743H2.56z"/></svg>