<svg xmlns="http://www.w3.org/2000/svg" width="20.833" height="109.333" viewBox="0 0 20.833 109.333"><path fill="#5B7896" d="M2.09 108.557c4.095-1.17 6.978-2.982 8.65-5.438 1.67-2.46 2.507-5.506 2.507-9.14V64.553c0-2.403.528-4.252 1.583-5.548s2.742-1.943 5.062-1.943V52.58c-2.32 0-4.008-.636-5.062-1.91-1.055-1.274-1.583-3.123-1.583-5.55V15.665c0-3.656-.836-6.708-2.507-9.152C9.068 4.067 6.185 2.26 2.09 1.09L.897 4.63c2.382.774 4.07 2.095 5.062 3.965.99 1.87 1.49 4.227 1.49 7.068V45.12c0 2.32.45 4.306 1.36 5.956.91 1.65 2.354 2.915 4.34 3.793-1.986.893-3.43 2.16-4.34 3.79s-1.36 3.596-1.36 5.894V93.98c0 2.82-.504 5.167-1.507 7.038-1.003 1.866-2.696 3.19-5.078 3.962l1.222 3.573z"/></svg>