<svg xmlns="http://www.w3.org/2000/svg" width="340.667" height="16.167" viewBox="0 0 340.667 16.167"><path fill="#7F7F7F" d="M164.526 12.27c.588-.767 1.47-1.315 2.648-1.65 1.177-.334 3.39-.51 6.64-.53 3.548-.02 158.875-.137 160.192-.352s2.468-.684 3.452-1.406c.72-.527 1.27-1.21 1.646-2.05.378-.84.566-2.1.566-3.78V1.154h-4.137v.762c0 1.367-.185 2.314-.553 2.842-.37.527-1.02.888-1.948 1.084-.668.117-155.835.175-159.715.175-3.774 0-6.45.38-8.03 1.143-1.58.762-2.854 2.06-3.82 3.896-.56-1.23-1.344-2.23-2.346-3.003S156.75 6.73 155.01 6.4c-1.335-.256-139.344-.383-144.213-.383-2.32 0-3.805-.278-4.456-.834-.65-.558-.974-1.646-.974-3.267v-.762H1.23v1.348c0 1.562.183 2.802.552 3.72.37.92.976 1.65 1.818 2.198 1.143.762 2.564 1.25 4.27 1.464 1.035.117 138.05.186 141.23.205 3.248.02 5.457.19 6.625.515s2.05.874 2.648 1.65c.597.776.913 1.724.948 2.844h4.296c.02-1.12.322-2.064.91-2.83z"/></svg>