<svg xmlns="http://www.w3.org/2000/svg" width="104" height="91" viewBox="0 0 104 91"><path fill="#FFF" d="M70 17.25H46.25c-1.657 0-3 1.343-3 3v9c0 1.657 1.343 3 3 3H70c1.656 0 3-1.343 3-3v-9c0-1.657-1.344-3-3-3z"/><path fill="#3E211B" d="M40 31v10l7 8h20l7-18"/><path fill="#F9C6AB" d="M20.146 23.858L6.616 8.998 2.182 27.186l17.968 59.23s2.78 3.458 6.874 2.698c4.45-.827 5.984-4.313 5.984-4.313L20.146 23.86z"/><path fill="#68423A" d="M6.617 8.998L4.604 17.25c1.018.75 2.448 1.378 4.23 1.063 2.54-.448 2.863-2.5 2.806-3.797L6.617 8.998z"/><path fill="#FF9747" d="M20.175 23.996c-.026.056-.047.103-.076.162-.006 1.33-.14 3.395-.99 3.545-1.06.188-1.59.164-1.73.15l-.05.047c-.03.27-.52 4.1-2.66 4.387-2.135.284-3.23-1.13-3.31-1.237l-.027.005c-.122.255-1.705 3.45-3.907 1.676-2.058-1.653-2.327-2.833-2.36-3.06l-.007-.002c-.005.188-.073 1.344-.96.184-.715-.935-1.536-2.13-1.915-2.69l-.007.03 17.965 59.23s2.78 3.457 6.874 2.697C31.467 88.29 33 84.805 33 84.805L20.17 24z"/><path fill="#FF4D4D" d="M66.573 26.03c1.035 0 1.874-.84 1.874-1.874s-.84-1.875-1.874-1.875-1.874.84-1.874 1.88.834 1.874 1.87 1.874zM13.8 56.6l1-.8-.4-1.2-3.15 1.853L11.2 56l-1.6-4 .6 4.6.686.686L10.6 59l1.6 3.2s2.2-2.2 3-3.8c.8-1.6-1.4-1.8-1.4-1.8zm36.913-31.565c.717 0 1.298-.58 1.298-1.297s-.58-1.298-1.293-1.298-1.297.58-1.297 1.298.58 1.297 1.296 1.297zm50.103 59.317l-3.1.65-.72.82.503.462 1.15-.85h1.4l1.12 1.026-.013 1.424s-.236.724-2.438.937c-2.236.22-5.12-.283-5.12-.283l-3.315-2.74-.51-.042.147-.028-.04-.083.184-.013-.77-2.98-.76.173c-1.99-4.226-5.627-12.18-7.554-17.86-2.74-8.073-2.884-17.878-2.884-17.878l4.325.144v-.344l7.065.95-2.933 7.54L83 56.833l3 .15v2.35L88.166 62 91 61.5l.166-4.667-1.832-1.166L92.666 47 82.34 42.55c-.59-.387-4.043-2.942-5.098-10.32-.248-1.74-.282-3.768-.183-5.878l4.792-2.34 1.658-5.407 2.813-1.73-.433-.792-2.883.865-3.028 4.47-2.57.64c.72-6.326 2.134-12.175 2.134-12.175S76.18 6.748 68.764 5.61c-.063-.366-.162-.75-.317-1.062-.433-.865-2.02-2.307-2.02-2.307l-.72 1.88s-.577-.577-1.73-1.44S59.94.51 59.94.51l1.442 2.74-5.48-.29s1.588.434 3.174 1.3c.868.473 1.555.855 2.007 1.108-7.244.716-12.1 3.938-12.1 3.938s-2.546 2.04-6.41 8.772l-1.81-1.13-1.01-3.462-.72.288.577 4.326 1.632 2.394c-1.635 3.082-3.453 6.934-5.38 11.736-.527 1.31-1.02 2.587-1.487 3.835-1.542 1.892-4.465 5.423-6.176 7.135-2.4 2.4-3.8 3.6-3.8 3.6l1 3 6.09-5.385C27.89 55.823 27.06 62.94 27.06 62.94s-.577 5.77 1.01 11.39c.942 3.35 2.303 7.24 2.886 8.87l-1.35.12.705 2.465-.15.014-3.317 2.74s-2.885.503-5.12.286c-2.2-.212-2.38-1.225-2.38-1.225l-.01-1.942 1.525-.797.94.577v1.37h.793l.15-1.807-2.236-1.514L17.12 85l.432 3.604s1.94 1.707 6.632 2.163c5.19.504 7.137-1.154 7.137-1.154l.726-1.586 1.442 1.947 1.946-.433s-.143-1.37-.29-2.38c-.087-.62-.34-1.13-.52-1.43l.09-.007.384-2.884-1.083.094.268-11.195s8.94 1.152 17.59 1.585c8.65.434 22.78-.72 22.78-.72l10.04 11.09-.475.107 1.53 2.105c-.164.31-.35.747-.424 1.26-.144 1.01.578 2.67.578 2.67l1.83.26.693-2.062.722 1.586s1.945 1.658 7.136 1.154c4.69-.456 6.75-1.817 6.75-1.817l.2-2.623-2.407-1.974zm-43.22-64.94c1.233-.23 3.377-.556 5.518-.533 1.866.02 3.722.31 4.958.553.956 1.168 1.53 2.66 1.53 4.287 0 3.743-3.035 6.777-6.777 6.777s-6.776-3.035-6.776-6.777c-.006-1.637.58-3.14 1.542-4.31zm-11.85.836c.872-.104 1.863-.182 2.854-.17 1.055.01 2.107.123 3.006.26.782.77 1.27 1.84 1.27 3.026 0 2.35-1.905 4.253-4.253 4.253-2.35 0-4.253-1.904-4.253-4.253 0-1.237.534-2.34 1.376-3.116zM66.25 40.386l.043-.09-1.652-1.26s0 .095-.333.748c-.33.652-1.766 2.005-1.766 2.005l-2.847-.668-.96 1.48-1.89-.603-2.944.87-1.305-2.2-1.2 2.314c-.012 0-.023-.003-.035-.004l-3.02-2.1-2.13.15-1.08-2.67-1.363.204-.014.06c-1.96-3.2-1.252-5.976-1.243-6.014l3.41 3.97 3.734-1.155c.27.05.55.095.84.14l2.895 1.687 1.29-1.31c.05.003.104.006.16.007l2.312 1.16.457-1.13 3.546 1.77 1.002-2.273c.004-.003.13-.013.133-.014l.955 1.006 1.278-1.685 1.438 1.726s2.084-1.124 2.96-2.015c.88-.89 2-2.73 2-2.73s-.283 5.696-4.67 8.616z"/><path fill="#3E211B" d="M58.264 13.85l-.424 2.61 11.196.374.343-2.6-11.12-.384zM47 16.455l4.837-.146.427-1.966-4.552.388-.713 1.72z"/></svg>