<svg xmlns="http://www.w3.org/2000/svg" width="126.75" height="50.625" viewBox="0 0 126.75 50.625"><path fill-rule="evenodd" clip-rule="evenodd" fill="#2D3E50" d="M125.23 24.318c-.818 3.537-1.898 3.966-3.076 3.966-1.18 0-1.685-.49-4.11-.857-2.45-.37-3.372-.252-5.087-.16-2.627.14-4.352 3.32-.752 5.68.565.37 1.812 1.324 3.153 2.368 3.368 2.395 6.05 4.52 6.165 6.795.29 5.733-4.254 6.47-8.713 7.18-5.375.857-12.55.644-19.607-.214-6.793-.825-5.29-3.537-4.473-7.073.818-3.537 1.898-3.966 3.078-3.966 1.178 0 2.17.33 6.2.857 1.16.152 1.952.26 2.642.285 6.864-1.04-.982-5.96-3.22-7.96-3.017-2.7-4.837-3.98-4.99-7.01-.293-5.738 4.253-6.47 8.71-7.18 5.375-.86 12.552-.65 19.61.21 6.793.824 5.29 3.536 4.47 7.072zM98.023 12.415c-.652.62-1.656 1.734-1.656 1.734s-.855 2.03-1.986.17c-.222-.376-1.17-1.46-1.17-1.46s-.79-.655-.09-1.99c.596-1.14.965-1.92 1.51-2.868.77-1.33 1.08-1.794 1.547-2.406 1.406-1.847 2.4.424 2.4.424l1.418 2.33s1.41 1.2-.403 2.68c-.496.403-1.017.863-1.564 1.38zM86.253 39.94c-1.526 9.083-3.583 9.39-10.92 9.502-7.335.11-5.126-5.456-5.126-5.456s5.19-33.584 6.24-38.3c1.05-4.72 4.12-4.178 7.707-4.344 3.585-.166.8.077 3.387-.043 3.59-.17 3.56 4.042 3.19 6.34-.37 2.292-2.816 22.43-4.472 32.3zM72.457 9.26c.06-.147.12-.3.18-.455-.292.782-.286.836-.18.455zm-9.17 5.1c-7.286.34-6.696-1.51-5.732-6.11s2.938-6.104 8.015-6.427c.587-.038 2.14-.068 4.317.064 4.328.263 2.916 6.13 2.57 7.372-2.158 5.27-5.79 4.94-9.168 5.1zm.12 2.763c3.584-.166.8.076 3.387-.043 3.586-.166 3.553 4.05 3.183 6.343-.37 2.295-.937 6.648-2.594 16.518-1.524 9.09-3.58 9.39-10.917 9.51-7.336.11-5.127-5.457-5.127-5.457s3.31-17.805 4.36-22.52 4.12-4.18 7.7-4.344zm-15.13 24.654c-1.018 6.823-3.1 7.42-6.104 6.002-2.484-1.18-5.637-5.15-8.443-7.08-2.15-1.48-4.737.585-6.34 2.08-1.615 1.507-3.258 2.17-5.523.464-2.008-1.514-2.838-3.358-4.432-3.776-1.602-.418-4.275 2.423-6.368 4.92-2.11 2.514-4.537 4.442-7.604 4.283-4.253-.22-2.11-7.82-2.11-7.82l5.32-19.9s1.65-4.91 5.58-3.845c5.347 1.452 10.834 7.146 14.814 7.318 3.928.17 16.78-7.084 21.46-6.926 4.603.153 4.114 2.842 4.114 2.842s-3.62 16.47-4.36 21.43z"/></svg>