<svg xmlns="http://www.w3.org/2000/svg" width="253" height="230" viewBox="0 0 253 230"><path fill="#FFB400" d="M222.925 77.314C198.5 25.724 134.237 3.51 83.195 29.06c-51.042 25.55-74.643 85.963-46.16 138.68 27.135 50.22 87.64 71.71 138.682 46.16 51.043-25.55 74.647-78.627 47.208-136.586z"/><path fill="#BE301D" d="M112.032 113.524c-.523 0-.93.23-1.22.69-.226.368-.56.997-1.007 1.888-.5 1.008-.75 1.612-.75 1.816 0 .344.145.646.434.908.284.262.64.393 1.05.393.586 0 1.012-.26 1.277-.778.227-.438.53-1.04.914-1.805.524-1.048.786-1.648.786-1.805 0-.344-.146-.648-.435-.914s-.64-.398-1.053-.398zm-16.02-25.336c-2.965 0-5.373.715-7.225 2.145-2.204 1.7-3.305 4.213-3.305 7.54 0 2.872 1.078 5.08 3.234 6.628 1.758 1.27 3.814 1.9 6.17 1.9.468 0 1-.06 1.59-.182.592-.123 1.246-.308 1.96-.554-.808 1.524-1.702 2.705-2.68 3.543-.98.838-2.323 1.585-4.034 2.24-.96.317-1.922.628-2.883.933-1.13.49-1.69 1.206-1.69 2.144 0 .61.21 1.144.63 1.6.457.493 1.03.74 1.723.74.914 0 2.472-.5 4.676-1.495 1.922-.88 3.333-1.637 4.236-2.27 2.155-1.523 3.854-3.78 5.097-6.768 1.148-2.755 1.716-5.597 1.705-8.526-.014-2.695-.986-4.992-2.92-6.89-1.84-1.816-3.936-2.725-6.29-2.725zm4.2 11.55c-1.02.726-1.93 1.27-2.732 1.634-.803.363-1.497.545-2.083.545-1.465 0-2.66-.352-3.586-1.055-1.02-.785-1.524-1.88-1.524-3.287.01-1.734.45-3.032 1.318-3.894.868-.86 2.17-1.29 3.903-1.29 1.055 0 2.127.59 3.217 1.76 1.1 1.208 1.657 2.427 1.67 3.657 0 .47-.06 1.114-.177 1.934zM74.04 88.188c-2.965 0-5.373.714-7.225 2.144-2.204 1.7-3.305 4.213-3.305 7.54 0 2.872 1.078 5.08 3.234 6.628 1.758 1.267 3.814 1.9 6.17 1.9.468 0 1-.063 1.59-.186.592-.123 1.246-.308 1.96-.554-.808 1.523-1.702 2.704-2.68 3.542-.98.838-2.323 1.585-4.034 2.24-.96.317-1.922.628-2.883.933-1.125.492-1.688 1.207-1.688 2.145 0 .61.21 1.143.63 1.6.455.492 1.03.738 1.72.738.915 0 2.473-.5 4.677-1.494 1.922-.88 3.333-1.635 4.236-2.268 2.156-1.523 3.855-3.78 5.098-6.768 1.15-2.754 1.717-5.596 1.706-8.525-.013-2.695-.985-4.992-2.92-6.89-1.84-1.816-3.936-2.725-6.29-2.725zm4.2 11.55c-1.02.725-1.93 1.27-2.732 1.633-.803.367-1.497.55-2.083.55-1.465 0-2.66-.353-3.586-1.056-1.02-.784-1.53-1.88-1.53-3.286.01-1.734.45-3.032 1.314-3.894.867-.86 2.168-1.29 3.902-1.29 1.054 0 2.126.585 3.216 1.757 1.1 1.207 1.658 2.426 1.67 3.656 0 .47-.06 1.114-.176 1.934zm97.096 3.32c-.53 0-1.06.073-1.588.218s-1.053.365-1.576.662l.012-.118c0-.414-.148-.77-.445-1.066s-.67-.445-1.107-.445c-.57 0-1.023.26-1.36.782-.288.46-.433 1.016-.433 1.664 0-.14.06.63.177 2.31.085 1.217.14 2.67.163 4.357.017 1.195.017 2.738 0 4.63-.015 2.546-.022 4.002-.022 4.37 0 .452.153.827.458 1.125.305.296.69.444 1.16.444s.855-.148 1.16-.445c.305-.3.457-.674.457-1.126l.012-4.78c.742.156 1.45.234 2.12.234 1.76 0 3.16-.604 4.208-1.815.977-1.126 1.465-2.544 1.465-4.255 0-1.827-.31-3.315-.926-4.464-.83-1.524-2.14-2.285-3.938-2.285zm1.043 8.837c-.43.57-1.05.855-1.857.855-.695 0-1.39-.112-2.086-.34 0-1.616-.047-3.23-.14-4.84.515-.46 1.026-.806 1.534-1.036s1.01-.346 1.5-.346c.767 0 1.263.477 1.49 1.43.093.406.14 1.137.14 2.19 0 .877-.194 1.572-.585 2.088zm16.753-4.758c0-.39.016-.957.047-1.7s.048-1.308.048-1.698c0-.44-.154-.8-.463-1.09s-.697-.438-1.166-.438-.86.145-1.17.434-.47.65-.47 1.09c0 .382-.018.944-.05 1.687s-.046 1.312-.046 1.71v.26c-1.828-.04-3.566.097-5.215.41 0-.196-.01-.813-.035-1.853-.016-.75-.023-1.374-.023-1.874 0-.44-.156-.8-.47-1.09s-.702-.435-1.17-.435-.858.147-1.167.436-.463.65-.463 1.09c0 .46-.004 1.14-.012 2.04v2.037c0 .438.014 1.096.037 1.975s.035 1.537.035 1.975c0 .266-.036.627-.11 1.084s-.11.82-.11 1.085c0 .446.153.813.462 1.103.31.288.697.434 1.166.434s.855-.146 1.164-.434c.31-.29.463-.654.463-1.096s.03-1 .094-1.68c.08-.8.12-1.35.13-1.654 1.58-.336 3.208-.504 4.888-.504h.387c.03 1.758.047 2.977.047 3.656 0 .437.158.8.47 1.09.31.287.704.433 1.17.433s.86-.145 1.17-.433c.307-.29.46-.653.46-1.09 0-.798-.015-1.958-.046-3.48s-.048-2.686-.048-3.483zm-68.566-9.95c-1.977 0-3.58.477-4.816 1.43-1.47 1.133-2.202 2.81-2.202 5.027 0 1.914.72 3.387 2.156 4.418 1.172.844 2.543 1.266 4.113 1.266.313 0 .667-.042 1.062-.124s.83-.205 1.306-.37c-.54 1.017-1.137 1.804-1.79 2.362s-1.55 1.057-2.69 1.494c-.64.21-1.28.418-1.92.62-.75.33-1.125.806-1.125 1.43 0 .407.14.763.423 1.067.305.327.687.49 1.148.49.61 0 1.65-.332 3.118-.995 1.28-.586 2.222-1.09 2.824-1.512 1.437-1.016 2.57-2.52 3.398-4.512.766-1.835 1.145-3.73 1.137-5.683-.007-1.797-.655-3.328-1.944-4.594-1.228-1.21-2.626-1.81-4.196-1.81zm2.8 7.7c-.68.484-1.287.848-1.82 1.09-.537.242-1 .363-1.39.363-.978 0-1.774-.233-2.39-.702-.68-.523-1.02-1.254-1.02-2.19.005-1.157.3-2.022.877-2.597s1.445-.86 2.602-.86c.702 0 1.417.39 2.144 1.176.735.805 1.106 1.617 1.114 2.438 0 .31-.04.74-.117 1.29zm39.117-2.075c-.18 0-.447.014-.803.04s-.622.042-.802.042c-.438 0-1.1-.02-1.986-.06s-1.55-.058-1.986-.058c-2.118 0-3.177.684-3.177 2.05 0 .337.04.81.117 1.42.096.663.147 1.14.154 1.43.11 3.14.165 5.315.165 6.526 0 .438.154.8.463 1.09.31.288.7.434 1.167.434s.86-.146 1.172-.434c.31-.29.47-.652.47-1.09 0-1.258-.06-3.465-.18-6.62-.07-.79-.13-1.384-.186-1.782.446 0 1.095.024 1.946.07.882.048 1.53.07 1.944.07.953 0 1.62-.058 2.004-.175.74-.227 1.11-.7 1.11-1.418 0-.422-.144-.78-.433-1.078-.31-.308-.696-.46-1.157-.46zm-27.27-5.625c-1.976 0-3.58.477-4.815 1.43-1.47 1.133-2.204 2.81-2.204 5.027 0 1.914.72 3.387 2.155 4.418 1.173.844 2.544 1.266 4.114 1.266.31 0 .664-.042 1.06-.124s.83-.205 1.306-.37c-.54 1.017-1.134 1.804-1.786 2.362s-1.55 1.057-2.69 1.494c-.64.21-1.28.418-1.92.62-.75.33-1.127.806-1.127 1.43 0 .407.14.763.422 1.067.303.327.686.49 1.146.49.61 0 1.648-.332 3.117-.995 1.282-.586 2.224-1.09 2.825-1.512 1.437-1.016 2.57-2.52 3.397-4.512.766-1.835 1.145-3.73 1.137-5.683-.008-1.797-.656-3.328-1.945-4.594-1.228-1.21-2.627-1.81-4.197-1.81zm2.802 7.7c-.68.484-1.288.848-1.823 1.09s-.998.363-1.39.363c-.976 0-1.772-.233-2.39-.702-.68-.523-1.02-1.254-1.02-2.19.008-1.157.3-2.022.88-2.597s1.444-.86 2.6-.86c.704 0 1.42.39 2.146 1.176.733.805 1.104 1.617 1.112 2.438 0 .31-.04.74-.117 1.29z"/><path fill="#FFF" d="M154.477 70.683h-1.04c0-.193-.003-.382-.003-.545 0-.39.016-.957.047-1.7s.05-1.308.05-1.698c0-.438-.152-.8-.46-1.09s-.698-.434-1.167-.434-.86.145-1.172.434-.47.652-.47 1.09c0 .383-.014.945-.045 1.688s-.045 1.312-.045 1.71v.26c-1.496-.033-2.917.083-4.29.286h-.927c-.003-.268-.014-.83-.034-1.73-.018-.75-.025-1.374-.025-1.874 0-.438-.155-.8-.468-1.09s-.703-.434-1.172-.434-.857.145-1.166.434-.464.652-.464 1.09c0 .46-.003 1.14-.01 2.04v1.563h-1.292c-.15-.888-.392-1.676-.747-2.338-.828-1.523-2.14-2.285-3.938-2.285-.53 0-1.06.072-1.59.217s-1.053.365-1.576.662l.013-.12c0-.416-.148-.77-.445-1.068s-.663-.445-1.1-.445c-.57 0-1.024.262-1.36.785-.29.46-.434 1.016-.434 1.664 0-.14.06.63.175 2.31.013.193.024.405.037.613h-7.793c0-.035-.003-.066-.004-.1-.07-.79-.134-1.384-.19-1.78.446 0 1.095.02 1.946.07.882.045 1.53.07 1.944.07.954 0 1.622-.06 2.004-.178.74-.227 1.113-.7 1.113-1.418 0-.424-.144-.783-.433-1.08-.313-.305-.7-.457-1.16-.457-.18 0-.448.015-.804.04s-.623.043-.803.043c-.438 0-1.1-.02-1.986-.06s-1.548-.057-1.985-.057c-2.118 0-3.177.684-3.177 2.05 0 .337.038.81.116 1.42.092.663.143 1.14.15 1.43v.005h-13.226c.387-1.332.587-2.692.582-4.084-.01-1.798-.657-3.33-1.946-4.595-1.228-1.21-2.626-1.817-4.196-1.817-1.977 0-3.582.476-4.816 1.43-1.47 1.132-2.203 2.808-2.203 5.026 0 1.7.6 3.033 1.736 4.037h-3.8c.386-1.332.586-2.692.58-4.084-.01-1.798-.657-3.33-1.946-4.595-1.227-1.21-2.625-1.817-4.195-1.817-1.98 0-3.585.477-4.82 1.43-1.466 1.133-2.2 2.81-2.2 5.027 0 1.7.6 3.033 1.738 4.037h-3.81c.388-1.332.588-2.692.583-4.084-.007-1.798-.655-3.33-1.944-4.595-1.227-1.21-2.625-1.818-4.195-1.818-1.976 0-3.58.476-4.815 1.43-1.47 1.132-2.203 2.808-2.203 5.026 0 1.7.602 3.032 1.738 4.036h-2.36v2.05h8.72c-.39.59-.806 1.085-1.25 1.465-.652.558-1.55 1.056-2.69 1.493-.64.21-1.28.42-1.92.62-.75.33-1.126.807-1.126 1.43 0 .408.14.764.422 1.068.305.328.688.492 1.148.492.61 0 1.648-.333 3.117-.996 1.286-.586 2.228-1.09 2.83-1.512 1.32-.935 2.373-2.3 3.18-4.06h10.94c-.39.59-.807 1.084-1.25 1.464-.653.56-1.55 1.057-2.69 1.494-.64.21-1.28.418-1.92.62-.75.33-1.127.806-1.127 1.43 0 .407.14.763.422 1.067.305.327.688.49 1.148.49.61 0 1.648-.33 3.117-.995 1.28-.586 2.222-1.09 2.823-1.512 1.322-.935 2.374-2.3 3.18-4.06h10.943c-.39.59-.806 1.084-1.25 1.464-.652.56-1.55 1.057-2.69 1.494-.64.213-1.28.42-1.92.623-.75.33-1.126.805-1.126 1.43 0 .406.14.762.422 1.066.305.327.688.49 1.148.49.61 0 1.648-.332 3.117-.995 1.28-.585 2.223-1.09 2.824-1.51 1.327-.936 2.38-2.3 3.18-4.06h14.07c.067 2.05.1 3.543.1 4.47 0 .437.153.8.462 1.09.31.287.697.433 1.166.433s.86-.146 1.172-.434c.312-.29.47-.653.47-1.09 0-.95-.035-2.44-.1-4.47h7.808c.016.537.03 1.094.037 1.69.017 1.196.017 2.74 0 4.63-.015 2.547-.022 4.003-.022 4.37 0 .453.153.828.458 1.126.306.297.69.445 1.16.445s.856-.147 1.16-.444c.306-.3.458-.674.458-1.126l.012-4.78c.742.156 1.45.234 2.12.234 1.76 0 3.16-.605 4.208-1.816.977-1.122 1.465-2.54 1.465-4.25 0-.027-.005-.05-.005-.077h1.142l.01.4c.023.88.035 1.538.035 1.976 0 .266-.036.627-.11 1.084s-.11.82-.11 1.084c0 .445.153.812.462 1.102.31.288.697.434 1.166.434s.858-.145 1.167-.433c.31-.29.463-.654.463-1.096s.03-1 .094-1.68c.08-.796.122-1.35.13-1.65 1.578-.337 3.207-.505 4.887-.505h.39c.03 1.758.047 2.977.047 3.656 0 .438.158.8.47 1.09.313.288.704.434 1.173.434s.856-.146 1.165-.434c.31-.29.463-.654.463-1.09 0-.8-.014-1.96-.045-3.48l-.016-.887h1.012v-2.047zM73.02 67.888c-.68.484-1.287.848-1.822 1.09s-.998.363-1.39.363c-.976 0-1.772-.23-2.39-.7-.68-.52-1.02-1.252-1.02-2.19.008-1.155.3-2.02.88-2.595s1.444-.86 2.6-.86c.704 0 1.42.39 2.146 1.172.734.805 1.105 1.617 1.113 2.438 0 .31-.04.74-.117 1.288zm14.648 0c-.68.484-1.287.848-1.822 1.09s-.998.363-1.39.363c-.976 0-1.772-.23-2.39-.7-.68-.52-1.02-1.252-1.02-2.19.008-1.155.3-2.02.88-2.595s1.444-.86 2.6-.86c.704 0 1.42.39 2.146 1.172.734.805 1.105 1.617 1.113 2.438 0 .31-.038.74-.117 1.288zm14.65 0c-.68.484-1.288.848-1.823 1.09s-.998.363-1.39.363c-.976 0-1.772-.23-2.39-.7-.68-.52-1.02-1.252-1.02-2.19.008-1.155.3-2.02.88-2.595s1.444-.86 2.6-.86c.704 0 1.42.39 2.146 1.172.74.805 1.11 1.617 1.118 2.438 0 .31-.04.74-.117 1.288zm30.28 2.683c.516-.46 1.027-.802 1.535-1.032s1.008-.346 1.5-.346c.766 0 1.262.477 1.488 1.43.01.018.01.045.017.064h-4.53c-.003-.036-.003-.074-.005-.11zm4.664 2.24c0 .88-.195 1.57-.586 2.09-.43.57-1.047.855-1.852.855-.695 0-1.39-.112-2.086-.34 0-.894-.05-1.784-.078-2.677h4.602v.077z"/><path fill="#FFE42D" d="M132.89 37.093c.39-1.578.69-2.76.9-3.544.11-.42.054-.81-.173-1.17-.227-.367-.562-.61-1.007-.73-.656-.175-1.343 0-2.058.53-2.163 1.58-3.413 2.487-3.75 2.72-1.447.995-2.775 1.8-3.983 2.415l1.04-4.343c.32-1.354.48-2.095.484-2.224.046-.927-.354-1.5-1.2-1.73-.467-.125-.886-.086-1.256.12s-.613.52-.728.95c.012-.046-.243 1.07-.764 3.35-.51 2.193-1.03 4.29-1.566 6.29-.124.46-.027.87.29 1.23.274.3.623.506 1.046.62.567.15 1.158.06 1.775-.284.618-.34 1.54-.774 2.765-1.304 1.353-.59 2.99-1.646 4.9-3.163-.09.47-.187.914-.298 1.33-.12.45-.327 1.127-.616 2.023-.29.897-.494 1.572-.615 2.025-.11.413-.054.803.173 1.166.228.365.566.607 1.02.73.445.12.857.077 1.234-.125.38-.2.623-.51.734-.925.07-.27.196-.675.372-1.21s.3-.938.372-1.21c.21-.782.51-1.964.902-3.54zm46.02.57c-.207-.344-.518-.57-.934-.682-.414-.11-.798-.07-1.148.127-.352.193-.58.49-.688.89-.28 1.042-.707 2.602-1.283 4.68-.578 2.077-1.006 3.637-1.285 4.678-.078.296-.187.737-.324 1.327-.14.59-.246 1.03-.325 1.327-.107.4-.06.77.146 1.105.2.338.52.563.94.677.42.11.803.072 1.15-.118.346-.188.572-.484.68-.884l3.22-12.01c.105-.4.055-.77-.15-1.115zm-61.437-6.29c.556-.596.932-.867 1.128-.814.36.09.68.05.98-.13.294-.18.49-.445.58-.79.096-.357-.07-.725-.492-1.106-.35-.32-.7-.527-1.047-.62-1.05-.28-2.08.135-3.09 1.247-.707.773-1.095 1.18-1.162 1.218-.4.257-1.003.273-1.81.05.297-1.256.52-2.158.666-2.71.11-.407.038-.79-.214-1.148-.238-.33-.57-.553-1-.668-1.08-.29-1.78.162-2.1 1.354-.177.662-.42 1.67-.724 3.02s-.547 2.36-.728 3.03c-.09.34-.247.858-.466 1.557-.22.696-.373 1.21-.462 1.543-.113.424-.04.81.222 1.164.247.317.582.532 1.004.646 1.092.293 1.837-.296 2.23-1.768.035-.128.08-.31.135-.546.057-.236.098-.403.124-.502l.563-2.057c.544.145.845.23.903.253.257.068.645.808 1.166 2.217.482 1.303.753 2.22.813 2.754.09.753.502 1.23 1.242 1.427.4.106.785.09 1.155-.055.432-.168.705-.463.82-.886.164-.618.01-1.59-.47-2.916-.436-1.24-.963-2.29-1.58-3.15.223-.14.45-.328.682-.557.31-.352.62-.705.926-1.06zm-11.196-6.35c-.936-.703-1.796-1.16-2.58-1.37-1.6-.43-3.25.108-4.946 1.61-1.49 1.315-2.44 2.724-2.84 4.226-.434 1.63-.193 3.1.72 4.41.877 1.244 2.14 2.09 3.8 2.534.727.194 1.73.185 3.02-.03 1.44-.243 2.24-.66 2.396-1.25.1-.376.046-.75-.166-1.123-.21-.37-.52-.612-.93-.72-.196-.053-.71.016-1.547.204s-1.504.215-2.01.08c-.89-.24-1.55-.646-1.98-1.222-.45-.606-.57-1.306-.36-2.1.216-.8.795-1.662 1.74-2.59.984-.958 1.767-1.36 2.348-1.203.915.244 1.55.604 1.916 1.076.363.474.707.754 1.032.84.43.116.822.056 1.177-.18.333-.22.55-.514.65-.883.18-.678-.296-1.448-1.43-2.31zm39.63 9.94c-.25-.066-.663-.152-1.24-.26s-1.012-.197-1.298-.274c-.308-.086-.71-.208-1.22-.37s-.86-.27-1.05-.326c-1.616-.433-2.62.094-3.02 1.58-.405 1.51-.82 2.705-1.24 3.587-.6 1.24-1.36 2.245-2.29 3.016-.44-.104-.836-.063-1.184.12-.378.196-.624.515-.74.952-.07.264-.177.624-.315 1.08s-.243.82-.315 1.092c-.36 1.335.005 2.148 1.092 2.44.45.12.864.082 1.237-.117s.618-.516.733-.945c.038-.143.09-.35.153-.62s.114-.464.147-.585c.992.185 1.52.285 1.58.302l5.83 1.56c-.25.815-.353 1.436-.305 1.86.07.674.463 1.107 1.18 1.3.453.12.867.08 1.24-.123.375-.203.62-.52.734-.95.075-.286.175-.685.295-1.194s.22-.912.3-1.206c.235-.875-.17-1.51-1.213-1.902.624-2.478.975-3.86 1.05-4.146.09-.325.238-.803.452-1.434.212-.63.362-1.108.45-1.433.21-.795.287-1.38.23-1.76-.098-.636-.525-1.05-1.28-1.255zm-2.593 3.698c-.197.59-.336 1.03-.418 1.336-.05.19-.39 1.53-1.017 4.022l-4.11-1.1c1.44-1.598 2.54-3.69 3.31-6.284.43.14 1.32.37 2.662.69-.045.167-.187.615-.432 1.34zm27.14 3.76c-.835-.652-1.612-1.08-2.33-1.27-1.87-.5-3.65-.283-5.34.65s-2.78 2.31-3.267 4.13c-.52 1.94-.455 3.518.193 4.735.648 1.218 1.882 2.07 3.7 2.558.37.1.842.136 1.415.107.574-.03 1.252-.116 2.035-.263.575.874 1.036 1.357 1.383 1.45.4.107.79.07 1.164-.108s.617-.47.723-.865c.023-.09-.025-.494-.146-1.216-.135-.798-.205-1.233-.21-1.307-.034-.68.14-1.735.52-3.162.163-.604.326-1.13.49-1.57.16-.44.32-.8.476-1.077.228-.155.378-.368.45-.637.172-.642-.247-1.36-1.257-2.15zm-2.695 2.886c-.12.304-.21.577-.28.818-.237.89-.483 2.265-.74 4.12-.45.204-.905.327-1.364.37-.46.042-.926 0-1.394-.125-.725-.195-1.2-.596-1.426-1.2-.225-.608-.202-1.417.07-2.43.282-1.056.916-1.883 1.9-2.48.985-.6 1.99-.76 3.018-.483.083.022.18.065.286.13s.228.157.358.273c-.17.364-.313.7-.43 1.004zm5.73 7.16c-.397-.106-.78-.068-1.16.112-.38.182-.626.47-.73.86-.105.386-.038.848.196 1.388.263.59.62.943 1.073 1.064.393.104.777.06 1.156-.128s.62-.477.722-.86c.1-.38.03-.838-.2-1.378-.258-.583-.61-.937-1.065-1.06zM160.07 40.34c.09-.356-.07-.724-.497-1.105-.352-.32-.7-.527-1.047-.62-1.05-.28-2.08.135-3.09 1.247-.708.773-1.097 1.18-1.163 1.217-.4.255-1.003.27-1.81.05.297-1.258.52-2.16.667-2.71.11-.41.038-.79-.214-1.15-.235-.33-.568-.554-1-.67-1.077-.29-1.776.164-2.097 1.355-.18.664-.42 1.67-.728 3.02s-.547 2.36-.727 3.033c-.09.34-.245.856-.465 1.555-.22.697-.373 1.212-.46 1.544-.113.422-.04.81.222 1.162.247.317.58.532 1.004.646 1.094.292 1.838-.297 2.232-1.77.03-.13.076-.31.132-.546.055-.236.096-.403.122-.5l.562-2.06c.544.147.845.23.903.255.256.07.645.807 1.164 2.216.486 1.304.758 2.22.816 2.755.09.75.504 1.227 1.243 1.425.4.106.785.09 1.155-.055.434-.17.707-.464.82-.887.166-.618.01-1.59-.47-2.916-.435-1.24-.962-2.292-1.58-3.153.224-.143.452-.328.683-.558.313-.354.623-.707.93-1.062.555-.596.93-.867 1.13-.814.352.098.68.056.972-.124s.492-.442.584-.79zM175 89.307c-.477-.283-.98-.355-1.508-.215-.254.066-.79.476-1.607 1.225-.818.75-1.555 1.21-2.21 1.384-1.155.306-2.157.27-3.01-.1-.898-.39-1.483-1.1-1.755-2.13-.273-1.035-.178-2.38.287-4.03.49-1.71 1.112-2.664 1.866-2.862 1.184-.316 2.132-.32 2.844-.025s1.278.393 1.7.28c.557-.145.96-.467 1.205-.96.234-.46.29-.93.162-1.41-.232-.88-1.264-1.44-3.096-1.68-1.505-.187-2.766-.148-3.783.12-2.075.548-3.583 2.212-4.523 4.993-.832 2.44-.992 4.632-.48 6.58.56 2.112 1.776 3.612 3.653 4.5 1.78.837 3.748.972 5.9.403.94-.247 2.064-.905 3.373-1.973 1.463-1.2 2.093-2.183 1.89-2.946-.127-.487-.43-.873-.907-1.155zm14.588-5.2c-1.29-1.115-2.558-1.958-3.807-2.53.16-.305.3-.66.41-1.066.128-.597.25-1.194.36-1.79.24-1.026.49-1.573.748-1.64.46-.12.797-.377 1.014-.77.215-.39.264-.81.145-1.263-.12-.46-.542-.77-1.264-.924-.6-.134-1.126-.143-1.576-.023-1.36.36-2.25 1.49-2.67 3.39-.3 1.327-.474 2.03-.523 2.12-.284.544-.952.95-2 1.217-.477-1.602-.808-2.76-.997-3.474-.14-.527-.466-.912-.98-1.153-.476-.22-.992-.257-1.55-.11-1.4.37-1.896 1.327-1.487 2.873.227.86.604 2.15 1.13 3.863s.9 3.007 1.132 3.878c.116.44.275 1.124.478 2.05.202.925.36 1.603.474 2.033.142.548.475.937.995 1.165.48.198.995.225 1.544.08 1.42-.374 1.877-1.516 1.374-3.424-.045-.166-.11-.4-.2-.7s-.152-.515-.187-.643l-.69-2.674c.706-.183 1.1-.28 1.18-.292.33-.087 1.245.494 2.736 1.743 1.383 1.153 2.278 2.01 2.688 2.57.586.79 1.357 1.057 2.316.804.52-.138.94-.405 1.264-.806.38-.465.496-.972.352-1.52-.213-.8-1.014-1.793-2.404-2.976zm19.6-2.708c-.146-.716-.267-1.25-.36-1.6-.268-1.02-.69-2.54-1.266-4.566-.576-2.024-1-3.546-1.268-4.563-.142-.537-.457-.94-.945-1.202s-1.026-.32-1.6-.17c-.85.224-1.51.863-1.978 1.92-1.415 3.165-2.236 4.99-2.466 5.47-.988 2.05-1.963 3.81-2.926 5.275l-1.622-5.554c-.508-1.73-.803-2.666-.883-2.81-.546-1.07-1.366-1.46-2.462-1.17-.606.16-1.052.47-1.336.94-.286.47-.355.98-.208 1.54l1.294 4.255c.842 2.792 1.604 5.484 2.29 8.078.156.597.53.995 1.115 1.196.502.16 1.027.17 1.575.024.734-.193 1.34-.68 1.812-1.46s1.23-1.86 2.27-3.243c1.143-1.535 2.3-3.77 3.473-6.71.207.586.38 1.148.523 1.686.154.587.357 1.478.61 2.673.252 1.192.456 2.083.61 2.67.143.54.457.94.945 1.203s1.026.318 1.613.163c.58-.152 1.016-.464 1.31-.934.295-.47.37-.974.23-1.512-.09-.35-.21-.883-.36-1.6zm15.146-.936c-.465-1.05-.91-2.097-1.41-3.15-.55-1.165-1.145-2.298-1.736-3.433.233.838.543 1.943.938 3.353l-5.328 1.405c.59-2.72.483-5.788-.322-9.197.387-.08 1.055-.256 1.96-.51-.64-1.07-1.304-2.12-1.978-3.16-.145.03-.27.06-.432.094-.68.143-1.142.246-1.387.31-2.1.554-2.89 1.794-2.38 3.72.514 1.96.82 3.568.91 4.83.124 1.78-.087 3.4-.632 4.862-.56.17-.98.47-1.255.895-.296.467-.37.983-.22 1.55.09.343.205.815.343 1.417.136.603.25 1.08.345 1.432.458 1.73 1.39 2.41 2.8 2.04.587-.155 1.026-.465 1.317-.93.29-.464.362-.975.216-1.532-.05-.186-.126-.45-.228-.796s-.174-.596-.215-.752c1.236-.43 1.894-.656 1.973-.678l6.713-1.772zm-181.486 59.22c-.367-.047-.71.053-1.032.3s-.507.566-.557.962c-.03.19.1.665.39 1.424.28.76.39 1.387.33 1.877-.11.865-.407 1.535-.89 2.01-.51.502-1.15.705-1.92.607-.777-.097-1.66-.528-2.65-1.293-1.025-.8-1.5-1.48-1.43-2.044.11-.888.365-1.53.76-1.932.398-.4.616-.76.656-1.073.052-.42-.056-.78-.323-1.08-.247-.285-.55-.45-.91-.495-.66-.083-1.32.463-1.98 1.64-.54.966-.857 1.83-.953 2.593-.195 1.554.52 3.03 2.147 4.425 1.425 1.23 2.866 1.938 4.324 2.12 1.585.2 2.93-.215 4.046-1.244 1.054-.98 1.682-2.27 1.885-3.886.09-.703-.05-1.645-.414-2.822-.414-1.32-.908-2.012-1.48-2.084zM47.314 93.3c1.158-.62 1.983-.993 2.476-1.118.693-.18 1.084-.63 1.175-1.35.05-.387-.018-.745-.2-1.073-.212-.386-.523-.6-.934-.655-.6-.075-1.49.196-2.67.814-1.102.57-2.02 1.2-2.75 1.89-.16-.19-.362-.38-.61-.57-.37-.246-.74-.49-1.11-.73-.63-.444-.932-.762-.91-.952.044-.347-.04-.646-.244-.898s-.478-.4-.815-.442c-.346-.042-.67.16-.97.605-.256.37-.405.724-.447 1.062-.128 1.02.394 1.93 1.566 2.732.813.562 1.243.873 1.29.93.29.343.383.905.28 1.688-1.217-.116-2.09-.208-2.627-.275-.396-.05-.746.066-1.05.348-.278.265-.443.606-.496 1.023-.132 1.05.38 1.646 1.54 1.79.645.083 1.62.18 2.923.29 1.303.113 2.28.21 2.933.293.33.04.835.12 1.517.235.684.115 1.186.193 1.508.233.41.053.764-.066 1.06-.356.265-.273.423-.614.475-1.024.134-1.063-.514-1.685-1.943-1.864-.124-.017-.3-.035-.528-.057s-.39-.038-.485-.05l-2-.264c.065-.528.106-.82.12-.88.03-.25.673-.71 1.925-1.378zm-2.365 34.572c-.606-.075-1.496.196-2.676.814-1.106.568-2.023 1.197-2.75 1.888-.162-.192-.366-.382-.61-.568-.37-.248-.742-.492-1.114-.732-.63-.444-.93-.762-.907-.952.043-.345-.038-.644-.245-.896-.206-.253-.478-.4-.815-.443-.345-.043-.668.158-.97.604-.255.367-.404.722-.446 1.06-.13 1.02.393 1.93 1.565 2.73.815.565 1.245.876 1.29.934.292.346.385.908.28 1.69-1.215-.114-2.09-.206-2.625-.273-.394-.05-.744.065-1.047.347-.28.264-.444.604-.497 1.02-.132 1.05.38 1.646 1.54 1.792.645.08 1.62.177 2.923.29 1.302.11 2.28.208 2.932.29.33.042.835.12 1.517.235.68.116 1.182.194 1.504.234.41.05.763-.068 1.06-.358.265-.27.423-.613.475-1.023.135-1.063-.513-1.686-1.942-1.865-.127-.016-.303-.034-.53-.056s-.39-.04-.486-.05l-2-.262c.066-.528.107-.82.122-.88.03-.248.673-.707 1.926-1.376 1.16-.62 1.984-.992 2.476-1.116.692-.18 1.083-.63 1.174-1.35.05-.388-.018-.746-.2-1.074-.213-.386-.524-.604-.935-.656zm.6-53.212c.284.036.712.08 1.282.134.57.054 1 .098 1.285.134.39.05.73-.044 1.02-.28.29-.234.46-.558.51-.968s-.033-.766-.256-1.065c-.222-.3-.527-.475-.916-.523L38.34 70.816c-.518.89-1.013 1.79-1.503 2.693 1 .13 2.37.31 4.164.55 2.02.27 3.537.47 4.55.6zm1.424 40.21c-.264-.033-.658-.098-1.182-.193-.524-.098-.918-.16-1.182-.195-.76-.097-1.907-.226-3.435-.39-1.528-.16-2.673-.29-3.436-.387-.404-.052-.76.052-1.07.31-.315.26-.498.605-.55 1.038-.08.638.17 1.258.76 1.86 1.76 1.822 2.77 2.876 3.03 3.162 1.12 1.23 2.042 2.368 2.774 3.42l-4.203-.416c-1.31-.13-2.023-.188-2.145-.17-.873.073-1.362.522-1.465 1.343-.057.455.034.842.273 1.162.24.32.567.508.985.56-.046-.005 1.033.09 3.235.285 2.12.193 4.15.41 6.094.656.447.057.82-.086 1.115-.43.246-.296.395-.65.446-1.06.07-.55-.094-1.092-.492-1.626s-.926-1.34-1.58-2.42c-.73-1.194-1.926-2.59-3.594-4.184.452.02.88.055 1.282.105.44.06 1.098.16 1.976.32.877.155 1.536.26 1.976.315.403.05.76-.053 1.072-.312.312-.26.496-.607.55-1.047.056-.433-.036-.812-.274-1.14-.24-.325-.56-.514-.962-.565zm6.394-41.72c-.227-.33-.527-.52-.9-.565-.367-.047-.788.075-1.264.365-.516.315-.802.692-.857 1.132-.05.382.037.738.255 1.07s.52.524.9.572c.373.047.798-.074 1.274-.364.516-.322.802-.703.857-1.144.05-.38-.04-.736-.267-1.066zm-.424 5.58c.05-.387-.035-.746-.25-1.074-.217-.33-.518-.518-.903-.566-.086-.01-.46.087-1.12.295-.73.228-1.13.35-1.196.362-.635.122-1.645.095-3.03-.08-.59-.073-1.1-.158-1.534-.254s-.792-.198-1.072-.31c-.172-.19-.39-.305-.65-.338-.625-.08-1.243.406-1.854 1.453-.507.867-.805 1.648-.893 2.345-.227 1.818.205 3.46 1.298 4.922s2.52 2.306 4.29 2.527c1.882.237 3.352-.025 4.41-.79 1.056-.764 1.695-2.03 1.92-3.796.043-.36.016-.806-.085-1.34-.1-.533-.27-1.158-.507-1.873.745-.65 1.138-1.144 1.18-1.482zm-3.226 4.51c-.086.703-.4 1.2-.94 1.49-.54.29-1.3.372-2.28.248-1.027-.13-1.883-.617-2.57-1.463s-.967-1.767-.84-2.764c.01-.08.037-.17.084-.28s.117-.233.208-.37c.367.11.7.205 1 .276.3.07.567.12.8.15.867.11 2.186.164 3.958.164.248.395.422.806.52 1.23.1.428.12.867.064 1.32zm1.246 17.357c-.28-.034-.665-.076-1.157-.123-.495-.047-.884-.09-1.17-.125-.85-.11-1.393.35-1.627 1.38-2.4-.27-3.74-.418-4.02-.45-.315-.04-.782-.12-1.4-.24-.617-.12-1.083-.2-1.4-.238-.77-.097-1.328-.093-1.676.012-.58.173-.917.626-1.01 1.358-.03.242-.058.64-.082 1.196-.025.555-.056.972-.09 1.25-.038.294-.1.69-.19 1.19s-.144.84-.167 1.022c-.2 1.568.425 2.443 1.87 2.626 1.465.183 2.64.416 3.52.7 1.237.4 2.276.984 3.12 1.753-.04.427.047.792.262 1.095.236.326.566.517.99.57.257.032.608.083 1.054.154.446.07.8.122 1.064.155 1.296.165 2.012-.28 2.145-1.337.055-.44-.035-.82-.27-1.146-.235-.323-.56-.512-.98-.564-.14-.017-.34-.04-.6-.063-.26-.027-.45-.047-.57-.063.048-.954.074-1.46.08-1.52l.715-5.662c.795.13 1.39.145 1.78.045.623-.15.978-.575 1.066-1.27.056-.44-.035-.823-.273-1.147-.24-.325-.567-.514-.985-.566zm-4.96 8.176c-1.68-1.142-3.785-1.906-6.313-2.29.078-.424.18-1.286.306-2.588.16.02.598.098 1.31.232.575.11 1.01.183 1.302.22.183.022 1.482.168 3.9.435l-.505 3.99zM108.33 214.91c-.936-.938-1.872-1.666-2.81-2.18.143-.228.27-.495.38-.805.13-.457.26-.913.383-1.368.247-.782.47-1.192.672-1.23.364-.067.64-.247.83-.538.19-.297.253-.62.187-.977-.067-.364-.377-.627-.927-.79-.458-.138-.866-.175-1.222-.108-1.076.198-1.832 1.023-2.268 2.474-.31 1.01-.485 1.55-.53 1.612-.253.407-.794.685-1.624.83-.27-1.27-.46-2.188-.57-2.753-.074-.418-.31-.735-.69-.95-.356-.2-.755-.258-1.2-.176-1.105.206-1.545.92-1.32 2.144.128.68.346 1.7.65 3.06s.53 2.384.66 3.073c.064.35.15.888.25 1.618.104.73.187 1.266.25 1.606.033.18.11.328.197.47.62.194 1.235.398 1.858.582.99-.265 1.375-1.09 1.11-2.518-.025-.132-.064-.316-.116-.556-.053-.238-.09-.408-.107-.51l-.38-2.114c.56-.104.87-.157.93-.16.265-.05.94.454 2.024 1.51 1.006.975 1.65 1.69 1.937 2.15.41.646.993.897 1.75.757.41-.077.753-.26 1.028-.55.32-.34.444-.73.36-1.16-.112-.635-.676-1.45-1.686-2.45zm-12.888-2.7c.208-.343.278-.704.207-1.083-.13-.697-.9-1.19-2.31-1.482-1.157-.233-2.138-.276-2.943-.127-1.64.306-2.908 1.51-3.798 3.613-.216.508-.38.997-.517 1.478.947.45 1.894.898 2.853 1.32.084-.432.204-.89.386-1.39.48-1.298 1.018-2.002 1.614-2.113.94-.173 1.675-.123 2.21.15.535.272.97.378 1.3.316.443-.08.773-.307.993-.676zm28.253 1.734c-.073-.563-.135-.984-.187-1.263-.15-.8-.39-2.01-.72-3.61-.33-1.604-.57-2.81-.718-3.614-.08-.426-.3-.755-.664-.988-.364-.232-.774-.307-1.23-.222-.673.125-1.22.583-1.643 1.374-1.28 2.375-2.024 3.743-2.23 4.102-.884 1.533-1.742 2.84-2.574 3.926l-.94-4.403c-.297-1.37-.47-2.115-.52-2.233-.36-.864-.98-1.215-1.846-1.054-.48.09-.844.307-1.092.653s-.33.74-.25 1.18c-.008-.045.246 1.08.76 3.38.492 2.216.928 4.35 1.31 6.4.087.474.353.804.796.994.38.153.79.19 1.222.11.58-.108 1.078-.45 1.49-1.028.414-.577 1.063-1.373 1.95-2.386.975-1.13 2.003-2.797 3.082-5.008.126.466.23.91.308 1.337.086.462.193 1.165.32 2.11.126.94.232 1.64.32 2.105.078.426.3.755.663.988.363.232.777.306 1.242.22.456-.085.812-.302 1.068-.65.255-.347.344-.733.265-1.16-.05-.277-.113-.7-.186-1.262zm-26.985 4.158c-.354-.246-.74-.33-1.158-.254-.137.025-.393.176-.75.43.844.313 1.683.64 2.535.93 0-.052.02-.106.013-.155-.073-.388-.286-.704-.64-.95zm69.864-13.525c.434-.08.766-.282.998-.605.232-.324.31-.69.234-1.102l-2.287-12.32c-.08-.41-.288-.727-.626-.95-.338-.22-.72-.29-1.145-.213-.426.08-.757.283-.99.61s-.315.698-.24 1.108c.198 1.068.487 2.673.864 4.813.377 2.14.665 3.744.863 4.812.055.303.147.752.28 1.348.13.597.222 1.046.28 1.348.074.41.28.725.61.943.337.22.72.283 1.153.203zm2.028 2.507c-.072-.387-.332-.775-.78-1.164-.487-.423-.964-.59-1.428-.504-.403.074-.737.276-1.005.606s-.368.696-.29 1.1c.07.395.33.786.78 1.176.493.42.974.588 1.44.5.4-.073.732-.28.994-.616s.356-.703.284-1.098zm-5.457-.27c-.468-.667-.72-1.032-.756-1.098-.33-.604-.63-1.64-.9-3.104-.12-.62-.2-1.167-.24-1.64-.047-.47-.058-.867-.038-1.187.14-.24.185-.498.133-.774-.123-.654-.815-1.124-2.077-1.41-1.044-.23-1.934-.28-2.67-.14-1.92.355-3.445 1.325-4.577 2.91-1.13 1.582-1.523 3.307-1.177 5.173.37 1.99 1.113 3.397 2.23 4.223 1.12.826 2.612 1.065 4.478.72.38-.07.825-.244 1.335-.52.51-.274 1.088-.647 1.737-1.12.902.545 1.53.784 1.888.718.41-.075.747-.276 1.01-.603.266-.326.36-.692.283-1.1-.018-.09-.24-.44-.663-1.042zm-4.934.44c-.4.238-.84.4-1.32.49-.74.14-1.35-.02-1.813-.473-.47-.45-.8-1.194-.99-2.23-.203-1.085.016-2.113.652-3.084.636-.972 1.48-1.555 2.532-1.75.086-.016.19-.018.318-.005.126.013.273.043.443.09.004.41.018.776.043 1.105.024.328.06.615.105.863.17.913.543 2.27 1.117 4.07-.32.38-.682.69-1.082.927zm-18.79 6.16c-.11-.515-.193-.924-.25-1.226-.166-.897-.81-1.3-1.93-1.203-.51-2.524-.79-3.934-.844-4.23-.062-.33-.133-.83-.213-1.497-.08-.666-.15-1.165-.21-1.498-.15-.813-.338-1.38-.558-1.7-.36-.532-.93-.727-1.704-.583-.254.047-.67.148-1.24.303s-1.005.26-1.3.313c-.31.057-.73.122-1.267.193s-.9.125-1.094.16c-1.657.308-2.345 1.225-2.06 2.75.285 1.548.43 2.814.43 3.8-.01 1.388-.267 2.632-.774 3.735-.445.1-.787.31-1.024.628-.257.345-.343.74-.26 1.19.05.27.11.644.184 1.118.07.476.133.853.185 1.13.254 1.372.94 1.953 2.054 1.746.462-.086.82-.3 1.073-.644.253-.344.338-.736.256-1.178-.027-.146-.07-.357-.13-.63s-.1-.473-.122-.597c.985-.263 1.51-.4 1.57-.41l5.98-1.11c.127.85.304 1.456.53 1.822.357.586.904.81 1.64.67.464-.084.82-.3 1.075-.65.25-.345.337-.74.255-1.18-.054-.292-.137-.697-.248-1.213zm-9.66-1.172c.617-2.077.71-4.46.28-7.152.457-.06 1.366-.237 2.73-.53.03.17.094.64.19 1.406.073.62.14 1.083.196 1.393.036.19.31 1.56.82 4.1l-4.214.78zm19.52-4.933c-.935-.94-1.87-1.67-2.81-2.188.145-.226.27-.494.38-.803.13-.457.26-.913.385-1.368.248-.783.473-1.193.674-1.23.362-.067.64-.247.83-.54.19-.29.252-.614.186-.97-.066-.364-.375-.628-.926-.79-.46-.14-.867-.175-1.224-.11-1.075.2-1.83 1.026-2.267 2.477-.31 1.01-.486 1.55-.53 1.612-.25.407-.795.684-1.624.83-.275-1.27-.466-2.188-.57-2.753-.078-.418-.31-.736-.694-.953-.356-.197-.755-.256-1.196-.174-1.108.206-1.548.92-1.32 2.144.126.68.343 1.702.652 3.062.307 1.36.525 2.384.654 3.072.065.35.15.888.253 1.617s.186 1.264.25 1.604c.08.434.315.755.706.962.36.18.76.23 1.193.15 1.12-.208 1.542-1.066 1.263-2.576-.025-.13-.063-.313-.115-.552-.052-.238-.087-.408-.106-.51l-.38-2.115c.56-.103.868-.155.932-.16.264-.05.938.455 2.022 1.51 1.005.977 1.65 1.693 1.937 2.15.407.648.99.9 1.75.76.41-.077.753-.26 1.026-.553.324-.34.444-.728.36-1.16-.114-.635-.68-1.45-1.69-2.448zm-30.5-73.59c.074-.12.14-.26.198-.42.068-.24.135-.478.2-.715.128-.408.245-.622.35-.642.19-.035.334-.128.433-.28s.13-.32.097-.507c-.035-.19-.196-.328-.483-.413-.24-.072-.45-.09-.637-.057-.56.105-.955.535-1.182 1.29-.16.527-.253.808-.276.84-.13.214-.415.357-.847.434-.142-.66-.24-1.14-.295-1.434-.04-.22-.16-.386-.36-.498-.188-.105-.396-.135-.626-.09-.576.104-.805.477-.69 1.114.07.355.18.888.34 1.597s.278 1.24.34 1.6c.038.183.08.464.135.844.054.38.098.66.13.836.042.227.165.394.37.5.187.097.395.12.62.08.586-.11.806-.556.66-1.343-.013-.068-.033-.165-.06-.29s-.046-.212-.056-.265l-.2-1.103c.29-.056.45-.08.486-.086.137-.024.488.238 1.054.79.523.507.86.88 1.01 1.12.21.336.516.467.91.394.214-.04.39-.137.535-.288.167-.177.23-.38.188-.604-.06-.33-.355-.757-.882-1.277-.486-.49-.973-.87-1.46-1.137zm29.635-3.658c-.172-.315-.328-.854-.47-1.617-.06-.324-.1-.608-.124-.854-.022-.245-.03-.45-.02-.62.074-.123.098-.26.07-.4-.063-.344-.424-.59-1.082-.735-.544-.122-1.008-.147-1.39-.076-1.002.187-1.797.692-2.387 1.52-.59.823-.795 1.722-.615 2.694.193 1.037.58 1.77 1.164 2.2.58.43 1.357.556 2.33.375.197-.04.43-.13.695-.273.266-.143.567-.338.906-.584.47.284.798.41.983.374.215-.04.39-.145.527-.314.14-.17.185-.36.145-.573-.01-.043-.124-.225-.345-.54-.24-.35-.37-.54-.39-.572zm-2.178.8c-.208.125-.438.21-.688.257-.388.07-.704-.01-.948-.247s-.417-.625-.52-1.165c-.103-.567.01-1.1.34-1.608.33-.507.774-.81 1.32-.912.047-.01.1-.01.168-.002.065.005.143.02.23.046.003.213.01.404.022.575.012.17.03.32.054.45.09.475.282 1.182.58 2.12-.165.2-.353.36-.562.482zm-32.05 5.655c-.184-.13-.385-.174-.603-.134-.103.02-.332.17-.685.447s-.666.443-.936.494c-.477.088-.882.044-1.215-.132-.353-.186-.568-.49-.647-.913-.08-.43 0-.97.236-1.62.25-.68.53-1.047.84-1.105.49-.09.872-.064 1.15.078.28.142.506.197.68.165.23-.04.4-.16.517-.35.11-.18.145-.37.108-.567-.066-.36-.467-.62-1.2-.77-.603-.122-1.114-.145-1.534-.066-.854.16-1.514.786-1.98 1.883-.41.96-.54 1.84-.39 2.644.16.873.61 1.516 1.34 1.93.696.394 1.487.508 2.375.343.39-.07.863-.304 1.424-.696.626-.44.91-.82.853-1.132-.038-.204-.15-.37-.333-.496zm37.058-6.35c-.254-.22-.5-.308-.743-.263-.21.04-.385.145-.524.316s-.19.363-.15.573c.038.206.174.41.407.613.258.217.508.305.75.26.21-.04.383-.147.52-.32s.186-.368.147-.574c-.04-.2-.175-.403-.41-.606zm-23.092 3.523c-.077-.42-.202-1.046-.374-1.883s-.298-1.465-.376-1.885c-.04-.222-.155-.394-.345-.515s-.404-.16-.64-.113c-.353.064-.638.304-.858.716-.666 1.238-1.054 1.95-1.16 2.138-.46.8-.91 1.48-1.343 2.048l-.49-2.295c-.154-.71-.245-1.1-.27-1.16-.19-.45-.51-.634-.96-.55-.25.046-.44.16-.57.34-.13.18-.17.386-.13.615l.396 1.76c.258 1.156.485 2.268.684 3.337.044.247.183.42.414.52.2.08.41.1.637.06.305-.058.564-.236.78-.537.214-.3.553-.715 1.014-1.243.51-.587 1.043-1.456 1.606-2.61.065.244.12.477.16.698.045.242.1.608.167 1.1.066.49.122.856.167 1.1.04.22.157.393.346.514.19.123.406.16.647.117.238-.046.424-.16.558-.34.134-.18.18-.383.14-.604-.027-.146-.06-.364-.098-.658-.04-.296-.07-.515-.1-.66zm22.445-4.222c.225-.04.398-.144.52-.313.12-.168.162-.36.122-.573l-1.193-6.42c-.04-.215-.146-.38-.322-.495-.177-.118-.375-.155-.598-.114-.222.042-.395.147-.517.318s-.164.365-.124.58c.104.56.253 1.395.45 2.51.196 1.115.347 1.95.45 2.51.028.156.077.39.146.7.065.313.114.546.144.704.04.214.146.377.32.49s.372.15.6.108zm-10.48.29c.075-.12.142-.26.2-.42.068-.238.135-.476.2-.713.127-.408.244-.622.35-.642.188-.035.333-.13.433-.28.1-.152.13-.32.098-.507-.035-.19-.196-.326-.483-.41-.236-.073-.45-.092-.635-.058-.56.103-.956.533-1.183 1.29-.16.525-.253.806-.275.84-.133.21-.414.355-.847.432-.143-.662-.242-1.14-.297-1.435-.04-.218-.16-.384-.36-.497-.187-.103-.396-.133-.625-.09-.576.106-.805.48-.687 1.116.065.355.18.888.34 1.596.16.71.274 1.243.34 1.603.035.182.08.462.133.843.052.38.095.66.13.837.04.226.163.393.37.5.185.095.393.12.62.08.584-.11.803-.557.66-1.344l-.06-.288c-.03-.125-.05-.213-.06-.266l-.197-1.103c.29-.054.45-.082.485-.084.136-.026.487.236 1.054.786.523.51.86.882 1.01 1.12.212.338.516.47.91.396.215-.04.394-.136.536-.287.167-.178.23-.38.188-.604-.06-.33-.353-.754-.88-1.273-.487-.49-.975-.87-1.464-1.137zm-3.803 3.68c-.085-.47-.42-.678-1.004-.628-.265-1.314-.41-2.05-.44-2.202-.03-.174-.07-.434-.11-.78-.04-.348-.077-.608-.11-.78-.08-.425-.174-.72-.29-.887-.19-.274-.484-.376-.89-.302-.13.023-.35.075-.644.156-.3.08-.523.135-.677.163-.16.03-.38.062-.66.1s-.47.065-.57.084c-.864.16-1.22.64-1.075 1.434.15.807.224 1.467.224 1.98-.005.723-.14 1.372-.403 1.947-.23.05-.41.16-.534.325-.133.18-.178.385-.135.62.026.14.06.335.097.582.037.247.07.443.097.588.133.715.49 1.018 1.07.91.24-.045.43-.157.56-.336.13-.18.177-.385.134-.614l-.068-.33s-.052-.246-.063-.31c.513-.138.785-.21.817-.215l3.115-.58c.066.444.158.76.277.95.185.306.47.42.853.35.242-.044.43-.156.56-.34.132-.18.176-.384.134-.614-.03-.152-.073-.363-.13-.632s-.11-.482-.137-.64zm-4.902.027c.32-1.083.37-2.325.147-3.728.235-.03.71-.125 1.42-.278.015.09.05.33.097.73.04.323.074.565.104.727l.43 2.14-2.198.407zm102.43-19.16l-.575 1.073c-1.073 2-2.134 3.9-3.184 5.705-.243.415-.26.84-.045 1.272.187.364.472.658.853.88.51.297 1.11.36 1.8.194.442-.107 1.034-.22 1.743-.338-.075-2.9-.257-5.825-.597-8.786zm-13.36-7.67c.386.227.783.27 1.19.135.382-.123.67-.353.864-.686.356-.612.097-1.488-.78-2.627-.724-.935-1.44-1.607-2.147-2.02-1.444-.84-3.19-.753-5.236.26-1.8.885-3.094 2.004-3.882 3.358-.855 1.47-1.01 2.964-.465 4.484.52 1.44 1.526 2.595 3.023 3.47.653.38 1.634.634 2.94.77 1.467.14 2.355-.055 2.664-.586.197-.34.243-.718.136-1.136-.108-.42-.346-.735-.713-.95-.177-.102-.696-.172-1.56-.21s-1.52-.187-1.977-.453c-.803-.468-1.336-1.038-1.6-1.71-.28-.71-.212-1.422.204-2.137.42-.722 1.21-1.408 2.375-2.062 1.21-.67 2.076-.853 2.6-.55.824.48 1.35 1 1.577 1.555.23.558.49.92.782 1.09zm10.485 5.956c.698-.43 1.136-.595 1.312-.49.32.185.645.23.98.133.102-.03.184-.09.27-.14-.11-.798-.206-1.593-.335-2.395-.068-.057-.133-.124-.204-.166-.944-.55-2.056-.42-3.332.397-.894.564-1.378.856-1.453.876-.455.145-1.046 0-1.77-.43.62-1.143 1.074-1.963 1.364-2.46.213-.367.244-.76.095-1.174-.143-.383-.407-.688-.795-.913-.975-.566-1.774-.31-2.4.763-.35.6-.85 1.516-1.503 2.748s-1.156 2.155-1.51 2.76c-.178.308-.466.77-.863 1.39-.397.62-.684 1.08-.857 1.38-.223.38-.253.78-.092 1.19.158.375.427.67.808.895.986.574 1.866.198 2.64-1.13.066-.115.158-.28.274-.495s.2-.368.252-.456l1.09-1.852c.49.286.76.447.81.486.232.135.415.956.55 2.464.125 1.393.146 2.357.063 2.893-.11.756.165 1.327.832 1.716.36.21.74.294 1.138.25.465-.046.81-.26 1.03-.642.325-.558.43-1.545.315-2.96-.097-1.322-.33-2.483-.705-3.485.255-.08.526-.2.81-.36.4-.262.793-.525 1.184-.79z" opacity=".502"/><path fill="#FFF" d="M145.142 155.623c.588 0 1.077-.178 1.468-.535.39-.356.585-.81.585-1.358 0-1.908-.723-2.862-2.17-2.862-.567 0-1.056.176-1.466.527-.41.353-.62.798-.62 1.337 0 .116.02.285.066.507.042.22.063.38.063.49 0 .55.195 1 .586 1.354.39.357.883.535 1.48.535zm.1 4.54c-.56 0-1.045.168-1.46.505-.433.367-.65.82-.65 1.36 0 2.254.747 3.382 2.24 3.382.59 0 1.08-.18 1.476-.542.395-.36.592-.817.592-1.366 0-2.227-.733-3.34-2.198-3.34z"/><path fill="#E77800" d="M128 135h-23c-3.313 0-6 2.687-6 6v35c0 3.313 2.687 6 6 6h23c3.313 0 6-2.687 6-6v-35c0-3.313-2.687-6-6-6zm-40 0H65c-3.313 0-6 2.687-6 6v35c0 3.313 2.687 6 6 6h23c3.313 0 6-2.687 6-6v-35c0-3.313-2.687-6-6-6zm99 0h-23c-3.313 0-6 2.687-6 6v35c0 3.313 2.687 6 6 6h23c3.313 0 6-2.687 6-6v-35c0-3.313-2.687-6-6-6zm40 0h-23c-3.313 0-6 2.687-6 6v35c0 3.313 2.687 6 6 6h11.235c9.03-11.764 15.13-25.227 17.765-39.84V141c0-3.313-2.687-6-6-6z"/><path fill="#FFF" d="M82.278 151.048c-1.523-2.226-3.662-3.34-6.418-3.34-2.91 0-5.204 1.25-6.88 3.745-1.398 2.08-2.097 4.5-2.097 7.257 0 3.23.53 5.864 1.59 7.907 1.436 2.757 3.75 4.135 6.94 4.135 2.93 0 5.126-1.074 6.59-3.224 1.466-2.15 2.198-5.373 2.198-9.67 0-2.66-.64-4.93-1.92-6.81zm-3.31 13.8c-.79 1.44-1.977 2.16-3.557 2.16-1.884 0-3.19-1.026-3.9-3.08-.442-1.27-.663-3.083-.663-5.435 0-1.783.414-3.35 1.243-4.698.943-1.552 2.196-2.327 3.757-2.327 1.436 0 2.513.573 3.23 1.72.72 1.147 1.078 2.872 1.078 5.176 0 2.88-.394 5.042-1.185 6.483zm43.31-13.8c-1.523-2.226-3.662-3.34-6.418-3.34-2.91 0-5.204 1.25-6.88 3.745-1.398 2.08-2.097 4.5-2.097 7.257 0 3.23.53 5.864 1.59 7.907 1.436 2.757 3.75 4.135 6.94 4.135 2.93 0 5.126-1.074 6.59-3.224 1.466-2.15 2.198-5.373 2.198-9.67 0-2.66-.64-4.93-1.92-6.81zm-3.31 13.8c-.79 1.44-1.977 2.16-3.557 2.16-1.884 0-3.19-1.026-3.9-3.08-.442-1.27-.663-3.083-.663-5.435 0-1.783.414-3.35 1.243-4.698.943-1.552 2.196-2.327 3.757-2.327 1.436 0 2.513.573 3.23 1.72.72 1.147 1.078 2.872 1.078 5.176 0 2.88-.394 5.042-1.185 6.483zm64.31-13.8c-1.523-2.226-3.663-3.34-6.42-3.34-2.91 0-5.204 1.25-6.88 3.745-1.4 2.08-2.097 4.5-2.097 7.257 0 3.23.53 5.864 1.59 7.907 1.44 2.757 3.75 4.135 6.94 4.135 2.93 0 5.13-1.074 6.595-3.224 1.465-2.15 2.197-5.373 2.197-9.67 0-2.66-.64-4.93-1.923-6.81zm-3.31 13.8c-.79 1.44-1.976 2.16-3.557 2.16-1.884 0-3.19-1.026-3.9-3.08-.44-1.27-.662-3.083-.662-5.435 0-1.783.414-3.35 1.242-4.698.944-1.552 2.196-2.327 3.76-2.327 1.435 0 2.51.573 3.23 1.72s1.075 2.872 1.075 5.176c0 2.88-.394 5.042-1.185 6.483z"/><path fill="#BE301D" d="M221.482 157.894c-1.32-1.258-3.185-1.887-5.594-1.887-.376 0-.788.048-1.236.145s-.933.245-1.453.448c.39-.83 1.03-1.677 1.92-2.545l2.384-2.183c1.117-1.07 1.667-1.846 1.647-2.327-.02-.51-.23-.947-.635-1.31-.406-.36-.873-.54-1.403-.54-.463 0-1.046.312-1.75.938-.5.473-1.002.95-1.503 1.432-3.99 3.44-5.984 7.508-5.984 12.2 0 2.507.52 4.53 1.56 6.072 1.303 1.927 3.316 2.89 6.044 2.89 2.45 0 4.41-.78 5.886-2.34 1.397-1.494 2.096-3.407 2.096-5.74 0-2.245-.66-3.997-1.98-5.253zm-2.992 8.564c-.693.85-1.672 1.272-2.935 1.272-1.233 0-2.16-.455-2.775-1.366-.617-.91-.925-2.276-.925-4.1 0-.336.02-.702.058-1.098.8-.48 1.35-.785 1.647-.91.568-.23 1.21-.347 1.923-.347 1.34 0 2.342.27 3.007.81.665.534.998 1.344.998 2.424 0 1.398-.333 2.5-.998 3.31z"/></svg>