<svg xmlns="http://www.w3.org/2000/svg" width="440" height="298" viewBox="0 0 440 298"><path fill="#ECECEC" d="M427.667 6.667h-414c-2.76 0-5 2.238-5 5v276c0 2.762 2.24 5 5 5h414c2.762 0 5-2.238 5-5v-276c0-2.762-2.24-5-5-5z"/><path fill="#D1D1D1" d="M427.667 6.167h-414c-2.76 0-5 2.238-5 5l.625 21.375 423.125.125.25-21.5c0-2.762-2.24-5-5-5z"/><path d="M119.747 82.377c1.67 0 3.31-.68 4.922-2.04.3-.257.452-.56.452-.904 0-.31-.114-.586-.343-.826-.246-.258-.545-.387-.896-.387-.234 0-.58.152-1.037.457-.68.463-1.126.75-1.337.86-.596.306-1.185.458-1.765.458-.598 0-1.11-.23-1.538-.686s-.643-1.01-.643-1.65c0-1.4.677-2.902 2.03-4.51.967-1.146 1.82-1.72 2.558-1.72.376 0 .607.02.695.062.116.053.233.21.35.475.253.556.643.834 1.17.834.422 0 .744-.157.967-.474.17-.24.255-.508.255-.8 0-.657-.05-1.23-.15-1.724-.14-.686-.51-1.028-1.11-1.028-.362 0-.673.125-.93.377-.158-.034-.34-.06-.55-.08s-.44-.024-.698-.024c-1.522 0-3.014.867-4.473 2.602-1.72 2.043-2.577 4.05-2.577 6.01 0 1.254.435 2.344 1.3 3.27.91.96 2.02 1.44 3.34 1.44zm6.934-7.32c.28.11.717.166 1.31.166h.787c.105 2.238.158 3.76.158 4.562 0 .205-.008.518-.025.937s-.027.73-.027.936c0 .316.13.577.387.782.24.193.52.29.834.29.856 0 1.284-.656 1.284-1.97 0-1.083-.062-2.94-.185-5.57.105-.013.2-.02.29-.02.158 0 .394.01.708.023s.55.02.71.02c.358 0 .65-.11.876-.333s.34-.498.34-.826c0-.785-.57-1.178-1.715-1.178h-5.194c-.35 0-.636.116-.856.347-.22.232-.33.506-.33.822 0 .498.22.835.656 1.01zm9.366 6.556c.938.732 2.068 1.1 3.393 1.1 1.645 0 2.973-.687 3.98-2.058.85-1.16 1.274-2.45 1.274-3.867 0-2.777-1.57-4.166-4.71-4.166-1.64 0-2.99.677-4.052 2.03-.925 1.178-1.39 2.476-1.39 3.894.003 1.253.504 2.276 1.506 3.067zm1.898-5.56c.58-.746 1.26-1.12 2.04-1.12.85 0 1.425.126 1.727.378s.453.75.453 1.48c0 .945-.262 1.777-.783 2.498-.54.75-1.19 1.125-1.944 1.125-.69 0-1.258-.173-1.7-.52s-.665-.793-.665-1.344c0-.915.29-1.746.87-2.49zm9.766-5.03c.69.52 1.496.78 2.416.78 1.096 0 2.042-.15 2.84-.456 1.09-.41 1.675-1.05 1.757-1.916.028-.27-.05-.5-.238-.68s-.445-.273-.773-.273c-.505 0-.83.23-.977.686-.205.64-1.075.958-2.61.958-.387 0-.732-.107-1.037-.324-.305-.21-.457-.46-.457-.747 0-.24-.1-.44-.29-.603s-.434-.242-.72-.242-.527.083-.717.244-.285.36-.285.6c0 .78.362 1.44 1.09 1.978zm-1.97 10.51c0 .358.15.637.45.836.256.16.55.24.877.24.44 0 .85-.183 1.23-.55.38-.364.964-.86 1.75-1.48.866-.69 1.845-1.77 2.935-3.242.03.357.044.697.044 1.02 0 .352-.018.88-.053 1.587s-.053 1.233-.053 1.585c0 .322.117.594.352.813s.526.33.88.33c.344 0 .634-.11.87-.33s.35-.49.35-.813c0-.21.012-.527.035-.95s.035-.737.035-.948c0-.61-.014-1.523-.037-2.742s-.035-2.133-.035-2.742c0-.32-.118-.59-.353-.81-.234-.22-.524-.33-.87-.33-.51 0-.973.26-1.39.782-1.26 1.565-1.988 2.465-2.187 2.7-.855 1.002-1.66 1.843-2.417 2.522l-.086-3.35c-.03-1.042-.056-1.61-.08-1.704-.145-.68-.547-1.02-1.203-1.02-.362 0-.66.11-.887.33s-.343.495-.343.83c0-.036.032.822.097 2.574.06 1.687.09 3.307.09 4.86zm11.645-3.058c0 .31.107.568.322.773.213.205.484.308.812.308s.6-.103.81-.308c.214-.205.32-.463.32-.773V69.15c0-.31-.11-.57-.324-.777s-.486-.312-.81-.312-.59.11-.808.317-.326.467-.326.777c0 .81-.01 2.02-.02 3.64-.017 1.617-.023 2.83-.023 3.64 0 .23.006.57.02 1.023.016.454.023.795.023 1.023zm1.11 4.272c.304 0 .575-.105.81-.316.24-.21.357-.46.357-.76 0-.293-.14-.612-.413-.96-.3-.374-.626-.56-.978-.56-.304 0-.576.102-.816.307s-.36.46-.36.765c0 .3.14.62.414.967.306.372.634.56.986.56zm20.354-6.065c-.014.258-.02.554-.02.888 0 .428.02 1.07.06 1.925.035.855.055 1.497.055 1.925 0 .316.127.585.38.805s.55.33.895.33c.34 0 .625-.113.854-.336.23-.23.344-.5.344-.826 0-.43-.03-1.07-.096-1.925s-.096-1.494-.096-1.924c0-.56.03-1.39.09-2.49s.087-1.93.087-2.49c0-.164.017-.42.05-.764.03-.344.048-.6.048-.764 0-.32.06-.69.178-1.12.023-.09.035-.18.035-.268 0-.335-.13-.615-.387-.84-.24-.205-.517-.308-.827-.308-.417 0-.79.364-1.117 1.093-.264.592-.4 1.116-.413 1.572-.055 1.733-.093 2.8-.116 3.196-.956.034-2.093.17-3.41.403l-3.376.632c-.006-.205.01-.5.044-.888.04-.417.062-.698.062-.845 0-.446.016-1.115.05-2.01.03-.893.047-1.562.047-2.01 0-.32-.113-.593-.342-.815s-.513-.334-.853-.334-.623.11-.852.327c-.23.217-.342.483-.342.798 0 .734-.016 1.837-.05 3.31s-.054 2.575-.054 3.308c0 .577-.052 1.44-.153 2.59-.104 1.15-.154 2.015-.154 2.592 0 .312.113.58.342.796.23.22.514.327.854.327s.624-.104.853-.312.342-.46.342-.762c0-.486.03-1.113.087-1.88.07-.868.11-1.49.122-1.86 1.126-.212 2.25-.42 3.376-.625 1.352-.245 2.488-.39 3.408-.43zm5.342 4.887c.89.663 2.036 1 3.437 1 .92 0 1.79-.18 2.61-.53.98-.42 1.466-.967 1.466-1.635 0-.593-.305-.89-.914-.89-.293 0-.683.145-1.17.432-.544.32-1.21.482-1.994.482-.518 0-.975-.077-1.37-.23s-.74-.38-1.02-.686l2.96-1.31c.99-.44 1.65-.773 1.98-1.002.72-.498 1.08-1.07 1.08-1.714 0-.914-.444-1.588-1.33-2.02-.674-.33-1.52-.493-2.54-.493-1.47 0-2.64.57-3.507 1.705-.777 1.025-1.167 2.28-1.167 3.762 0 1.343.492 2.383 1.476 3.12zm1.802-5.92c.387-.363.853-.545 1.397-.545.634 0 1.147.11 1.54.333-.47.305-1.1.636-1.89.993-.657.28-1.316.566-1.98.854.235-.728.546-1.273.933-1.636zm14.897 0c1.4 2.473 2.424 4.345 3.068 5.616-1.243 2.683-1.864 4.297-1.864 4.842 0 .327.127.6.38.816s.544.324.878.324c.54 0 .915-.274 1.126-.825.264-.716.457-1.255.58-1.618.393-1.008.964-2.276 1.714-3.806 1.383-2.847 2.394-4.936 3.032-6.266.1-.206.148-.394.148-.563 0-.32-.13-.593-.387-.815s-.55-.334-.878-.334c-.44 0-.786.21-1.038.634-.4.66-.807 1.43-1.223 2.302-.135.287-.516 1.125-1.143 2.514-1.107-2.227-2.077-3.894-2.91-5-.216-.29-.518-.432-.904-.432-.33 0-.62.12-.87.36s-.38.52-.38.835c0 .222.08.468.24.737.147.23.29.453.43.676zm19.117 5.757c0-.234-.097-.47-.29-.71l-2.68-3.28 1.344-1.248c.527-.47.958-.848 1.29-1.135.61-.594.915-1.08.915-1.46 0-.306-.125-.57-.374-.79s-.53-.336-.85-.336c-.385 0-.704.18-.956.535-.27.382-.715.842-1.336 1.38-.5.423-1 .845-1.504 1.267l-1.406-1.81c-.732-.84-1.307-1.258-1.723-1.258-.322 0-.6.117-.83.354-.232.237-.348.51-.348.812 0 .316.15.6.456.853.357.3.738.717 1.143 1.256.333.457.664.914.992 1.37-.756.74-1.312 1.287-1.67 1.645-.387.33-.773.66-1.16.994-.48.44-.72.83-.72 1.17 0 .304.12.57.363.8s.524.342.84.342c.323 0 .613-.135.87-.404.165-.178.405-.398.72-.66.998-.91 1.733-1.6 2.208-2.075 1.213 1.493 2.083 2.527 2.61 3.102.258.28.55.422.88.422.315 0 .597-.115.843-.344s.37-.496.37-.8zm2.497.202c.938.73 2.068 1.1 3.393 1.1 1.646 0 2.974-.688 3.98-2.06.85-1.16 1.275-2.45 1.275-3.866 0-2.777-1.57-4.166-4.71-4.166-1.64 0-2.99.677-4.052 2.03-.925 1.18-1.39 2.476-1.39 3.894.003 1.253.504 2.276 1.506 3.067zm1.898-5.56c.58-.747 1.26-1.12 2.04-1.12.85 0 1.425.125 1.728.377.3.254.453.746.453 1.48 0 .942-.26 1.774-.783 2.495-.54.75-1.187 1.125-1.942 1.125-.69 0-1.26-.174-1.7-.52-.443-.346-.664-.794-.664-1.345 0-.914.29-1.745.87-2.49zm8.19 8.415c.354 0 .645-.11.877-.327.23-.217.346-.49.346-.826 0-.11-.002-.27-.008-.48-.007-.208-.01-.358-.01-.452.756-.06 1.157-.088 1.204-.088h4.527c-.023.64.023 1.107.14 1.406.183.476.552.713 1.11.713.35 0 .642-.11.874-.33.23-.22.348-.495.348-.83 0-.222-.006-.53-.018-.922s-.02-.703-.02-.932c0-.68-.415-1.06-1.247-1.142-.03-1.916-.045-2.985-.045-3.208 0-.252.016-.627.05-1.125.03-.497.047-.872.047-1.124 0-.615-.06-1.055-.177-1.318-.195-.44-.585-.66-1.17-.66-.194 0-.51.02-.95.054s-.77.053-.993.053c-.233 0-.552-.01-.953-.03s-.674-.033-.82-.033c-1.254 0-1.88.577-1.88 1.73 0 1.173-.068 2.12-.203 2.84-.192 1.014-.55 1.89-1.07 2.628-.34.012-.62.117-.836.316-.234.218-.352.496-.352.836 0 .205-.006.486-.018.844s-.018.643-.018.854c.002 1.037.424 1.555 1.267 1.555zm3.66-9.503c.34.018 1.027.012 2.064-.018 0 .13-.017.48-.052 1.054-.03.463-.043.812-.043 1.046 0 .147.015 1.185.044 3.112h-3.19c.733-1.436 1.126-3.167 1.18-5.195zm6.617 6.566c0 .357.15.636.447.835.258.163.55.245.88.245.438 0 .85-.183 1.23-.55.38-.364.963-.86 1.748-1.48.867-.69 1.846-1.77 2.936-3.242.03.357.044.697.044 1.02 0 .352-.018.88-.053 1.587s-.053 1.233-.053 1.585c0 .322.117.594.352.813s.526.33.88.33c.344 0 .634-.11.87-.33s.35-.49.35-.812c0-.21.012-.527.035-.95s.035-.737.035-.948c0-.61-.013-1.523-.036-2.742s-.035-2.133-.035-2.742c0-.322-.12-.593-.355-.813-.234-.22-.524-.33-.87-.33-.51 0-.973.262-1.39.783-1.26 1.564-1.988 2.464-2.187 2.698-.856 1.003-1.66 1.844-2.418 2.523l-.086-3.35c-.03-1.04-.056-1.61-.08-1.705-.145-.68-.547-1.02-1.203-1.02-.36 0-.66.11-.886.33s-.343.495-.343.83c0-.036.03.822.097 2.574.057 1.687.087 3.307.087 4.86zm12.752 1.213c.304 0 .574-.104.812-.315.236-.21.355-.465.355-.764 0-.292-.14-.61-.414-.957-.3-.375-.624-.562-.976-.562-.304 0-.576.104-.816.31s-.36.46-.36.765c0 .297.14.62.414.965.305.374.633.56.985.56zm-1.11-4.27c0 .31.106.57.32.773.214.205.485.308.813.308s.6-.102.813-.307c.212-.205.32-.463.32-.773v-9.32c0-.31-.11-.57-.326-.777s-.484-.312-.81-.312-.59.11-.806.317-.325.467-.325.777c0 .81-.01 2.02-.022 3.64s-.02 2.83-.02 3.64c0 .23.006.57.02 1.023s.024.795.024 1.023zM127.69 140.23c0-.088-.01-.223-.026-.404s-.026-.316-.026-.404c0-.223.02-.554.062-.993s.062-.77.062-.99c0-.45-.205-.728-.615-.84l-.3-.15c.07-2.652.105-4.475.105-5.465 0-.61-.01-1.527-.026-2.755s-.027-2.145-.027-2.755c0-.252-.087-.46-.25-.624s-.38-.244-.63-.244c-.195 0-.365.05-.51.15-.09.005-.33.017-.73.034-.306.02-.55.026-.74.026-2.11 0-3.6.003-4.473.01s-1.31.3-1.31.887c0 .2.033.518.1.954s.1.77.1.997c0 3.234-.617 6.188-1.853 8.86-.768.08-1.15.37-1.15.87 0 .04.01.098.03.17s.03.125.03.154c0 .27-.005.67-.017 1.206-.01.537-.017.94-.017 1.21 0 .25.083.46.247.623s.37.244.622.244.46-.08.622-.244.247-.374.247-.626c0 .157.01-.476.034-1.9.954 0 2.407-.01 4.36-.034s3.402-.035 4.357-.035c-.06.65-.087 1.07-.087 1.26 0 .515.037.88.113 1.1.13.385.398.58.81.58.25 0 .46-.084.627-.248s.25-.372.25-.624zm-2.545-6.544c-.038 1.152-.057 2.053-.057 2.703-1.066-.036-1.772-.05-2.118-.05-.45 0-1.192.014-2.224.05-.955.035-1.696.05-2.224.044.504-1.078.92-2.514 1.248-4.307.293-1.636.44-3.11.44-4.42 0-.606-.004-.986-.01-1.145.955-.023 1.61-.035 1.97-.035 2.144 0 3.14.003 2.987.01.028 3.18.043 4.663.043 4.446.002.65-.017 1.553-.056 2.703zm11.993 3.635c-.31-.77-.495-1.29-.554-1.544-.105-.422-.155-.996-.15-1.723.007-.796.026-1.45.058-1.96s.078-.875.136-1.1c.117-.12.176-.262.176-.42 0-.463-.398-.86-1.195-1.187-.636-.264-1.207-.396-1.717-.396-1.354 0-2.518.5-3.494 1.51s-1.463 2.22-1.463 3.64c0 1.5.295 2.61.887 3.34.627.77 1.626 1.16 2.997 1.16.288 0 .646-.08 1.073-.234.428-.156.923-.386 1.485-.69.13.188.324.4.59.642.29.257.493.386.604.386.217 0 .407-.076.57-.23s.247-.345.247-.58l-.053-.148c-.09-.207-.16-.362-.2-.467zm-2.997-.525c-.39.205-.87.308-1.43.308-.68 0-1.19-.24-1.53-.72s-.51-1.2-.51-2.162c0-.966.33-1.82.99-2.56s1.444-1.113 2.35-1.113c.096 0 .22.026.376.08s.34.134.558.245c-.063.336-.112.65-.144.947s-.05.57-.05.82c0 .773.095 1.937.28 3.49-.38.334-.675.557-.886.67zm7.78-7.44c-.47.174-.952.433-1.46.778.016-.15.036-.32.066-.5.018-.14.026-.237.026-.29 0-.234-.08-.432-.233-.594-.156-.16-.348-.24-.577-.24-.332 0-.587.17-.763.517-.152.287-.23.64-.23 1.055l.133 1.786c.07 1.055.11 2.224.13 3.507v3.507l-.027 3.514c0 .258.08.47.242.633s.368.245.62.245.458-.082.62-.246.242-.376.242-.634l.017-4.2c.703.187 1.348.28 1.934.28 1.2 0 2.163-.434 2.884-1.3.68-.82 1.02-1.864 1.02-3.13 0-1.39-.22-2.505-.66-3.35-.554-1.065-1.433-1.6-2.634-1.6-.43 0-.878.088-1.347.26zm2.53 2.294c.26.53.39 1.326.39 2.393 0 .757-.166 1.37-.5 1.847-.387.545-.946.817-1.68.817-.64 0-1.276-.123-1.915-.37 0-1.464-.038-2.86-.114-4.19.474-.452.866-.763 1.177-.933.434-.24.92-.36 1.46-.36.526 0 .92.265 1.18.794zm7.66 4.862c.604-.515 1.216-1.17 1.837-1.97.322-.414.84-1.15 1.556-2.204.113.65.17 1.335.17 2.056 0 .38-.02.95-.054 1.706s-.054 1.324-.054 1.705c0 .247.083.453.25.62.168.168.377.25.63.25.245 0 .45-.082.62-.25.165-.167.25-.373.25-.62 0-.23.01-.567.034-1.02s.034-.79.034-1.02c0-.65-.01-1.63-.033-2.94s-.034-2.29-.034-2.94c0-.25-.083-.46-.25-.622-.167-.163-.373-.245-.62-.245-.392 0-.76.23-1.106.694-1.337 1.775-2.154 2.85-2.453 3.217-.96 1.19-1.884 2.173-2.77 2.952l-.104-4.366c-.03-1.065-.05-1.643-.062-1.73-.08-.562-.37-.844-.87-.844-.584 0-.88.3-.88.895 0-.046.035.87.1 2.75.06 1.813.088 3.553.088 5.223 0 .252.103.454.308.606.188.134.41.2.668.2.34 0 .665-.16.976-.482.384-.403.976-.942 1.773-1.616zm17.604-5.23c-.075-.467-.113-.707-.113-.72-.223-1.165-.627-1.75-1.213-1.75-.457 0-.8.27-1.028.81-.194.62-.326 1.094-.397 1.416-.52 1.604-1.15 3.187-1.89 4.745-.55-1.534-.954-2.935-1.212-4.2-.222-1.107-.433-1.843-.632-2.206-.17-.31-.425-.466-.765-.466-.31 0-.57.12-.782.36-.25.28-.49.86-.71 1.74l-.44 1.935c-.035.147-.31.956-.826 2.427-.35.983-.525 1.812-.525 2.486 0 .474.274.71.825.71.364 0 .625-.166.783-.5.21-.732.34-1.29.387-1.67.415-1.424.737-2.487.966-3.19l.23-.914c.393 1.61.826 3.08 1.3 4.403.288.784.464 1.227.528 1.326.182.27.428.404.738.404.377 0 .673-.158.89-.475.193-.28.38-.653.56-1.116l.46-1.16c.655-1.53 1.14-2.696 1.45-3.5.403 2.028.72 3.402.95 4.123.12.44.212.78.27 1.027.246.897.62 1.346 1.125 1.346.21 0 .405-.06.58-.184s.265-.28.265-.475c0-.104-.223-.8-.664-2.082-.44-1.282-.81-2.832-1.102-4.648zm17.826-1.923c-.007-1.32-.46-2.445-1.363-3.377-.855-.88-1.822-1.317-2.9-1.317-1.4 0-2.53.35-3.393 1.046-1.007.82-1.51 2.047-1.51 3.682 0 1.384.49 2.45 1.476 3.2.81.615 1.766.923 2.873.923.323 0 .742-.08 1.258-.237s.94-.33 1.27-.518l-.38.756c-.434.885-.914 1.567-1.44 2.048s-1.246.905-2.154 1.274l-1.468.5c-.398.177-.598.438-.598.783 0 .234.075.44.23.615.153.176.35.264.59.264.41 0 1.14-.253 2.19-.757.943-.445 1.63-.826 2.057-1.143 1.025-.763 1.837-1.9 2.435-3.41.556-1.4.83-2.846.826-4.334zm-1.83 1.21c-.61.45-1.03.74-1.266.87-.51.28-1 .42-1.467.42-.81 0-1.48-.206-2.013-.622-.603-.474-.904-1.142-.904-2.003.005-1.025.255-1.793.75-2.303s1.235-.764 2.22-.764c.633 0 1.255.347 1.868 1.044.61.696.92 1.41.927 2.144 0 .3-.037.702-.114 1.212zm11.99 3.12c.556-1.4.83-2.845.825-4.333-.006-1.32-.46-2.444-1.362-3.376-.854-.88-1.82-1.32-2.9-1.32-1.4 0-2.53.35-3.392 1.048-1.006.82-1.51 2.048-1.51 3.683 0 1.384.49 2.45 1.477 3.2.81.615 1.767.923 2.874.923.32 0 .74-.08 1.257-.237s.938-.33 1.266-.518l-.378.756c-.434.885-.914 1.567-1.44 2.048s-1.246.907-2.154 1.276l-1.467.5c-.398.177-.598.438-.598.783 0 .234.077.44.233.615.154.176.353.264.593.264.41 0 1.14-.253 2.19-.757.942-.444 1.63-.825 2.056-1.142 1.025-.76 1.836-1.897 2.434-3.41zm-2.27-2.25c-.51.28-1 .42-1.47.42-.807 0-1.477-.206-2.01-.622-.605-.474-.906-1.142-.906-2.003.007-1.025.257-1.793.753-2.303.494-.51 1.234-.764 2.22-.764.632 0 1.254.347 1.867 1.044.61.696.92 1.41.927 2.144 0 .3-.04.702-.113 1.212-.61.45-1.03.74-1.266.87zm9.703-3.032c.598-.438.896-1.016.896-1.73 0-.855-.24-1.556-.72-2.1-.507-.563-1.184-.845-2.03-.845-.58 0-1.16.25-1.734.748-.598.52-.896 1.07-.896 1.645 0 .826.22 1.506.66 2.04.475.567 1.12.852 1.94.852.723 0 1.35-.203 1.883-.607zm-3.014-2.285c0-.24.124-.456.376-.65.234-.175.486-.263.756-.263.434 0 .76.123.976.366s.324.61.324 1.103c0 .27-.145.483-.44.65-.256.14-.543.21-.86.21-.374 0-.657-.12-.847-.358-.193-.235-.287-.59-.287-1.06zm10.52 11.313c.572-.598.86-1.345.86-2.24 0-.78-.33-1.42-.994-1.917-.598-.446-1.295-.67-2.092-.67-.855 0-1.54.306-2.057.915-.492.568-.738 1.286-.738 2.153 0 .795.272 1.442.823 1.94.527.475 1.19.712 1.986.712.9 0 1.633-.3 2.207-.897zm-3.544-1.758c0-.453.108-.825.325-1.118.24-.317.57-.476.995-.476.393 0 .747.09 1.063.272.362.216.544.494.544.834 0 .557-.115.975-.346 1.253-.232.28-.582.418-1.05.418-.51 0-.893-.1-1.147-.3-.256-.195-.383-.49-.383-.884zm-5.467 2.75c.272 0 .492-.156.656-.467.41-.88.706-1.543.888-1.994l1.97-4.15 1.74-3.734.623-1.424c.245-.58.477-1.046.693-1.397.106-.164.16-.31.16-.44 0-.2-.078-.372-.23-.522-.158-.147-.335-.223-.534-.223-.193 0-.38.1-.562.298-.264.288-.554.82-.87 1.6l-2.373 5.274c-.23.54-.72 1.563-1.476 3.068-.64 1.277-1.102 2.312-1.39 3.103-.034.105-.052.202-.052.29 0 .205.078.377.233.514.156.136.33.205.524.205zm24.39-1.477c0-.222-.08-.42-.24-.593-.16-.173-.347-.26-.563-.26-.076 0-.202.047-.378.14l-1.02.546c-.4.188-.775.28-1.127.28-.773 0-1.406-.207-1.898-.623-.528-.446-.792-1.056-.792-1.83 0-.715.267-1.562.8-2.54.586-1.066 1.178-1.6 1.775-1.6.782 0 1.35.138 1.693.413.117.1.238.2.364.303s.274.154.444.154c.218 0 .4-.087.546-.26s.22-.37.22-.594c0-.497-.448-.92-1.345-1.265-.71-.27-1.35-.4-1.924-.4-1.102 0-2.092.703-2.97 2.11-.792 1.265-1.188 2.492-1.188 3.682 0 1.25.42 2.254 1.264 3.016.803.727 1.805 1.09 3.006 1.09.52 0 1.18-.176 1.97-.527.902-.4 1.353-.81 1.353-1.24zm9.243.546c0-.5-.33-1.237-.993-2.216-.644-.956-1.26-1.64-1.845-2.058.223-.182.425-.44.606-.773.03-.06.168-.356.414-.89.352-.786.69-1.18 1.02-1.18.398 0 .598-.23.598-.693 0-.21-.145-.38-.44-.51-.227-.1-.446-.15-.657-.15-.668 0-1.228.47-1.68 1.407l-.368.844c-.316.59-.832.91-1.547.957h-.642c-.04-1.3-.062-2.165-.062-2.593 0-.235-.085-.43-.255-.58s-.377-.23-.623-.23c-.604 0-.905.38-.905 1.134 0 .562.02 1.4.063 2.514s.062 1.948.062 2.505c0 .28-.012.716-.035 1.306-.024.59-.036 1.02-.036 1.298 0 .24.086.434.26.58s.382.22.628.22c.48 0 .768-.237.86-.712.03-.135.045-.683.045-1.644 0-.233 0-.58.007-1.036.006-.49.01-.834.01-1.027h1.054c.216.006.696.533 1.44 1.582.697.99 1.123 1.692 1.28 2.11.153.414.437.622.847.622.23 0 .436-.073.62-.22.182-.147.275-.337.275-.57zm8.578.306c0 .246.085.45.25.62.17.167.378.25.63.25.246 0 .45-.083.62-.25.166-.17.25-.374.25-.62 0-.23.01-.57.035-1.02s.035-.79.035-1.02c0-.65-.01-1.63-.034-2.94s-.035-2.29-.035-2.94c0-.25-.083-.46-.25-.623-.17-.164-.373-.246-.62-.246-.392 0-.76.23-1.106.695-1.336 1.774-2.153 2.85-2.452 3.216-.96 1.19-1.883 2.174-2.77 2.953l-.103-4.368c-.03-1.066-.05-1.644-.064-1.73-.082-.563-.372-.845-.87-.845-.586 0-.88.3-.88.896 0-.047.033.87.098 2.75.06 1.81.09 3.55.09 5.22 0 .254.103.456.308.608.19.136.41.203.67.203.34 0 .664-.16.975-.484.387-.403.98-.94 1.775-1.616.604-.514 1.216-1.17 1.837-1.97.32-.413.84-1.15 1.555-2.203.11.65.168 1.336.168 2.057 0 .38-.017.95-.052 1.705s-.053 1.326-.053 1.707zm5.055 2.42c.164-.16.246-.37.246-.63 0-.102-.005-.322-.017-.656-.006-.27-.006-.49 0-.66.158-.005.42-.025.782-.06.334-.036.592-.054.773-.054h4.876v.377c-.006.2-.01.34-.01.42 0 .96.303 1.44.906 1.44.253 0 .46-.08.625-.246s.246-.37.246-.624c0-.24-.004-.6-.016-1.077s-.018-.836-.018-1.076c0-.586-.417-.88-1.25-.88 0-.204-.01-.796-.025-1.774-.01-.727-.016-1.318-.016-1.775 0-.265.016-.66.05-1.19.03-.53.047-.93.047-1.2 0-.57-.034-.956-.104-1.16-.135-.388-.43-.58-.888-.58-.193 0-.51.02-.95.057s-.77.057-.992.057c-.234 0-.553-.012-.953-.035-.402-.024-.676-.036-.822-.036-.55 0-.942.11-1.177.336s-.352.606-.352 1.15c0 1.296-.08 2.33-.236 3.104-.21 1.065-.615 2.02-1.213 2.864-.28-.035-.52.028-.715.19-.198.16-.296.384-.296.67 0 .224-.007.555-.02.994s-.017.77-.017.994c0 .867.305 1.3.914 1.3.256 0 .464-.082.628-.242zm2.69-9.574c.38.023 1.303.023 2.768 0 0 .258-.018.644-.053 1.156s-.052.896-.052 1.147c0 .44.005 1.017.017 1.73.023.903.035 1.48.035 1.73h-3.62c-.2 0-.374.007-.52.02.95-1.734 1.423-3.66 1.423-5.783zm14.392 7.418c.183-.146.275-.337.275-.57 0-.5-.33-1.237-.992-2.216-.643-.955-1.26-1.64-1.844-2.057.223-.18.425-.44.606-.772.03-.06.168-.353.414-.887.353-.786.69-1.18 1.02-1.18.4 0 .6-.23.6-.693 0-.21-.147-.38-.44-.51-.23-.1-.448-.15-.66-.15-.667 0-1.227.47-1.68 1.407l-.367.844c-.318.593-.834.91-1.55.96h-.64c-.04-1.3-.063-2.166-.063-2.594 0-.235-.085-.43-.255-.58s-.376-.23-.622-.23c-.603 0-.904.38-.904 1.134 0 .562.02 1.4.06 2.514s.063 1.95.063 2.506c0 .28-.014.716-.037 1.306-.02.59-.033 1.02-.033 1.297 0 .24.087.433.26.58.173.145.383.22.63.22.48 0 .767-.238.86-.713.03-.135.044-.683.044-1.644 0-.233.002-.58.008-1.036.006-.49.01-.834.01-1.027h1.054c.216.006.696.533 1.44 1.582.697.99 1.123 1.692 1.28 2.11s.436.622.847.622c.226 0 .432-.074.62-.22zm10.603-8.183c0-.25-.082-.46-.25-.623s-.373-.245-.62-.245c-.392 0-.76.23-1.106.695-1.336 1.775-2.153 2.85-2.452 3.217-.96 1.19-1.883 2.174-2.77 2.953l-.103-4.367c-.03-1.066-.05-1.644-.064-1.73-.082-.563-.372-.845-.87-.845-.586 0-.88.3-.88.896 0-.047.033.87.098 2.75.06 1.81.088 3.55.088 5.22 0 .254.104.456.31.608.187.135.41.202.667.202.34 0 .664-.16.975-.484.387-.402.98-.94 1.775-1.615.606-.514 1.218-1.17 1.84-1.97.32-.413.84-1.15 1.555-2.203.11.65.168 1.335.168 2.056 0 .38-.017.95-.052 1.705s-.05 1.326-.05 1.707c0 .246.082.452.25.62.166.167.376.25.63.25.244 0 .45-.083.62-.25.165-.168.25-.374.25-.62 0-.23.01-.568.033-1.02s.033-.79.033-1.02c0-.65-.01-1.63-.034-2.94-.026-1.308-.037-2.288-.037-2.94zm5.64 7.275c-.15-.16-.33-.24-.54-.24-.253 0-.455.14-.607.42-.17.31-.412.83-.73 1.556-.36.84-.543 1.343-.543 1.513 0 .204.075.386.23.544s.33.238.534.238c.287 0 .498-.158.633-.475.832-1.864 1.248-2.866 1.248-3.007 0-.207-.076-.39-.225-.55zm11.694-1.605c.697.99 1.123 1.692 1.28 2.11.153.414.437.622.847.622.23 0 .437-.074.62-.22.186-.147.277-.338.277-.572 0-.498-.33-1.236-.993-2.215-.645-.954-1.26-1.64-1.846-2.056.222-.184.424-.44.605-.775.03-.06.17-.353.415-.887.352-.786.69-1.18 1.02-1.18.398 0 .598-.23.598-.693 0-.21-.146-.38-.44-.51-.228-.1-.447-.15-.658-.15-.668 0-1.228.47-1.68 1.408l-.368.844c-.317.59-.833.91-1.548.956h-.643c-.04-1.3-.06-2.165-.06-2.593 0-.234-.088-.43-.258-.58s-.376-.23-.622-.23c-.603 0-.904.38-.904 1.135 0 .563.02 1.4.062 2.515s.062 1.948.062 2.505c0 .28-.013.716-.036 1.306-.022.588-.034 1.02-.034 1.296 0 .24.085.434.26.58.17.146.38.22.627.22.48 0 .768-.237.86-.71.03-.137.045-.685.045-1.646 0-.235.003-.58.01-1.038.005-.492.008-.835.008-1.028h1.055c.216.005.696.532 1.44 1.58zm12.252-5.23c.076-.164.114-.31.114-.44 0-.233-.093-.436-.276-.605-.186-.17-.397-.254-.638-.254-.305 0-.55.166-.738.494-.435.755-.886 1.657-1.355 2.706l-1.3 3.03c-1.144-2.554-2.213-4.522-3.21-5.905-.145-.206-.353-.31-.623-.31-.23 0-.436.09-.62.273-.185.18-.277.39-.277.63 0 .18.08.407.237.677l.396.642 3.145 6.055c-1.262 2.808-1.894 4.504-1.894 5.09 0 .24.09.44.27.603.177.16.39.24.636.24.375 0 .64-.21.79-.633l.58-1.704c.4-1.08.974-2.417 1.724-4.017l3.04-6.575zm7.18.413c.99.01 1.6.017 1.828.017-.047 1.617-.07 2.49-.07 2.62 0 .474.038 1.18.114 2.117s.113 1.644.113 2.118c0 .252.08.46.247.624s.37.244.623.244c.257 0 .47-.082.632-.246s.248-.373.248-.625c0-.486-.04-1.204-.12-2.153-.077-.95-.117-1.665-.117-2.146 0-.38.016-.952.045-1.714s.043-1.332.043-1.713c0-.236-.085-.44-.26-.61-.17-.175-.374-.26-.61-.26-.502 0-1.26-.01-2.274-.024-1.013-.014-1.77-.02-2.275-.02-.215 0-.534.03-.956.09-.422.063-.738.094-.95.094-.32 0-.584.103-.785.31-.204.21-.305.475-.305.797 0 .545.036 1.358.11 2.44.07 1.08.11 1.893.11 2.437 0 .28-.03.703-.085 1.266s-.085.986-.085 1.273c0 .253.083.46.247.625s.372.246.624.246c.26 0 .47-.08.634-.245s.245-.373.245-.625c0-.286.025-.71.08-1.273s.077-.986.077-1.268c0-.528-.03-1.243-.088-2.146-.07-1.032-.11-1.75-.124-2.154.627-.082 1.043-.123 1.248-.123.475 0 1.087.007 1.837.02zm10.1 7.97c1.517 0 2.747-.683 3.69-2.048.81-1.178 1.213-2.49 1.213-3.938 0-2.736-1.455-4.104-4.36-4.104-1.52 0-2.77.675-3.76 2.022-.888 1.195-1.33 2.517-1.33 3.964 0 1.23.46 2.23 1.38 3.004.866.733 1.92 1.1 3.163 1.1zm-1.794-6.96c.657-.91 1.437-1.363 2.34-1.363.932 0 1.586.167 1.965.5.377.335.566.947.566 1.838 0 1.067-.277 2.02-.834 2.857-.606.91-1.35 1.363-2.24 1.363-.77 0-1.41-.208-1.92-.624-.533-.44-.8-1.01-.8-1.715 0-1.04.308-1.993.923-2.855zm16.296-2.444c0-.254-.082-.46-.246-.626s-.373-.246-.625-.246c-.258 0-.47.08-.633.245s-.246.372-.246.624c0 .303-.013.76-.036 1.36-.023.556-.035 1.01-.035 1.36v.572c-1.63-.064-3.165.07-4.606.404l-.035-1.714c-.013-.72-.02-1.292-.02-1.714 0-.26-.08-.468-.245-.63s-.377-.24-.635-.24c-.252 0-.46.08-.624.24s-.244.37-.244.63c0 .374-.003.92-.01 1.634v1.636c0 .352.01.88.027 1.587s.026 1.234.026 1.586c0 .21-.03.5-.084.865-.057.367-.084.655-.084.866 0 .26.083.47.247.635s.37.246.623.246c.26 0 .47-.08.63-.244.16-.165.24-.376.24-.634 0-.356.03-.85.09-1.476.06-.65.088-1.144.088-1.478 1.29-.316 2.626-.475 4.01-.475-.013 0 .2.01.632.027.03 1.72.043 2.81.043 3.26 0 .257.08.467.245.627.164.16.375.242.633.242.253 0 .46-.08.625-.244.164-.16.246-.37.246-.63 0-.64-.01-1.57-.034-2.79-.023-1.223-.035-2.152-.035-2.79 0-.317.013-.772.036-1.367s.036-1.046.036-1.357zm13.702 8.304c0 .258.082.468.246.628.164.162.375.243.633.243.25 0 .46-.08.62-.242.164-.16.246-.37.246-.626 0-.64-.013-1.57-.036-2.79-.024-1.224-.036-2.153-.036-2.79 0-.318.01-.773.034-1.368s.035-1.047.035-1.357c0-.253-.083-.46-.247-.625s-.372-.246-.624-.246c-.26 0-.47.08-.633.245s-.248.37-.248.623c0 .306-.01.76-.034 1.36-.024.56-.036 1.01-.036 1.365v.57c-1.63-.063-3.163.07-4.604.405-.006-.347-.018-.918-.035-1.715-.01-.72-.017-1.292-.017-1.714 0-.26-.082-.466-.246-.63s-.375-.24-.633-.24c-.253 0-.46.08-.625.24s-.246.37-.246.63c0 .376-.004.92-.01 1.636v1.635c0 .35.01.88.026 1.586s.028 1.235.028 1.587c0 .21-.028.5-.083.867-.056.366-.083.654-.083.865 0 .257.08.47.246.632s.372.246.624.246c.256 0 .465-.08.626-.245s.242-.376.242-.634c0-.358.028-.85.087-1.478.06-.65.087-1.144.087-1.478 1.29-.317 2.625-.476 4.008-.476-.01 0 .2.01.635.026.03 1.725.044 2.812.044 3.263zm11.47.905c.164-.152.246-.346.246-.58l-.053-.15c-.093-.204-.16-.36-.2-.465-.31-.773-.495-1.29-.554-1.547-.107-.422-.157-.996-.15-1.723.005-.797.023-1.45.06-1.96.03-.51.074-.876.133-1.1.118-.122.177-.263.177-.42 0-.464-.397-.86-1.194-1.188-.632-.264-1.203-.396-1.713-.396-1.356 0-2.52.505-3.496 1.51-.975 1.01-1.463 2.224-1.463 3.64 0 1.5.296 2.615.888 3.34.627.775 1.626 1.16 2.997 1.16.285 0 .643-.076 1.07-.23.427-.156.922-.386 1.484-.69.13.188.326.4.59.64.293.26.495.39.606.39.216 0 .407-.078.57-.23zm-3.006-1.723c-.392.205-.87.308-1.432.308-.68 0-1.188-.24-1.528-.72s-.51-1.202-.51-2.163c0-.967.33-1.82.99-2.562.658-.74 1.44-1.113 2.35-1.113.094 0 .218.026.374.08.154.052.34.134.558.245-.064.335-.113.65-.145.946-.033.296-.05.57-.05.82 0 .774.095 1.938.28 3.49-.38.335-.674.558-.885.67zm-237.25 24.52c0-.38.014-.952.043-1.714s.044-1.332.044-1.713c0-.235-.085-.44-.26-.61-.17-.174-.374-.26-.61-.26-.503 0-1.262-.008-2.275-.02s-1.77-.024-2.275-.024c-.218 0-.537.03-.96.092-.42.06-.737.092-.95.092-.32 0-.582.102-.785.31s-.302.473-.302.795c0 .545.038 1.358.11 2.438.074 1.082.11 1.895.11 2.44 0 .28-.027.702-.082 1.265s-.08.986-.08 1.273c0 .255.08.46.245.627s.372.246.624.246c.257 0 .47-.08.632-.245s.247-.373.247-.625c0-.286.025-.71.08-1.273s.077-.986.077-1.268c0-.527-.03-1.242-.087-2.145-.07-1.03-.11-1.75-.123-2.153.628-.082 1.044-.123 1.25-.123.474 0 1.086.007 1.836.02.99.012 1.6.02 1.83.02-.048 1.615-.07 2.49-.07 2.62 0 .472.037 1.18.113 2.115s.114 1.644.114 2.118c0 .252.082.46.246.624s.372.246.624.246c.258 0 .47-.082.633-.246s.245-.372.245-.624c0-.486-.04-1.204-.117-2.153s-.12-1.665-.12-2.145zm11.433-3.428c0-.254-.083-.46-.25-.626s-.374-.246-.62-.246c-.393 0-.762.23-1.107.693-1.337 1.777-2.154 2.85-2.453 3.22-.96 1.19-1.884 2.174-2.77 2.953l-.104-4.366c-.03-1.066-.05-1.644-.062-1.73-.08-.563-.37-.845-.87-.845-.583 0-.876.3-.876.896 0-.047.03.87.096 2.75.057 1.812.086 3.552.086 5.222 0 .252.103.454.308.606.19.135.41.202.67.202.34 0 .665-.16.976-.483.386-.403.978-.942 1.774-1.616.603-.518 1.215-1.174 1.836-1.97.323-.417.842-1.15 1.557-2.207.11.65.167 1.337.167 2.058 0 .38-.018.95-.053 1.707s-.05 1.325-.05 1.706c0 .246.083.452.25.62.167.166.376.25.628.25.246 0 .453-.084.62-.25.167-.168.25-.374.25-.62 0-.23.012-.568.035-1.02s.036-.79.036-1.02c0-.65-.013-1.63-.036-2.94s-.036-2.288-.036-2.94zm11.76 6.133c-.018-.48-.026-1.077-.026-1.792 0-.51.008-1.27.02-2.285s.02-1.775.02-2.285c0-.563-.32-.845-.972-.845-.223 0-.548.04-.976.123s-.75.122-.967.122c-.996 0-1.816-.014-2.46-.043-.095 0-.3-.013-.616-.036-.254-.016-.456-.024-.608-.024-.266 0-.487.08-.666.237s-.27.37-.27.634c0 .45.032 1.133.093 2.047s.09 1.6.09 2.057c0 .886-.036 1.504-.106 1.855-.135.615-.416.923-.844.923-.11 0-.275-.043-.49-.13s-.386-.133-.5-.133c-.226 0-.406.076-.544.23s-.207.336-.207.553c0 .41.194.727.59.95.325.18.71.27 1.15.27 1.13 0 1.873-.564 2.23-1.695.21-.685.316-1.953.316-3.805 0-.246-.003-.613-.01-1.104-.005-.487-.008-.853-.008-1.093.92.036 1.87.054 2.847.054.393 0 .782-.025 1.17-.078-.024 2.537-.036 3.715-.036 3.533 0 .744.01 1.354.026 1.83.006.14.026.396.062.77.03.33.043.59.043.783 0 .252.08.46.246.624s.37.246.622.246c.257 0 .468-.082.632-.246s.246-.372.246-.624c0-.2-.017-.47-.052-.81-.032-.39-.053-.66-.06-.806zm11.347-6.134c0-.253-.083-.46-.25-.625s-.374-.246-.62-.246c-.393 0-.762.23-1.107.693-1.336 1.776-2.153 2.85-2.452 3.218-.96 1.19-1.883 2.175-2.77 2.954l-.103-4.366c-.03-1.067-.05-1.645-.062-1.73-.082-.564-.372-.846-.87-.846-.586 0-.88.3-.88.896 0-.048.033.87.098 2.75.06 1.81.088 3.55.088 5.22 0 .253.104.455.31.607.187.135.41.202.667.202.34 0 .666-.16.977-.484.387-.402.98-.94 1.775-1.615.605-.516 1.217-1.172 1.838-1.97.322-.415.84-1.15 1.556-2.205.11.65.165 1.336.165 2.057 0 .38-.018.95-.053 1.705s-.053 1.325-.053 1.706c0 .247.083.453.25.62.167.167.376.25.63.25.244 0 .45-.083.62-.25.165-.167.25-.373.25-.62 0-.23.01-.567.033-1.02s.035-.79.035-1.02c0-.65-.013-1.63-.036-2.94s-.037-2.287-.037-2.94zm10.485-.58c0-.253-.084-.46-.248-.625s-.372-.246-.624-.246c-.26 0-.47.08-.634.245s-.246.372-.246.624c0 .304-.013.76-.036 1.36-.022.557-.034 1.01-.034 1.36v.573c-1.63-.064-3.165.07-4.606.404l-.036-1.714c-.013-.72-.02-1.292-.02-1.714 0-.26-.08-.468-.245-.63s-.376-.24-.634-.24c-.252 0-.46.08-.624.24s-.245.37-.245.63c0 .374-.004.92-.01 1.634v1.636c0 .352.01.88.026 1.587s.025 1.234.025 1.586c0 .21-.027.5-.083.866s-.082.652-.082.863c0 .26.083.47.247.634s.372.245.624.245c.26 0 .468-.08.63-.245.16-.164.24-.375.24-.633 0-.357.03-.85.09-1.477.06-.65.087-1.143.087-1.477 1.29-.315 2.626-.474 4.01-.474-.01 0 .2.01.633.026.03 1.72.043 2.81.043 3.26 0 .257.08.467.246.627.164.16.375.24.633.24.252 0 .46-.08.624-.242.163-.16.245-.37.245-.63 0-.64-.01-1.57-.034-2.79-.022-1.222-.034-2.152-.034-2.79 0-.317.014-.772.037-1.37.023-.59.035-1.042.035-1.353zm8.453-.423c-.135 0-.336.012-.603.035s-.467.035-.602.035c-.328 0-.825-.016-1.49-.05-.665-.03-1.16-.047-1.49-.047-1.353 0-2.03.434-2.03 1.3 0 .27.03.648.09 1.135.07.527.107.905.113 1.134.085 2.535.126 4.293.126 5.27 0 .25.082.46.246.623s.373.246.625.246c.258 0 .47-.083.633-.247s.246-.372.246-.624c0-1.01-.043-2.78-.13-5.32-.064-.796-.123-1.39-.176-1.783l.237-.01c.364-.006.874.01 1.53.044.72.04 1.233.063 1.538.063.626 0 1.048-.026 1.265-.08.48-.122.72-.403.72-.843 0-.25-.078-.46-.236-.63s-.36-.257-.606-.257zm12.015.21c-.43 0-.877.088-1.346.26s-.955.433-1.46.778c.013-.152.033-.32.063-.5.018-.142.026-.238.026-.29 0-.235-.08-.433-.23-.594-.156-.16-.348-.242-.576-.242-.333 0-.59.172-.764.52-.152.285-.23.637-.23 1.053l.133 1.785c.07 1.055.114 2.224.132 3.507v3.51l-.026 3.514c0 .258.08.47.24.633.16.163.367.245.62.245s.457-.082.62-.246c.16-.165.24-.376.24-.634l.02-4.2c.7.187 1.346.28 1.932.28 1.2 0 2.162-.434 2.883-1.3.68-.82 1.02-1.864 1.02-3.13 0-1.39-.22-2.505-.66-3.35-.556-1.066-1.435-1.6-2.636-1.6zm1.07 6.795c-.387.545-.946.817-1.68.817-.64 0-1.276-.125-1.915-.37 0-1.466-.038-2.86-.114-4.19.476-.454.87-.765 1.18-.935.433-.24.92-.36 1.46-.36.525 0 .92.266 1.18.796s.392 1.327.392 2.394c0 .755-.168 1.37-.502 1.845zm9.738-3.14c-.65-.35-1.658-.525-3.023-.525-.17 0-.396.006-.677.018-.076-1.09-.114-1.94-.114-2.55 0-.538-.3-.808-.904-.808-.57 0-.855.31-.855.932 0 .443.027 1.11.084 1.99.053.88.08 1.544.08 1.99 0 .702-.04 1.44-.123 2.205-.064.574-.097.923-.097 1.046 0 .813.3 1.22.896 1.22.028 0 .075-.005.14-.017l.07-.018h.08c.192 0 .485.01.878.026s.687.028.88.028c1.137 0 2.048-.205 2.733-.615.85-.504 1.274-1.283 1.274-2.338 0-1.247-.44-2.108-1.327-2.583zm-2.68 4.028c-.287 0-.67-.006-1.15-.018.11-1.4.163-2.286.157-2.655l-.01-.352c.4-.023.716-.035.95-.035.78 0 1.324.072 1.635.22.485.228.73.693.73 1.396 0 .96-.77 1.442-2.313 1.442zm8.437-.22c-.264 0-.557.012-.88.035-.028-.908-.043-1.497-.043-1.767 0 .176.03-1.236.088-4.236.23-.036.557-.054.984-.054.55 0 .827-.255.827-.765 0-.555-.276-.833-.827-.833-.25 0-.625.02-1.12.057-.495.038-.865.057-1.11.057-.153 0-.38-.005-.678-.02-.3-.014-.52-.02-.668-.02-.826 0-1.24.277-1.24.834 0 .527.268.79.8.79.083 0 .203-.012.36-.04.16-.024.28-.038.36-.038.265 0 .514.01.748.034l-.053 2.137c-.024.87-.036 1.57-.036 2.1 0 .144.015.797.044 1.96l-.613.08c-.826.12-1.24.398-1.24.837 0 .234.077.437.23.606s.343.254.57.254c.065 0 .136-.01.212-.026 1.22-.24 2.312-.36 3.285-.36.832 0 1.248-.265 1.248-.8 0-.544-.415-.82-1.247-.82zm9.765-12.278c-.353 0-.58.242-.687.73-.22.086-.65.133-1.28.14-.69 0-1.16.03-1.404.096-1.307.334-2.335 1.41-3.085 3.226-.61 1.477-.912 3.006-.912 4.588 0 1.642.274 2.942.825 3.903.656 1.148 1.664 1.723 3.023 1.723 1.26 0 2.262-.536 3.006-1.608.662-.943.993-2.074.993-3.393 0-1.225-.246-2.26-.738-3.103-.605-1.02-1.478-1.53-2.62-1.53-.885 0-1.63.218-2.24.65.37-1.024.702-1.7 1-2.03.545-.597 1.39-.895 2.54-.895.738 0 1.17-.02 1.3-.055.874-.264 1.31-.688 1.31-1.274 0-.275-.103-.54-.31-.79-.21-.254-.45-.38-.72-.38zm-4.967 7.724c.477-.78 1.13-1.17 1.97-1.17 1.23 0 1.847 1 1.847 2.998 0 .838-.18 1.535-.54 2.092-.43.656-1.04.984-1.837.984-.65 0-1.166-.276-1.547-.827-.34-.48-.51-1.06-.51-1.75 0-.89.204-1.664.614-2.326zm12.07 1.222c.223-.182.425-.44.606-.773.03-.06.167-.354.413-.888.354-.785.693-1.178 1.02-1.178.4 0 .6-.23.6-.696 0-.21-.146-.38-.44-.51-.23-.1-.447-.15-.66-.15-.666 0-1.226.47-1.677 1.407l-.37.845c-.315.592-.83.91-1.546.958h-.642c-.04-1.3-.062-2.165-.062-2.593 0-.235-.085-.43-.255-.58s-.38-.23-.625-.23c-.603 0-.904.38-.904 1.134 0 .562.02 1.4.062 2.514s.062 1.947.062 2.504c0 .28-.012.717-.035 1.306s-.037 1.02-.037 1.295c0 .24.086.434.26.58s.382.22.628.22c.48 0 .77-.237.86-.712.03-.133.046-.68.046-1.642 0-.236.003-.58.01-1.04.005-.49.008-.834.008-1.027h1.056c.22.007.7.534 1.44 1.583.7.99 1.126 1.693 1.28 2.11.156.415.44.623.85.623.23 0 .436-.074.62-.22.184-.147.276-.338.276-.57 0-.5-.33-1.238-.993-2.217-.647-.955-1.263-1.64-1.848-2.057zm11.83 4.096c-.31-.773-.495-1.29-.554-1.547-.105-.422-.155-.996-.15-1.723.007-.797.025-1.45.06-1.96.03-.51.076-.876.135-1.1.118-.122.177-.263.177-.42 0-.464-.4-.86-1.198-1.188-.634-.264-1.205-.396-1.715-.396-1.355 0-2.52.503-3.494 1.51-.976 1.01-1.463 2.222-1.463 3.64 0 1.5.295 2.613.887 3.34.627.773 1.626 1.16 2.997 1.16.288 0 .646-.078 1.073-.232.427-.156.922-.386 1.484-.69.13.188.325.4.59.642.292.258.494.387.605.387.216 0 .406-.076.57-.23s.246-.345.246-.58l-.052-.148c-.093-.21-.16-.364-.2-.47zm-2.997-.528c-.393.205-.87.308-1.433.308-.68 0-1.19-.24-1.53-.72s-.51-1.202-.51-2.163c0-.967.33-1.82.99-2.562s1.44-1.112 2.35-1.112c.094 0 .22.026.373.08s.342.134.56.245c-.065.337-.114.65-.146.948-.035.296-.05.57-.05.82 0 .774.093 1.938.28 3.49-.38.335-.678.558-.888.67zm14.484-5.51c-.08-.47-.117-.71-.117-.72-.222-1.167-.626-1.75-1.212-1.75-.456 0-.8.27-1.027.81-.192.62-.324 1.092-.395 1.414-.52 1.604-1.15 3.187-1.89 4.745-.55-1.535-.955-2.936-1.213-4.2-.222-1.108-.433-1.844-.632-2.207-.17-.31-.425-.466-.765-.466-.31 0-.57.12-.782.36-.25.28-.49.86-.71 1.74l-.44 1.934c-.035.146-.31.955-.826 2.426-.353.984-.528 1.813-.528 2.487 0 .472.275.71.826.71.362 0 .623-.168.78-.5.21-.734.34-1.29.387-1.67.416-1.426.738-2.49.967-3.19l.23-.916c.39 1.61.824 3.08 1.3 4.403.286.784.462 1.227.526 1.326.183.27.43.405.74.405.374 0 .67-.158.887-.475.193-.28.38-.652.562-1.115l.455-1.16c.657-1.53 1.14-2.696 1.45-3.5.405 2.028.72 3.402.95 4.123.123.44.214.784.27 1.03.248.897.623 1.346 1.127 1.346.212 0 .405-.062.58-.185s.265-.28.265-.473c0-.105-.222-.8-.664-2.083s-.808-2.83-1.1-4.647zm12.275-1.398c0-.252-.084-.46-.25-.624-.168-.164-.374-.246-.62-.246-.393 0-.762.23-1.107.694-1.337 1.776-2.154 2.85-2.453 3.218-.96 1.19-1.884 2.174-2.77 2.953l-.104-4.365c-.03-1.066-.05-1.644-.06-1.73-.08-.563-.37-.845-.87-.845-.586 0-.88.3-.88.895 0-.047.033.87.1 2.75.06 1.812.086 3.552.086 5.222 0 .25.103.453.308.605.188.135.41.202.668.202.34 0 .665-.16.976-.483.386-.402.98-.94 1.774-1.615.605-.517 1.217-1.173 1.838-1.97.322-.416.84-1.15 1.556-2.206.11.65.167 1.336.167 2.057 0 .38-.016.95-.05 1.706s-.053 1.325-.053 1.706c0 .247.082.453.25.62.166.167.376.25.628.25.246 0 .452-.083.62-.25.166-.167.25-.373.25-.62 0-.23.012-.567.035-1.02s.036-.79.036-1.02c0-.65-.012-1.63-.035-2.94s-.034-2.287-.034-2.94zm16.84 0c0-.252-.083-.46-.25-.624s-.374-.246-.62-.246c-.393 0-.762.23-1.107.694-1.337 1.776-2.154 2.85-2.453 3.218-.96 1.19-1.884 2.174-2.77 2.953l-.104-4.365c-.03-1.066-.05-1.644-.06-1.73-.08-.563-.37-.845-.87-.845-.586 0-.88.3-.88.895 0-.047.033.87.1 2.75.06 1.812.086 3.552.086 5.222 0 .25.103.453.308.605.188.135.41.202.668.202.34 0 .665-.16.976-.483.386-.402.98-.94 1.774-1.615.605-.517 1.217-1.173 1.838-1.97.322-.416.84-1.15 1.556-2.206.11.65.167 1.336.167 2.057 0 .38-.016.95-.05 1.706s-.053 1.325-.053 1.706c0 .247.082.453.25.62.166.167.376.25.628.25.246 0 .453-.083.62-.25.167-.167.25-.373.25-.62 0-.23.012-.567.035-1.02s.036-.79.036-1.02c0-.65-.012-1.63-.035-2.94s-.034-2.287-.034-2.94zm15.864-.58c0-.252-.08-.46-.246-.624s-.372-.246-.624-.246c-.256 0-.467.082-.63.246s-.247.372-.247.624c0 .305-.013.76-.036 1.362-.023.556-.035 1.01-.035 1.36v.572c-1.63-.064-3.165.07-4.606.404-.006-.346-.018-.917-.035-1.714-.013-.72-.02-1.292-.02-1.714 0-.258-.08-.467-.245-.628s-.377-.242-.635-.242c-.252 0-.46.08-.624.242s-.245.37-.245.628c0 .375-.002.92-.01 1.635v1.637c0 .35.01.88.028 1.586s.027 1.234.027 1.586c0 .21-.03.5-.085.865s-.083.654-.083.865c0 .26.083.47.247.634s.37.246.623.246c.26 0 .47-.08.63-.245.16-.164.24-.375.24-.633 0-.357.03-.85.09-1.477.06-.65.088-1.143.088-1.477 1.29-.315 2.626-.474 4.01-.474-.013 0 .2.01.632.026.03 1.72.043 2.81.043 3.26 0 .257.082.467.246.627.164.16.375.24.633.24.252 0 .46-.08.624-.243.163-.16.245-.37.245-.628 0-.64-.01-1.57-.035-2.79-.024-1.224-.036-2.154-.036-2.79 0-.32.012-.774.035-1.37.025-.59.036-1.044.036-1.355zm6.76-.685c-1.52 0-2.77.676-3.763 2.02-.885 1.198-1.327 2.52-1.327 3.967 0 1.23.46 2.23 1.38 3.005.87.732 1.924 1.1 3.166 1.1 1.518 0 2.748-.684 3.69-2.05.81-1.177 1.214-2.49 1.214-3.937 0-2.736-1.454-4.104-4.36-4.104zm1.695 6.96c-.603.91-1.35 1.365-2.24 1.365-.77 0-1.406-.208-1.916-.624-.535-.437-.8-1.01-.8-1.712 0-1.043.306-1.995.92-2.856.657-.906 1.437-1.36 2.34-1.36.93 0 1.586.167 1.964.5.378.335.567.947.567 1.838 0 1.065-.277 2.018-.834 2.856zm9.705-2.01c.88-.38 1.317-.98 1.317-1.802 0-.884-.448-1.593-1.345-2.126-.768-.455-1.623-.684-2.566-.684-.82 0-1.405.044-1.757.132-.266.06-.427.105-.485.14-.13.065-.217.18-.264.344-.07.22-.108.506-.114.863v.88c-.06 3.12-.088 4.69-.088 4.71v1.67c0 .222.103.424.31.605.208.18.427.27.655.27 1.494 0 2.763-.14 3.806-.42 1.664-.445 2.496-1.204 2.496-2.276 0-.417-.23-.87-.695-1.363-.404-.432-.83-.746-1.274-.94zm-3.56-3.076c.157-.018.46-.026.904-.026h.36c.386 0 .796.12 1.23.36.49.27.737.584.737.94 0 .476-.28.79-.844.95-.3.08-.778.123-1.435.123-.27 0-.57-.02-.905-.054.013-.17.007-.394-.017-.67-.03-.33-.043-.55-.043-.66 0-.444.003-.766.01-.965zm-.098 6.556v-1.715c0-.275.012-.612.035-1.01.123.01.463.022 1.02.034.445.005.782.03 1.01.08.394.08.77.232 1.126.455.464.28.695.58.695.896 0 .73-1.296 1.15-3.886 1.26zm13.026-4.3c-.65-.35-1.66-.526-3.025-.526-.17 0-.396.006-.677.018-.076-1.09-.114-1.94-.114-2.55 0-.538-.3-.808-.904-.808-.568 0-.853.31-.853.932 0 .444.026 1.11.082 1.99.056.882.084 1.545.084 1.99 0 .703-.04 1.44-.124 2.206-.063.574-.096.923-.096 1.046 0 .813.3 1.22.896 1.22.03 0 .076-.005.14-.017l.07-.018h.08c.193 0 .486.01.88.026s.685.028.878.028c1.137 0 2.048-.205 2.733-.615.85-.504 1.274-1.283 1.274-2.338 0-1.247-.44-2.108-1.325-2.583zm-2.683 4.027c-.287 0-.67-.007-1.15-.02.11-1.4.163-2.285.157-2.654l-.01-.352c.4-.022.717-.034.95-.034.78 0 1.325.07 1.636.22.486.227.73.692.73 1.395 0 .96-.77 1.443-2.312 1.443zm8.437-.22c-.263 0-.556.01-.88.034-.027-.907-.042-1.496-.042-1.766 0 .176.03-1.236.088-4.236.23-.035.557-.053.984-.053.55 0 .826-.256.826-.766 0-.556-.275-.834-.826-.834-.252 0-.626.02-1.12.058-.496.038-.866.057-1.112.057-.152 0-.378-.005-.677-.02-.3-.014-.52-.02-.667-.02-.825 0-1.24.277-1.24.834 0 .526.27.79.8.79.084 0 .204-.013.36-.04.16-.025.28-.04.36-.04.266 0 .515.013.75.036l-.053 2.138c-.023.867-.035 1.567-.035 2.1 0 .142.014.795.043 1.96l-.614.08c-.826.117-1.24.396-1.24.835 0 .233.077.436.23.605s.343.255.57.255c.065 0 .136-.01.21-.026 1.22-.24 2.316-.36 3.29-.36.83 0 1.247-.268 1.247-.8 0-.547-.415-.82-1.248-.82zm10.45-1.038c-.227 0-.44.157-.64.47-.2.314-.645.567-1.336.76-.544.153-1.02.23-1.423.23-.65 0-1.22-.123-1.71-.37s-.897-.61-1.226-1.1l3.358-1.59c.95-.444 1.57-.772 1.864-.983.66-.48.992-1.015.992-1.6 0-.84-.378-1.46-1.134-1.864-.616-.328-1.41-.492-2.383-.492-1.342 0-2.414.562-3.217 1.688-.738 1.033-1.107 2.31-1.107 3.834 0 1.318.45 2.344 1.345 3.076.82.66 1.892.992 3.216.992.85 0 1.725-.2 2.62-.598 1.05-.47 1.574-1.028 1.574-1.68 0-.204-.08-.384-.24-.54-.163-.155-.345-.233-.55-.233zm-5.42-4.126c.474-.555 1.07-.83 1.783-.83.908 0 1.614.233 2.118.702-.45.38-1.206.83-2.267 1.344l-2.697 1.283c.234-1.113.588-1.947 1.063-2.5zm20.943-2.088c0-.253-.082-.46-.246-.625s-.37-.245-.623-.245c-.257 0-.47.08-.632.245s-.245.372-.245.624c0 .304-.013.76-.036 1.36-.023.556-.035 1.01-.035 1.36v.57c-1.63-.062-3.165.07-4.606.406-.006-.346-.018-.917-.035-1.714-.012-.72-.02-1.29-.02-1.714 0-.26-.08-.468-.244-.63s-.374-.242-.632-.242c-.25 0-.46.08-.623.243s-.244.37-.244.627c0 .375-.003.92-.01 1.635v1.634c0 .352.01.88.027 1.587s.026 1.235.026 1.587c0 .212-.03.5-.084.867-.056.366-.083.654-.083.865 0 .257.082.47.246.632s.37.246.623.246c.258 0 .467-.08.63-.243.16-.163.24-.374.24-.632 0-.357.03-.85.088-1.477.06-.65.09-1.142.09-1.476 1.29-.317 2.624-.476 4.007-.476-.01 0 .2.01.635.026.03 1.722.046 2.81.046 3.26 0 .258.08.468.245.628.165.16.376.242.634.242.252 0 .46-.08.624-.242.166-.16.248-.37.248-.628 0-.64-.013-1.57-.036-2.79-.024-1.222-.036-2.152-.036-2.79 0-.317.01-.772.034-1.368.023-.59.035-1.044.035-1.355zm6.76-.686c-1.52 0-2.772.674-3.763 2.02-.885 1.196-1.327 2.518-1.327 3.965 0 1.23.46 2.23 1.38 3.005.867.732 1.922 1.1 3.164 1.1 1.52 0 2.75-.684 3.692-2.05.81-1.177 1.212-2.49 1.212-3.937 0-2.736-1.453-4.104-4.36-4.104zm1.695 6.96c-.604.91-1.35 1.363-2.24 1.363-.77 0-1.407-.208-1.917-.624-.532-.437-.8-1.01-.8-1.712 0-1.042.31-1.994.924-2.855.655-.907 1.435-1.36 2.337-1.36.93 0 1.585.166 1.964.5.377.334.566.946.566 1.837 0 1.063-.28 2.016-.836 2.854zm10.97.52c-.077 0-.203.046-.38.14l-1.02.545c-.397.187-.772.28-1.124.28-.772 0-1.405-.208-1.897-.624-.527-.444-.79-1.054-.79-1.827 0-.715.266-1.562.8-2.54.585-1.066 1.177-1.6 1.774-1.6.785 0 1.35.138 1.696.413.117.1.238.2.365.3.126.105.274.155.444.155.216 0 .397-.086.544-.26.146-.172.22-.37.22-.593 0-.5-.45-.92-1.345-1.267-.71-.27-1.35-.404-1.924-.404-1.103 0-2.093.703-2.97 2.11-.793 1.265-1.19 2.49-1.19 3.68 0 1.25.423 2.255 1.267 3.017.804.726 1.806 1.09 3.007 1.09.52 0 1.178-.177 1.97-.528.9-.4 1.353-.813 1.353-1.24 0-.223-.08-.42-.237-.593s-.345-.26-.562-.26zm7.206-2.875c.224-.183.426-.44.607-.774.03-.06.167-.353.413-.887.352-.785.69-1.178 1.02-1.178.398 0 .598-.23.598-.694 0-.21-.145-.38-.44-.51-.227-.1-.446-.15-.657-.15-.667 0-1.227.47-1.68 1.408l-.367.846c-.317.59-.833.91-1.548.957h-.642c-.04-1.3-.062-2.164-.062-2.592 0-.233-.084-.427-.254-.58s-.377-.23-.623-.23c-.606 0-.907.38-.907 1.136 0 .56.02 1.4.062 2.513s.062 1.947.062 2.504c0 .28-.012.717-.035 1.306s-.036 1.02-.036 1.296c0 .24.085.433.26.58.17.145.38.22.627.22.48 0 .768-.238.86-.713.03-.135.045-.683.045-1.644 0-.234.004-.58.01-1.037.006-.49.01-.834.01-1.027h1.054c.217.004.697.53 1.44 1.58.698.99 1.124 1.693 1.28 2.11.154.415.438.623.848.623.23 0 .437-.073.62-.22.186-.146.277-.337.277-.57 0-.5-.33-1.237-.992-2.216-.646-.954-1.26-1.64-1.847-2.056zm13.167-3.34c0-.253-.083-.46-.25-.625-.167-.164-.374-.246-.62-.246-.393 0-.762.23-1.107.693-1.336 1.776-2.153 2.85-2.452 3.22-.96 1.19-1.883 2.172-2.77 2.95l-.103-4.367c-.028-1.066-.05-1.644-.06-1.73-.083-.563-.373-.845-.87-.845-.587 0-.88.3-.88.896 0-.048.032.87.097 2.75.06 1.81.087 3.55.087 5.22 0 .253.102.455.307.607.188.136.41.203.668.203.34 0 .666-.16.977-.484.387-.404.98-.943 1.775-1.617.604-.516 1.216-1.172 1.837-1.97.32-.415.84-1.15 1.554-2.205.11.65.167 1.335.167 2.056 0 .38-.02.95-.053 1.706s-.054 1.324-.054 1.705c0 .245.084.45.25.62.168.165.377.25.63.25.245 0 .452-.085.618-.25.17-.17.25-.375.25-.62 0-.23.014-.57.037-1.02s.035-.79.035-1.02c0-.65-.01-1.63-.034-2.94s-.035-2.29-.035-2.94zm2.82 4.737c0 .52.262.782.783.782s.782-.26.782-.783v-9.78c0-.52-.263-.783-.784-.783s-.782.263-.782.784c0 .85-.007 2.124-.02 3.82-.016 1.697-.022 2.97-.022 3.82 0 .233.008.59.023 1.066.014.48.02.836.02 1.077zm1.24 2.557c-.24-.305-.474-.457-.702-.457-.217 0-.41.076-.575.23-.168.15-.25.333-.25.544 0 .24.113.503.342.79.232.305.467.457.7.457.21 0 .4-.078.567-.232.167-.155.25-.34.25-.55 0-.234-.11-.495-.334-.782z"/><path fill="#49B952" d="M63.667 49.667c-15.426 1.085-28 12.536-28 28s11.136 28.6 28 28c15.454-.55 26.99-12.57 28-28 1-15.264-10.937-29.2-28-28zm0 40.083c-6.673 0-12.283-6.01-12.083-12.083.22-6.67 4.21-12.884 12.083-12.083 6.64.674 11.486 5.437 12.083 12.083.6 6.673-5.41 12.083-12.083 12.083z"/><path fill="#EB4F45" d="M63.667 49.667c-12.055.848-22.338 8.043-26.27 18.52l14.19 9.588c0-.036-.005-.07-.004-.107.22-6.67 4.21-12.884 12.083-12.083.562.057 1.107.154 1.642.27.814-.118 1.358-.187 1.358-.187h23l.022-.066c-4.02-9.75-13.677-16.804-26.02-15.935z"/><path fill="#FCD430" d="M87.854 61.97l-21.438 3.714s.578.37 1.35.93c4.465 1.848 7.518 5.873 7.984 11.053.31 3.438-1.144 6.534-3.53 8.734l-.063.15-9.374 19.107c.297-.002.583.023.883.013 15.454-.55 26.99-12.57 28-28 .37-5.65-1.035-11.113-3.812-15.698z"/><path fill="#4686C6" d="M73.75 77.667c-.82-5.51-4.514-10.085-10.084-10.085s-8.826 4.66-10.085 10.085c-1.2 5.17 4.52 10.085 10.09 10.085s10.886-4.715 10.085-10.085z"/><path fill="#FFF" d="M255.667 211.667h-138c-3.313 0-6 2.687-6 6v13c0 3.313 2.687 6 6 6h138c3.313 0 6-2.687 6-6v-13c0-3.314-2.687-6-6-6z"/><path fill="#3994FA" d="M398.667 211.667h-118c-3.313 0-6 2.687-6 6v13c0 3.313 2.687 6 6 6h118c3.313 0 6-2.687 6-6v-13c0-3.314-2.687-6-6-6z"/><path d="M134.458 219.53c-1.225 0-2.247.562-3.067 1.687-.73 1.013-1.1 2.14-1.1 3.378 0 1.017.377 1.848 1.12 2.492.7.605 1.56.908 2.568.908 1.225 0 2.224-.57 2.997-1.708.674-.996 1.01-2.113 1.01-3.353 0-1.188-.298-2.06-.896-2.61-.574-.53-1.45-.794-2.627-.794zm1.67 6.047c-.566.878-1.284 1.316-2.154 1.316-.723 0-1.33-.204-1.82-.612-.513-.43-.77-.99-.77-1.682 0-.967.282-1.852.844-2.653.61-.873 1.352-1.31 2.23-1.31.87 0 1.487.167 1.852.5.383.347.575.948.575 1.804 0 .98-.252 1.86-.757 2.642zm7.036.828c-.046 0-.124.028-.23.086l-.624.338c-.244.114-.473.172-.688.172-.473 0-.86-.13-1.16-.383-.322-.272-.483-.645-.483-1.117 0-.438.16-.955.484-1.553.358-.652.72-.978 1.085-.978.48 0 .825.08 1.037.25l.222.184c.076.062.166.094.27.094.132 0 .244-.056.333-.16s.134-.228.134-.364c0-.304-.273-.562-.82-.772-.434-.165-.826-.247-1.177-.247-.67 0-1.276.43-1.813 1.288-.483.773-.725 1.523-.725 2.25 0 .763.26 1.377.774 1.842.49.444 1.103.666 1.837.666.32 0 .72-.106 1.204-.32.55-.244.827-.496.827-.76 0-.134-.047-.255-.144-.36s-.212-.16-.344-.16zm5.543-4.335c-.118-.054-.31-.08-.575-.08h-3.17c-.153 0-.277.054-.372.16-.095.108-.143.237-.143.388 0 .25.113.415.338.494.122.043.338.064.65.064.336 0 .564.003.682.01.072 1.654.107 2.72.107 3.19 0 .137-.005.34-.016.612-.01.272-.016.477-.016.613 0 .14.053.26.16.35.104.097.23.14.372.14.38 0 .57-.354.57-1.07 0-.673-.04-1.953-.12-3.84.16-.02.29-.033.398-.033.097 0 .24.005.433.014.19.01.335.014.432.014.154 0 .28-.05.38-.152.097-.1.146-.23.146-.39.002-.234-.084-.394-.256-.476zm5.86 5.08c-.19-.472-.303-.787-.338-.944-.07-.258-.1-.608-.097-1.053.004-.487.016-.886.035-1.197.02-.312.047-.536.083-.672.07-.075.108-.16.108-.258 0-.283-.24-.524-.73-.725-.385-.16-.733-.24-1.046-.24-.826 0-1.538.31-2.135.927-.6.616-.897 1.357-.897 2.224 0 .917.18 1.597.542 2.04.383.474.994.71 1.832.71.174 0 .393-.05.653-.143.263-.095.565-.235.91-.42.08.113.2.244.36.39.18.158.302.237.37.237.133 0 .25-.046.35-.14.1-.092.15-.21.15-.353l-.03-.09c-.058-.127-.1-.222-.124-.286zm-1.83-.32c-.24.124-.533.187-.877.187-.416 0-.727-.146-.935-.44-.208-.293-.312-.733-.312-1.32 0-.59.202-1.113.604-1.566s.882-.674 1.437-.674c.058 0 .134.016.23.048s.207.083.34.15c-.04.205-.07.397-.09.578s-.028.35-.028.503c0 .472.058 1.183.172 2.132-.233.203-.413.338-.542.407zm6.782-4.76c-.12-.054-.31-.08-.58-.08h-3.168c-.154 0-.28.054-.374.16s-.14.237-.14.388c0 .25.11.415.336.494.122.043.34.064.65.064.336 0 .563.003.682.01.07 1.654.105 2.72.105 3.19 0 .137-.005.34-.015.612-.01.272-.017.477-.017.613 0 .14.053.26.158.35s.23.14.375.14c.38 0 .57-.354.57-1.07 0-.673-.04-1.953-.117-3.84.157-.02.29-.033.396-.033.097 0 .24.005.432.014s.336.014.433.014c.152 0 .28-.05.377-.152.1-.1.147-.23.147-.39 0-.234-.085-.394-.257-.476zm4.75 2.315c-.406-.233-1.04-.35-1.9-.35-.1 0-.24.004-.416.01-.047-.66-.07-1.18-.07-1.557 0-.33-.184-.494-.553-.494-.347 0-.52.19-.52.57 0 .285.017.69.05 1.216s.05.93.05 1.216c0 .42-.023.87-.073 1.35-.04.36-.06.575-.06.644 0 .494.183.74.55.74.056 0 .113-.006.17-.02.1 0 .28.007.543.02.227.008.405.012.538.012.72 0 1.29-.133 1.71-.397.494-.308.74-.777.74-1.407 0-.742-.25-1.26-.756-1.553zm-1.69 2.433c-.17 0-.408-.004-.705-.01.064-.81.096-1.35.096-1.623 0-.068 0-.14-.004-.215.245-.015.44-.02.58-.02.514 0 .872.06 1.072.176.246.14.37.41.37.812 0 .586-.47.88-1.413.88zm7.635-.413c-.047 0-.123.028-.23.086l-.623.338c-.244.114-.474.172-.688.172-.472 0-.86-.13-1.16-.383-.32-.272-.482-.645-.482-1.117 0-.438.162-.955.488-1.553.36-.652.72-.978 1.086-.978.48 0 .825.08 1.036.25l.224.184s.167.094.27.094c.133 0 .244-.056.333-.16.09-.106.135-.228.135-.364 0-.304-.273-.562-.82-.772-.435-.165-.827-.247-1.178-.247-.675 0-1.28.43-1.817 1.288-.482.773-.724 1.523-.724 2.25 0 .763.257 1.377.772 1.842.49.444 1.104.666 1.837.666.32 0 .72-.106 1.202-.32.55-.244.827-.496.827-.76 0-.134-.05-.255-.146-.36s-.21-.16-.343-.16zm5.742-3.67c0-.196-.065-.36-.19-.496-.13-.14-.285-.206-.47-.206-.83 0-1.47.107-1.925.322-1.092.52-1.638 1.18-1.638 1.98 0 .57.458 1.055 1.375 1.456-1.187.684-1.78 1.194-1.78 1.53 0 .147.06.273.173.38s.25.158.403.158c.142 0 .274-.053.396-.16.536-.466.927-.786 1.17-.96.448-.32.92-.563 1.413-.727l.02.703c.007.253.01.456.01.606s.057.276.168.378c.11.104.243.154.4.154.154 0 .287-.05.4-.153.112-.1.17-.225.17-.375 0-.513-.018-1.28-.05-2.3-.034-1.02-.05-1.782-.05-2.29zm-2.214 2.316c-.4-.1-.69-.33-.87-.683.004-.32.206-.616.607-.893.345-.24.67-.374.98-.407.054-.007.17-.016.35-.026.003.047.024.743.064 2.09-.53.007-.907-.02-1.13-.075zm11.757-2.794c0-.154-.05-.28-.15-.38-.1-.102-.227-.15-.38-.15-.16 0-.287.05-.387.15-.1.1-.15.226-.15.38 0 .187-.008.464-.02.832-.016.34-.022.618-.022.833v.35c-.994-.04-1.932.04-2.812.247l-.02-1.048c-.01-.44-.013-.79-.013-1.05 0-.157-.05-.285-.15-.384-.1-.1-.23-.147-.387-.147-.152 0-.28.05-.38.146s-.15.227-.15.384c0 .23-.002.56-.006 1v.995c0 .216.007.538.018.97s.02.755.02.97c0 .13-.02.306-.053.53s-.05.4-.05.528c0 .157.05.286.15.387.1.1.227.15.38.15.158 0 .286-.05.385-.15.1-.1.148-.227.148-.385 0-.22.018-.52.054-.902.037-.398.055-.7.055-.902.786-.19 1.602-.29 2.45-.29l.384.02c.02 1.052.028 1.716.028 1.992 0 .158.05.286.15.385.1.1.23.147.388.147.154 0 .28-.05.38-.145s.15-.228.15-.385c0-.39-.005-.96-.02-1.706-.014-.747-.02-1.315-.02-1.706 0-.194.007-.473.02-.836s.02-.64.02-.83zm5.937 4.9c-.19-.474-.304-.79-.34-.946-.064-.26-.095-.61-.09-1.054.002-.487.014-.886.033-1.197.02-.314.048-.538.083-.674.072-.075.108-.16.108-.258 0-.284-.242-.525-.73-.726-.386-.16-.734-.24-1.046-.24-.827 0-1.54.307-2.135.923-.597.616-.895 1.357-.895 2.224 0 .916.18 1.596.543 2.04.382.473.992.71 1.83.71.176 0 .394-.05.655-.144s.564-.235.908-.42c.08.113.2.244.36.39.18.158.303.237.37.237.133 0 .25-.046.35-.14s.15-.21.15-.353l-.032-.09c-.054-.126-.095-.22-.12-.285zm-1.833-.323c-.24.125-.53.188-.875.188-.418 0-.73-.145-.937-.44-.208-.292-.312-.732-.312-1.32 0-.59.2-1.112.605-1.565.402-.45.88-.677 1.437-.677.057 0 .133.016.228.048s.21.083.34.15c-.037.205-.066.397-.086.578s-.03.35-.03.503c0 .472.056 1.183.17 2.132-.234.202-.414.337-.543.406zm10.178-.424c-.046 0-.123.027-.23.085l-.623.335c-.245.113-.475.17-.69.17-.473 0-.86-.13-1.16-.382-.32-.272-.483-.645-.483-1.117 0-.435.164-.952.49-1.55.357-.652.72-.98 1.085-.98.48 0 .825.086 1.036.254.07.06.146.122.223.185s.17.093.27.093c.135 0 .245-.054.335-.16s.133-.226.133-.362c0-.303-.273-.56-.82-.77-.434-.166-.825-.248-1.176-.248-.674 0-1.278.43-1.815 1.288-.485.773-.727 1.523-.727 2.25 0 .763.258 1.377.773 1.842.49.443 1.103.665 1.837.665.318 0 .72-.107 1.203-.32.552-.245.827-.497.827-.76 0-.135-.048-.256-.145-.36s-.213-.16-.345-.16zm5.543-4.336c-.12-.053-.31-.08-.576-.08h-3.17c-.155 0-.28.055-.374.16s-.143.238-.143.39c0 .25.112.414.34.493.12.043.336.064.647.064.338 0 .564.004.684.01.072 1.655.108 2.72.108 3.19 0 .138-.006.34-.017.613-.01.27-.014.476-.014.612 0 .14.055.258.16.35s.23.14.373.14c.38 0 .57-.357.57-1.073 0-.673-.04-1.953-.12-3.84.158-.02.29-.033.398-.033.098 0 .24.004.434.013s.336.015.433.015c.153 0 .28-.05.38-.152.1-.102.145-.23.145-.39 0-.236-.084-.396-.255-.478zm3.972.055c-.26 0-.535.052-.82.157s-.585.265-.893.476c.006-.094.02-.196.037-.307.01-.086.018-.146.018-.178 0-.144-.048-.264-.143-.362s-.21-.147-.35-.147c-.205 0-.36.104-.468.315-.095.178-.14.393-.14.647l.08 1.09c.042.645.07 1.36.08 2.144v2.145l-.017 2.148c0 .157.05.286.146.387.1.1.225.15.38.15s.28-.052.378-.15c.1-.102.15-.23.15-.388l.01-2.567c.43.113.823.17 1.182.17.735 0 1.322-.265 1.763-.795.413-.5.62-1.137.62-1.91 0-.85-.133-1.53-.4-2.046-.34-.655-.877-.98-1.61-.98zm.656 4.15c-.237.333-.58.5-1.027.5-.39 0-.78-.075-1.17-.226 0-.898-.024-1.75-.07-2.564.29-.277.53-.467.72-.57.265-.147.562-.22.89-.22.323 0 .564.16.724.485s.24.812.24 1.463c-.002.464-.104.84-.308 1.13zm7.11.876c-.19-.47-.302-.786-.338-.943-.064-.26-.095-.61-.09-1.054.002-.488.014-.887.033-1.198.02-.312.05-.536.084-.672.072-.075.107-.16.107-.258 0-.284-.244-.525-.73-.726-.388-.16-.736-.24-1.048-.24-.827 0-1.54.307-2.135.923-.597.615-.895 1.356-.895 2.223 0 .918.18 1.598.543 2.04.383.475.993.71 1.83.71.177 0 .395-.05.656-.142s.565-.234.91-.42c.077.114.197.245.36.39.177.16.3.238.37.238.13 0 .247-.046.35-.14s.15-.21.15-.353l-.034-.09c-.056-.126-.097-.22-.12-.285zm-1.83-.32c-.24.125-.532.188-.876.188-.416 0-.728-.146-.936-.44-.205-.293-.31-.733-.31-1.32 0-.59.2-1.113.605-1.566.403-.452.882-.678 1.44-.678.055 0 .13.015.226.047s.21.082.343.15c-.04.204-.07.396-.09.577s-.03.35-.03.5c0 .474.058 1.185.173 2.134-.234.203-.414.338-.543.407zm7.68-4.577c0-.155-.05-.28-.15-.38-.102-.103-.23-.15-.382-.15-.156 0-.285.05-.386.15-.1.1-.15.225-.15.38 0 .186-.007.463-.02.83-.015.34-.022.62-.022.834v.35c-.994-.04-1.933.042-2.813.247l-.02-1.047c-.01-.44-.01-.79-.01-1.05 0-.157-.053-.285-.15-.384-.103-.1-.23-.148-.39-.148-.154 0-.28.05-.382.147s-.15.226-.15.383c0 .23-.002.56-.005 1v.998c0 .217.004.54.015.97s.016.756.016.97c0 .13-.016.307-.05.53s-.05.4-.05.53c0 .156.05.285.15.386.1.1.227.15.38.15.158 0 .286-.05.385-.15.1-.1.147-.228.147-.386 0-.22.018-.52.054-.902.037-.398.055-.7.055-.902.788-.193 1.604-.29 2.45-.29l.386.016c.02 1.052.027 1.716.027 1.992 0 .158.05.286.15.385.1.1.23.146.388.146.153 0 .28-.05.38-.146s.15-.227.15-.384c0-.392-.006-.96-.02-1.707-.015-.747-.02-1.315-.02-1.706 0-.193.006-.472.02-.835s.02-.64.02-.83zm6.75.354c0-.154-.05-.28-.152-.38-.1-.102-.23-.15-.38-.15-.24 0-.463.14-.674.423-.816 1.086-1.315 1.74-1.5 1.967-.586.727-1.15 1.328-1.69 1.805l-.064-2.67c-.017-.65-.03-1.004-.036-1.058-.05-.343-.228-.515-.53-.515-.36 0-.54.182-.54.547 0-.03.02.53.06 1.68.036 1.106.055 2.17.055 3.19 0 .153.06.277.188.37.114.08.25.124.408.124.21 0 .407-.098.598-.295.235-.247.597-.576 1.083-.99.37-.313.743-.714 1.123-1.2.196-.255.513-.704.95-1.35.067.397.102.816.102 1.257 0 .232-.012.58-.033 1.042-.02.46-.034.81-.034 1.04 0 .15.05.277.154.38.103.102.23.152.385.152.15 0 .275-.05.38-.15.1-.103.15-.23.15-.38 0-.14.01-.347.02-.62.016-.278.02-.485.02-.626 0-.396-.005-.996-.02-1.796s-.023-1.4-.023-1.797zm6.72 4.163c.036-.293.054-.66.054-1.1 0-.25-.01-.626-.03-1.123-.02-.498-.028-.87-.028-1.117 0-.316.03-.58.09-.79.02-.072.03-.136.03-.19 0-.143-.056-.265-.166-.364-.11-.1-.24-.15-.387-.15-.422 0-.634.477-.634 1.433 0 .265.01.663.028 1.195.02.53.028.933.028 1.2 0 .41-.02.757-.06 1.043l-.03.01c-.27-.01-.56-.01-.88 0-.417.02-.71.028-.89.028-.33 0-.63-.012-.895-.037.117-1.08.177-2.56.177-4.432 0-.156-.05-.284-.15-.383-.1-.097-.228-.145-.382-.145-.156 0-.284.05-.383.147s-.147.227-.147.384c0 1.648-.036 2.898-.11 3.75-.064.796-.097 1.188-.097 1.177 0 .145.054.27.16.377s.23.16.376.16c.23 0 .57.01 1.028.028.456.018.8.026 1.028.026.237 0 .533-.01.888-.03.336-.02.634-.032.89-.032h.08c-.023.316-.035.534-.035.656 0 .155.05.28.147.383.1.1.228.15.385.15.154 0 .28-.05.382-.15.1-.1.15-.228.15-.382 0-.132.01-.33.032-.59s.037-.46.037-.59c0-.365-.226-.543-.677-.53zm6.657-.577c-.1-.096-.21-.144-.336-.144-.14 0-.27.096-.39.287s-.396.347-.818.464c-.334.096-.624.143-.87.143-.398 0-.747-.075-1.046-.226s-.55-.374-.75-.67l2.053-.973c.58-.27.96-.47 1.14-.6.404-.293.607-.62.607-.98 0-.51-.23-.89-.693-1.136-.375-.2-.86-.3-1.454-.3-.82 0-1.478.34-1.97 1.03-.45.63-.675 1.41-.675 2.34 0 .807.274 1.433.82 1.88.503.405 1.158.607 1.968.607.52 0 1.053-.12 1.6-.363.642-.286.963-.628.963-1.026 0-.122-.05-.232-.15-.327zm-3.65-2.665c.29-.34.654-.508 1.092-.508.554 0 .985.144 1.293.43-.275.233-.737.507-1.386.822l-1.65.782c.14-.68.36-1.19.65-1.528z"/><path fill="#FFF" d="M298.693 219.502c-.222 0-.39.122-.5.365-.25.512-.443.894-.58 1.145-.548 1.332-.957 2.33-1.23 2.996-.375-.497-.627-.903-.756-1.22-.158-.375-.37-.78-.634-1.218-.122-.204-.37-.59-.747-1.155-.19-.297-.333-.52-.43-.666-.125-.17-.272-.258-.44-.258-.146 0-.275.055-.387.164s-.17.236-.17.384c0 .094.025.19.08.29.13.244.425.713.89 1.408.384.572.658 1.056.823 1.45.21.505.626 1.156 1.245 1.954l-.478.812c-.222.38-.526.627-.913.74-.29.048-.58.094-.87.14-.258.062-.387.227-.387.495 0 .156.05.285.15.386s.23.15.387.15c1.4 0 2.38-.64 2.936-1.918.552-1.266 1.196-2.774 1.934-4.53.01-.024.135-.253.375-.687.168-.304.253-.536.253-.697 0-.15-.055-.278-.164-.382-.11-.103-.24-.155-.39-.155zm4.14 1.832c.642 0 1.19-.104 1.65-.312.586-.27.9-.68.944-1.225l.01-.074c.008-.11-.03-.205-.114-.28-.084-.075-.184-.112-.298-.112-.197 0-.326.118-.387.34-.154.576-.756.86-1.805.86-.287 0-.543-.09-.77-.28-.24-.193-.36-.432-.36-.71 0-.27-.133-.404-.4-.404-.266 0-.398.135-.398.403 0 .504.197.932.59 1.283.384.344.83.515 1.34.515zm2.923 1.273c0-.154-.052-.28-.153-.38-.103-.102-.23-.15-.38-.15-.24 0-.465.14-.676.423-.816 1.085-1.315 1.74-1.498 1.966-.59.727-1.156 1.328-1.697 1.805l-.064-2.67c-.018-.65-.03-1-.038-1.053-.05-.344-.227-.516-.53-.516-.36 0-.538.183-.538.548 0-.028.02.53.06 1.682.035 1.104.054 2.17.054 3.19 0 .15.06.275.19.37.11.08.25.122.405.122.208 0 .406-.098.597-.295.235-.247.598-.576 1.085-.988.366-.318.74-.72 1.12-1.206.197-.254.514-.703.95-1.348.07.397.103.816.103 1.257 0 .232-.01.58-.03 1.042-.02.462-.03.81-.03 1.04 0 .15.05.278.15.38.103.103.23.153.385.153.15 0 .276-.05.38-.154.1-.102.152-.23.152-.38 0-.138.006-.346.02-.62.014-.277.02-.484.02-.625 0-.396-.007-.996-.02-1.796-.017-.8-.024-1.4-.024-1.797zm5.51-.537c-.117-.054-.31-.08-.574-.08h-3.17c-.153 0-.277.054-.372.16s-.143.237-.143.388c0 .25.113.415.34.494.12.043.337.064.648.064.337 0 .563.003.683.01.07 1.654.107 2.72.107 3.19 0 .137-.006.34-.017.612-.01.272-.017.477-.017.613 0 .14.06.26.16.35s.23.14.377.14c.38 0 .57-.354.57-1.07 0-.673-.04-1.953-.12-3.84.158-.02.29-.033.398-.033.098 0 .242.005.434.014s.334.014.432.014c.153 0 .28-.05.378-.152.1-.1.147-.23.147-.39.002-.234-.084-.394-.256-.476zm6.677.537c0-.154-.05-.28-.153-.38-.102-.102-.23-.15-.38-.15-.238 0-.464.14-.675.423-.816 1.085-1.316 1.74-1.5 1.966-.586.727-1.15 1.328-1.69 1.805l-.065-2.67c-.018-.65-.03-1-.037-1.053-.05-.344-.228-.516-.53-.516-.36 0-.538.183-.538.548 0-.028.02.53.06 1.682.035 1.104.053 2.17.053 3.19 0 .15.062.275.188.37.114.08.25.122.408.122.207 0 .406-.098.596-.295.236-.247.598-.576 1.085-.988.37-.318.743-.72 1.123-1.206.196-.254.514-.703.95-1.348.068.397.103.816.103 1.257 0 .232-.01.58-.03 1.042-.02.462-.03.81-.03 1.04 0 .15.05.278.15.38.105.103.23.153.386.153.15 0 .277-.05.38-.154.102-.102.152-.23.152-.38 0-.138.007-.346.02-.62.016-.277.022-.484.022-.625 0-.396-.008-.996-.02-1.796-.018-.8-.025-1.4-.025-1.797zm8.905 3.798c-.047 0-.123.028-.23.086l-.623.338c-.244.114-.473.172-.688.172-.473 0-.86-.13-1.16-.383-.322-.272-.483-.645-.483-1.117 0-.438.162-.955.488-1.553.358-.652.72-.978 1.085-.978.48 0 .825.08 1.037.25.07.06.146.12.223.184s.167.094.27.094c.133 0 .244-.056.333-.16.09-.106.135-.228.135-.364 0-.304-.273-.562-.82-.772-.435-.165-.827-.247-1.178-.247-.673 0-1.278.43-1.815 1.288-.483.773-.725 1.523-.725 2.25 0 .763.257 1.377.773 1.842.49.444 1.103.666 1.837.666.318 0 .72-.106 1.203-.32.55-.244.827-.496.827-.76 0-.134-.05-.255-.146-.36s-.21-.16-.34-.16zm4.415-4.572c-.928 0-1.693.412-2.3 1.235-.54.73-.81 1.538-.81 2.423 0 .756.28 1.37.843 1.84.53.45 1.175.67 1.934.67.928 0 1.68-.414 2.256-1.25.494-.72.74-1.52.74-2.404 0-1.673-.886-2.51-2.663-2.51zm1.037 4.254c-.37.555-.826.833-1.37.833-.47 0-.86-.128-1.17-.382-.327-.27-.49-.618-.49-1.047 0-.633.19-1.22.564-1.74.4-.556.877-.834 1.43-.834.568 0 .97.103 1.2.307.23.204.346.578.346 1.123 0 .652-.17 1.234-.51 1.745zm9.99.318c-.046 0-.123.028-.23.086l-.623.338c-.243.114-.473.172-.688.172-.478 0-.86-.13-1.16-.383-.327-.272-.488-.645-.488-1.117 0-.438.163-.955.49-1.553.356-.652.718-.978 1.083-.978.48 0 .825.08 1.036.25.07.06.147.12.224.184s.167.094.27.094c.133 0 .243-.056.333-.16s.133-.228.133-.364c0-.304-.272-.562-.82-.772-.434-.165-.825-.247-1.177-.247-.674 0-1.278.43-1.815 1.288-.483.773-.725 1.523-.725 2.25 0 .763.257 1.377.772 1.842.49.444 1.103.666 1.837.666.317 0 .72-.106 1.202-.32.552-.244.827-.496.827-.76 0-.134-.05-.255-.145-.36-.095-.107-.21-.16-.343-.16zm5.543-4.335c-.117-.054-.31-.08-.574-.08h-3.17c-.158 0-.28.054-.377.16s-.143.237-.143.388c0 .25.114.415.34.494.12.043.338.064.65.064.337 0 .563.003.683.01.07 1.654.107 2.72.107 3.19 0 .137-.004.34-.015.612-.01.272-.017.477-.017.613 0 .14.054.26.16.35s.228.14.372.14c.38 0 .57-.354.57-1.07 0-.673-.04-1.953-.12-3.84.157-.02.29-.033.397-.033.097 0 .24.005.433.014s.336.014.434.014c.153 0 .28-.05.378-.152.1-.1.147-.23.147-.39 0-.234-.09-.394-.26-.476zm3.974.054c-.26 0-.535.053-.82.158s-.585.265-.893.476c.007-.093.02-.195.037-.306.017-.086.02-.146.02-.178 0-.144-.05-.264-.14-.362s-.213-.147-.353-.147c-.204 0-.36.105-.468.316-.094.18-.14.396-.14.65l.08 1.09c.043.645.07 1.36.08 2.144v2.145l-.016 2.147c0 .157.05.286.148.387.1.1.226.15.38.15s.28-.052.38-.15c.1-.102.146-.23.146-.388l.01-2.567c.43.113.824.17 1.183.17.734 0 1.32-.265 1.76-.795.417-.5.625-1.137.625-1.91 0-.85-.133-1.53-.4-2.046-.34-.654-.877-.98-1.61-.98zm.656 4.152c-.236.332-.58.5-1.026.5-.39 0-.78-.076-1.17-.227 0-.9-.024-1.75-.07-2.567.29-.276.53-.466.72-.57.265-.146.562-.22.89-.22.323 0 .564.162.724.486s.24.812.24 1.463c0 .464-.1.84-.303 1.13zm7.112.875c-.19-.47-.303-.783-.34-.94-.063-.26-.094-.61-.09-1.053.003-.487.015-.886.034-1.197.02-.313.043-.537.08-.673.07-.075.105-.16.105-.258 0-.285-.244-.526-.73-.727-.387-.16-.736-.24-1.048-.24-.828 0-1.54.307-2.136.923-.596.616-.894 1.357-.894 2.224 0 .917.18 1.597.542 2.04.382.474.992.71 1.83.71.176 0 .394-.05.655-.143s.564-.235.91-.42c.076.113.196.244.357.39.18.158.303.237.37.237.133 0 .25-.046.35-.14s.15-.21.15-.353l-.032-.09c-.056-.125-.097-.22-.12-.284zm-1.832-.32c-.24.128-.53.19-.875.19-.416 0-.728-.145-.936-.44-.207-.292-.31-.732-.31-1.32 0-.59.2-1.112.603-1.565.403-.452.882-.678 1.438-.678.057 0 .133.016.228.048s.21.082.347.15c-.04.204-.07.396-.09.577s-.028.35-.028.5c0 .474.056 1.185.17 2.134-.235.203-.415.338-.544.407zm7.68-4.574c0-.154-.05-.28-.15-.38-.1-.102-.228-.15-.38-.15-.16 0-.288.05-.39.15-.1.1-.15.226-.15.38 0 .187-.006.464-.02.832-.014.34-.02.618-.02.833v.35c-.996-.04-1.935.04-2.815.247-.003-.212-.01-.56-.02-1.048-.008-.44-.01-.79-.01-1.05 0-.157-.052-.285-.15-.384-.102-.1-.23-.147-.388-.147-.154 0-.28.05-.382.146s-.15.227-.15.384c0 .23-.002.56-.005 1v.995c0 .216.005.538.016.97s.01.755.01.97c0 .13-.016.306-.05.53s-.05.4-.05.528c0 .157.05.286.15.387.1.1.23.15.38.15.16 0 .287-.05.386-.15.098-.1.146-.227.146-.385 0-.22.018-.52.054-.902.036-.398.054-.7.054-.902.79-.19 1.606-.29 2.45-.29l.388.02c.018 1.052.026 1.716.026 1.992 0 .158.05.286.15.385.1.1.23.147.388.147.154 0 .28-.05.38-.145s.15-.228.15-.385c0-.39-.005-.96-.02-1.706-.014-.747-.02-1.315-.02-1.706 0-.194.007-.473.02-.836s.02-.64.02-.83zm6.75.355c0-.154-.05-.28-.15-.38-.104-.102-.23-.15-.38-.15-.24 0-.466.14-.677.423-.816 1.086-1.315 1.74-1.5 1.967-.586.725-1.15 1.326-1.69 1.803l-.064-2.67c-.018-.65-.03-1.003-.037-1.057-.05-.344-.228-.516-.532-.516-.358 0-.537.183-.537.548 0-.028.02.53.06 1.682.035 1.105.053 2.17.053 3.19 0 .152.06.276.183.37.114.08.25.123.408.123.21 0 .407-.098.598-.295.236-.247.6-.576 1.084-.988.37-.315.743-.716 1.123-1.203.196-.254.513-.703.95-1.348.067.393.102.812.102 1.253 0 .232-.01.58-.033 1.042-.02.462-.032.81-.032 1.04 0 .15.05.278.153.38.1.103.23.153.383.153.15 0 .277-.05.38-.153.1-.102.15-.23.15-.38 0-.138.01-.346.023-.62.016-.277.02-.484.02-.625 0-.396-.005-.996-.02-1.796-.014-.8-.022-1.4-.022-1.797zm6.72 4.163c.037-.293.055-.66.055-1.1 0-.25-.01-.626-.03-1.123-.02-.5-.028-.87-.028-1.12 0-.315.03-.58.09-.79.022-.07.033-.135.033-.19 0-.142-.056-.264-.166-.363-.11-.1-.24-.15-.387-.15-.423 0-.635.478-.635 1.434 0 .267.01.665.027 1.197.018.53.027.932.027 1.2 0 .408-.026.756-.06 1.042l-.037.01c-.27-.01-.562-.01-.88 0-.416.02-.712.026-.888.026-.333 0-.633-.013-.897-.038.12-1.08.18-2.56.18-4.433 0-.157-.05-.285-.15-.384-.1-.096-.23-.144-.38-.144-.16 0-.288.05-.387.147s-.147.228-.147.385c0 1.647-.037 2.897-.112 3.75-.063.795-.096 1.187-.096 1.176 0 .145.053.27.158.377s.23.16.374.16c.23 0 .57.01 1.026.03.456.02.8.026 1.028.026.236 0 .532-.01.887-.03.336-.022.634-.033.892-.033h.08c-.026.316-.038.534-.038.656 0 .153.05.28.147.38.1.1.226.15.383.15.153 0 .28-.05.38-.15.1-.1.15-.227.15-.38 0-.134.012-.33.035-.59s.036-.46.036-.593c0-.364-.225-.542-.676-.53zm8.633-.085c-.162 0-.34.007-.537.02-.02-.555-.03-.914-.03-1.08 0 .108.02-.755.052-2.588.14-.02.34-.034.602-.034.337 0 .505-.156.505-.467 0-.34-.168-.51-.505-.51-.154 0-.382.01-.685.032s-.53.035-.68.035c-.09 0-.23-.005-.412-.014-.183-.01-.32-.014-.41-.014-.503 0-.756.17-.756.51 0 .322.164.482.49.482.05 0 .123-.007.22-.022s.17-.022.22-.022c.16 0 .313.007.457.02l-.034 1.307c-.015.53-.02.958-.02 1.284 0 .085.008.484.025 1.2l-.373.045c-.505.07-.758.242-.758.51 0 .144.046.268.14.37s.21.157.35.157c.04 0 .08-.005.127-.016.745-.146 1.415-.22 2.01-.22.508 0 .762-.163.762-.49-.003-.33-.257-.496-.765-.496zm-3.52-2.326c-.396-.214-1.013-.32-1.847-.32-.11 0-.246.003-.418.01-.047-.666-.07-1.186-.07-1.558 0-.33-.185-.494-.553-.494-.348 0-.52.19-.52.57 0 .27.016.677.05 1.216s.05.946.05 1.218c0 .43-.023.88-.073 1.35-.04.35-.06.562-.06.64 0 .496.182.745.547.745.018 0 .047-.005.086-.01l.045-.013h.05c.117 0 .296.007.536.017.24.012.42.017.54.017.692 0 1.25-.125 1.67-.376.52-.307.78-.783.78-1.43 0-.762-.274-1.29-.815-1.58zm-1.636 2.46c-.176 0-.41-.003-.704-.01.068-.855.1-1.396.097-1.622l-.006-.215c.244-.014.438-.02.58-.02.477 0 .81.045 1 .135.297.14.445.424.445.854 0 .586-.47.88-1.412.88z"/></svg>