<svg xmlns="http://www.w3.org/2000/svg" width="18.938" height="20.938" viewBox="0 0 18.938 20.938"><path fill-rule="evenodd" clip-rule="evenodd" fill="#1CB19D" d="M17.287 17.046c-1.127-1.15-1.996-2.57-3.787-2.212-1.777.356-3.27.12-4.235-.722-.446-.39-.89-.75-1.248-1.035-.224-.37-.516-.84-.842-1.326-.725-1.073-.643-2.52.217-4.09.888-1.62-.596-3.02-1.757-4.67-1.2-1.7-3.122-4.13-4.89-.803C-.917 5.317 2.742 10.96 5.06 13.27c.384.387.69.683.962.94.27.34.618.77 1.095 1.338 1.93 2.29 6.427 5.728 9.523 5 3.147-.74 1.744-2.374.644-3.497z"/></svg>