<svg xmlns="http://www.w3.org/2000/svg" width="126.702" height="175.03" viewBox="35.735 42.551 126.702 175.03"><path fill="#F1F0DF" d="M84.14 140.882l7.684 1.88 20.283-7.507 16.078-10.838-4.637-18.25-8.77-18.568-.913.206c-1.156-.91-3.532-2.61-6.318-3.596-3.938-1.394-6.245-1.89-6.245-1.89s1.84-17.032 1.166-24.494c-.674-7.462-3.854-15.513-9.18-15.27-5.326.244-9.055 2.218-10.242 9.518-1.187 7.3 2.04 20.578 3.835 25.187C88.678 81.87 89.3 86.4 89.3 86.4s-3.155 1.28-6.78 3.544c-3.627 2.265-4.7 2.48-4.7 2.48s-12.4-12.328-19.695-18.107C50.83 68.54 43.553 63.74 37.88 71.805c-5.67 8.066.938 13.76 7.777 18.714 6.84 4.955 22.018 14.008 22.018 14.008l1.22 8.673s.216-.094.57-.232l6.29 19.15 8.385 8.764zm78.153 36.988l-16.025-22.068s-.502-12.243-1.617-29.39c-.554-8.53-4.464-15.464-8.538-16.47-5.393-1.333-7.4 13.09-7.4 13.09l6.523 21.063-.46-.328-2.147-1.822s-7.036.274-15.627 3.804c-8.59 3.525-11.927 13.553-13.555 14.865-1.625 1.312-2.172 1.505-2.172 1.505l-2.06 3.263s-3.906-5.232-6.553-10.203c-2.27-4.263-6.583-9.132-14.002-8.29-2.406.272 5.48-1.506 5.48-1.506s-16.568 1.847-12.805 11.083c3.763 9.237 12.352 13.135 17.218 16.452 4.866 3.316 9.393 9.67 9.393 9.67l14.272 34.99s7.768-6.398 30.48-17.988c22.707-11.59 19.598-21.722 19.598-21.722z"/><path fill="#DBD9BA" d="M70.15 115.058l5.46 16.622c1.05.13 2.27.246 3.64.32 4.625.25 13.223-7.506 9-15-4.343-7.707-16.612-2.598-18.1-1.942zm53.4-8.89l-8.058-17.06c-4.738.964-11.605 8.035-7.742 14.892 3.443 6.11 11.867 4.164 15.952 2.77l-.153-.602z"/><path fill="#BE301D" d="M129.232 121.293c-1.55-5.665-3.53-12.796-3.53-12.796l-1.54-6.242s-1.107.768-3.744.962c-2.637.195-1.693 1.427-1.693 1.427s-1.9 7.587-2.882 9.356c-12.536 22.622-36.67 17.1-36.67 17.1l-4.568.4s5.03 7.532 11.69 15.954c8.803 11.134 13.678 18.27 13.678 18.27s1.74-3.208 2.96-4.622c1.22-1.414 10.405-8.35 13.596-10.46 2.686-1.775 15.692-9.064 17.82-7.956-1.66-.866-2.85-13.11-5.118-21.393z"/><path fill="#5D0000" d="M108.083 136.37c.087.067.174.14.257.226-.19-.194-.265-.262-.257-.227zm17.85-2.07s.274-5.54-9.642-5.114c-3.1.133-3.767 1.57-4.59 3.05 0 0-.753 1.135-.382 2.174.582 1.625 3.254 2.965 3.492 3.996 1.188 5.105-3.203 5.17-4.252 2.448-.893-2.313-2.443-4.336-2.477-4.483-.76-.608-1.6-.648-1.6-.648-1.398.588-2.456.873-4.89 3.457-5.496 5.837-1.05 11.015-1.05 11.015s4.59 4.404 15.606-2.957c10.71-7.158 9.788-12.94 9.788-12.94z"/><path fill="#FFF" d="M115.795 114.082c-2.34 4.198-5.078 7.425-7.986 9.893.77.48 2.19 1.33 3.51 1.96 1.924.915 3.565 1.352 3.565 1.352s3.31-5.017 4.1-8c.5-1.893-1.592-3.95-3.19-5.205zm-15.723 14.713c-4.22 1.848-8.376 2.59-11.863 2.812.413 3.53 1.742 9.14 6.012 7.63 6.122-2.163 7.867-3.245 7.538-5.218-.26-1.55-1.266-4.168-1.688-5.225zM106.197 150.2s-1.827 2.768-2.264 4.414c-.217.82 1.02 2.338 2.312 3.653 1.77-1.404 3.965-3.074 5.957-4.545-1.55-1.138-3.444-2.492-4.04-2.777-1.058-.506-1.965-.746-1.965-.746zm17.403-10.596c-3.38 1.194-4.342 1.79-4.16 2.88.107.643 1.343 3.157 2.338 5.114 1.824-.99 3.854-2.033 5.765-2.916-.725-2.707-1.988-5.77-3.943-5.078zM127.812 95.356c-1.517-4.282-6.588-6.396-11.326-4.72-4.74 1.674-7.354 6.504-5.836 10.786 1.516 4.282 6.588 6.396 11.326 4.72 4.74-1.674 7.354-6.503 5.836-10.786zm-54 19.265c-5.044 1.783-7.824 6.922-6.21 11.48 1.613 4.557 7.01 6.806 12.053 5.022 5.043-1.783 7.823-6.922 6.21-11.478-1.615-4.556-7.01-6.805-12.054-5.023z"/><path fill="#B8B8B8" d="M120.337 153.22c-5.386 2.02-8.774 8.93-8.774 8.93l17.24-11.044c0-.002-3.08.097-8.466 2.115z"/><path fill="#DBD9BA" d="M149.335 169.668c-3.247-9.17-14.108-13.695-24.257-10.11-10.15 3.59-15.745 13.932-12.498 23.102 3.248 9.17 14.11 13.696 24.258 10.108 10.15-3.586 15.745-13.93 12.497-23.1zM40.55 75.31c-6.49 11.842 29.983 25.914 29.983 25.914l3.995-6.186S47.04 63.466 40.55 75.308zm50.364-28.474c-10.04 1.02 1.352 37.158 1.352 37.158l5.247-1.854s3.442-36.325-6.6-35.304z"/><path d="M71.482 121.532c-1.57.555-2.392 2.274-1.837 3.844s2.278 2.39 3.848 1.835c1.57-.554 2.392-2.274 1.837-3.843-.555-1.57-2.28-2.388-3.848-1.835zm53.16-26.57c-.442-1.246-1.813-1.898-3.06-1.458-1.248.44-1.902 1.81-1.46 3.056.44 1.247 1.81 1.9 3.058 1.46 1.248-.443 1.9-1.81 1.46-3.057z"/><path fill="#F1F0DF" d="M81.937 138.732c-3.455-4.55-.437-7.982-.437-7.982h-8.875l27.25 35.375 1.625-.375.75-4.625s-13.536-13.467-20.313-22.393zm43.08-34.44l-7.436 2.2s5.458.16 7.19 6.216c3.218 11.254 6.815 31.836 6.815 31.836l4.165 2.146 1.27-1.084-12.002-41.315z"/></svg>