<svg xmlns="http://www.w3.org/2000/svg" width="144.217" height="168.22" viewBox="26.012 39.599 144.217 168.22"><path fill="#F1F0DF" d="M66.058 113.43l9.87 17.574 9.922 6.98 7.902.36 18.452-11.28 13.682-13.74-8.07-17.01-12.192-16.526-.855.38c-1.312-.67-3.97-1.88-6.895-2.308-4.133-.607-6.492-.647-6.492-.647s-1.484-17.068-3.587-24.26c-2.103-7.19-6.777-14.477-11.956-13.21-5.178 1.27-8.456 3.925-8.21 11.317.245 7.393 5.974 19.797 8.626 23.972 2.652 4.174 4.136 8.5 4.136 8.5s-2.85 1.865-5.97 4.787c-3.12 2.92-4.13 3.34-4.13 3.34S55.74 81.956 47.467 77.696 31.127 70.13 27.12 79.14C23.113 88.15 30.696 92.46 38.364 96c7.667 3.542 24.308 9.494 24.308 9.494l2.873 8.273c0 .002.193-.132.513-.337zm103.616 45.754l-26.236-26.5s-1.338-8.342-2.627-18.43c-1.08-8.48-2.818-12.963-7.01-13.163-5.55-.266-7.665 10.773-7.665 10.773l10.467 19.408-.516-.233-2.457-1.373s-6.853 1.63-14.6 6.75c-7.748 5.12-9.087 15.604-10.43 17.204-1.342 1.6-1.842 1.896-1.842 1.896l-1.39 3.6s-3.7-5.646-8.4-8.747c-.55-.362-12.404.065-19.71.323-2.42.084-6.93 1.664-6.93 1.664s-6.763.4-5.776 6.93c1.133 7.488 33.056 7.348 35.814 7.883 1.388.27 7.078 9.074 7.078 9.074l20.76 31.58s6.386-7.78 26.43-23.538c20.048-15.76 15.04-25.098 15.04-25.098z"/><path fill="#DBD9BA" d="M164.242 153.698l-9.37-9.464c-5.353-2.127-11.897-1.725-17.593 1.644-9.267 5.48-12.76 16.707-7.802 25.078 4.957 8.37 16.486 10.714 25.752 5.233 8.344-4.933 11.983-14.52 9.012-22.492z"/><path fill="#BE301D" d="M126.807 114.646c-2.617-5.258-4.57-9.085-4.57-9.085s-4.65-10.51-7.918-1.596c-7.222 19.695-35.233 25.38-35.233 25.38l-4.404 1.275s6.39 6.418 14.55 13.395c10.79 9.225 16.95 15.285 16.95 15.285s1.088-3.484 2.012-5.107c.926-1.625 8.6-10.2 11.32-12.887 2.293-2.264 13.648-11.928 15.95-11.25-1.797-.526-4.834-7.72-8.658-15.41z"/><path fill="#5D0000" d="M102.18 133.227c.1.053.2.105.297.174-.223-.153-.31-.207-.296-.173zm17.116-5.478s-.802-5.488-10.448-3.157c-3.018.73-3.393 2.27-3.914 3.882 0 0-.52 1.256.043 2.205.885 1.48 3.766 2.28 4.2 3.246 2.15 4.78-2.146 5.69-3.7 3.225-1.324-2.1-3.238-3.784-3.295-3.923-.863-.45-1.697-.326-1.697-.326-1.257.848-2.24 1.33-4.127 4.337-4.266 6.787 1.096 11.012 1.096 11.012s5.354 3.435 14.742-5.917c9.124-9.09 7.1-14.584 7.1-14.584z"/><path fill="#FFF" d="M114.396 103.77c-.026.066-.054.125-.078.195-1.303 3.55-3.285 6.637-5.65 9.324.318.56.734 1.264 1.295 2.163 1.127 1.81 3.957.77 3.957.77s2.857-2.617 3.97-5.365c.784-1.94-1.767-5.192-3.494-7.09zm-7.126 11.024c-3.086 3.12-6.677 5.644-10.244 7.65 1.313 2.245 3.188 3.868 5.684 2.393 5.59-3.306 7.093-4.704 6.39-6.575-.373-.985-1.162-2.368-1.83-3.468zM124.58 128.72c-3.084 1.823-3.913 2.595-3.523 3.628.233.62 1.996 2.932 3.363 4.674 1.618-1.33 3.4-2.73 5.082-3.933-1.23-2.555-3.102-5.447-4.92-4.37zm-7.955 5.91s-2.152 2.522-2.787 4.103c-.43 1.07 1.64 3.737 3.02 5.354 1.062-1.145 2.004-2.133 2.656-2.777.508-.5 1.477-1.375 2.676-2.41-1.404-1.325-3.143-2.928-3.703-3.284-.992-.637-1.862-.986-1.862-.986z"/><path fill="#B1A37D" d="M130.036 138.805c-4.896 3.02-6.886 10.454-6.886 10.454l14.783-14.165s-3 .69-7.897 3.71z"/><path fill="#DBD9BA" d="M29.957 78.688C25.877 91.562 65.75 99.075 65.75 99.075l2.998-6.487s-34.71-26.773-38.79-13.9zm46.147-35.655c-9.655 2.94 8.5 36.197 8.5 36.197l4.792-2.833s-3.638-36.304-13.292-33.364z"/><path fill="#F1F0DF" d="M93.085 123.176s-4.935-3.417-9.35-2.45c-4.7 1.03-19.412-17.978-19.412-17.978s-11.516 14.75 14.25 35.305c16.995 13.56 28.314 26.025 28.007 25.86l1.104-4.88 2.912-7.732c.088-.062-7.937-4.61-22.76-18.29-4.195-3.877 5.25-9.834 5.25-9.834zm25.806-28.988l-6.87 3.596s6.472-.293 8.84 5.544c8.357 20.587 12.423 28.968 12.252 29.086l4.5 1.302 1.035-1.31L118.89 94.19z"/><path fill="#DBD9BA" d="M79.537 107.676l-.7 5.64s-.24 10.385 10.92 7.713c4.505-1.08 13.048-7.365 5.935-16.457-5.806-7.424-16.155 3.103-16.155 3.103zm34.887-21.466s-.607-3.09-5.195-2.443c-4.587.647-11.063 7.9-7.336 13.47 6.5 9.724 17.128-3.302 16.86-2.63l.457-3.76-4.786-4.637z"/><path fill="#FFF" d="M117.943 86.288c-.98-2.553-6.367-4.45-9.672-2.908-4.555 2.126-6.347 6.86-4.03 10.77 2.314 3.907 6.443 4.84 10.77 2.282 4.328-2.56 4.193-6.857 2.933-10.144zM81.66 102.87c-4.604 2.724-6.34 8.303-3.876 12.462 2.463 4.16 8.192 5.323 12.796 2.6 4.604-2.722 6.34-8.3 3.876-12.46-2.463-4.16-8.192-5.324-12.796-2.6z"/><path d="M80.903 111.083c-1.433.848-1.908 2.695-1.06 4.127.848 1.43 2.697 1.904 4.13 1.057 1.433-.847 1.908-2.694 1.06-4.126-.848-1.43-2.697-1.905-4.13-1.057zm36.75-26.54c-.675-1.14-2.146-1.515-3.284-.84-1.14.673-1.517 2.14-.843 3.28s2.143 1.513 3.28.84c1.14-.675 1.52-2.142.845-3.28z"/></svg>