<svg xmlns="http://www.w3.org/2000/svg" width="119.667" height="155" viewBox="0 0 119.667 155"><path fill="#F1F0DF" d="M115.293 111.537l-23.525-31.32s6.238-8.28 17.684-21.098c3.764-4.217-1.064-8.29-5.34-9.262-4.664-1.06-15.668 11.808-18.64 15.41l-3.923-15.435-8.772-18.57-.913.208c-1.156-.91-3.532-2.608-6.318-3.595-3.938-1.394-6.245-1.89-6.245-1.89s2.41-9.603 1.737-17.065c-.676-7.462-5.248-3.762-10.563-3.35-5.35.417-12.3.684-11.145 3.74 1.77 4.682 3.754 7.007 5.55 11.615 1.796 4.607 2.417 9.14 2.417 9.14s-3.156 1.28-6.782 3.543c-3.626 2.265-4.698 2.48-4.698 2.48s-4.878-7.565-11.497-14.106c-9.895-9.777-10.918-.204-14.356 5.03-3.877 5.904-10.15 7.017.69 13.172 7.344 4.17 15.018 8.01 15.018 8.01l1.22 8.672s.216-.095.57-.233l6.29 19.15 8.387 8.764 7.684 1.88L70.11 78.92l15.332-10.335 2.795 9.177-.46-.33-2.147-1.82s-7.036.274-15.627 3.803c-8.59 3.527-11.928 13.554-13.555 14.866-1.626 1.313-2.173 1.506-2.173 1.506l-2.06 3.263s-1.155-5.535-4.303-10.205c-1.02-1.512-7.833.12-15.252.96-2.406.273-9.27 1.495-9.27 1.495s-10.318 2.596-6.555 11.833 24.69-2.845 28.968 1.202c.865.818 5.142 11.92 5.142 11.92l14.272 34.992s7.768-6.4 30.478-17.99 19.598-21.72 19.598-21.72z"/><path fill="#DBD9BA" d="M13.33 20.68c-1.167 1.918-2.104 4.416-3.364 6.335-1.478 2.25-3.3 3.804-4.395 5.206 8.066 7.168 22.963 12.67 22.963 12.67l3.995-6.186c0 .003-10.19-12.336-19.198-18.024zM56.082 4.465c-1.642.31-3.567.95-5.605 1.107-2.478.193-5.29.357-7.49.777 1.207 8.883 7.278 21.31 7.278 21.31l5.247-1.854s2.887-12.95.57-21.34zM18 47.792l-2.375 2 4 13.875s3 .75 7.625 1 13.223-7.506 9-15C31.624 41.457 18 47.792 18 47.792zm54.375-25.125s-3-.75-7.625-1-13.223 7.506-9 15C60.377 44.877 74 38.542 74 38.542l2.375-2-4-13.875z"/><path fill="#BE301D" d="M82.232 57.96c-1.55-5.666-3.53-12.797-3.53-12.797l-.254-3.1-6.724-.754s-13.36 5.065-15.23 5.84c-15.98 6.604-24.57 20.07-24.323 20.615l-.423 1.972s.7 4.23 7.892 12.205c8.988 9.968 13.225 16.515 13.19 16.735 0 0 1.882.505 3.104-.91 1.22-1.414 3.446-8.898 11.453-15.6 6.702-5.61 17.837-3.925 19.965-2.815-1.66-.864-2.85-13.11-5.12-21.393z"/><path fill="#5D0000" d="M57.108 64.056c.078.064.157.13.232.206-.167-.172-.22-.215-.232-.206zm17.826-2.09s.273-5.54-9.643-5.115c-3.1.134-3.766 1.573-4.59 3.053 0 0-.753 1.133-.382 2.172.582 1.625 3.254 2.965 3.493 3.996 1.19 5.107-3.202 5.17-4.25 2.45-.918-2.377-2.505-4.417-2.453-4.464-.767-.627-1.626-.67-1.626-.67-1.396.588-2.453.873-4.886 3.457-5.497 5.837-1.05 11.016-1.05 11.016s4.59 4.402 15.606-2.96c10.708-7.153 9.784-12.935 9.784-12.935z"/><path fill="#FFF" d="M47.487 52.01c-3.867 2.595-7.042 5.425-9.472 7.974 1.99 2.17 7.836 7.87 10.625 3.317 3.39-5.536 4.064-7.476 2.565-8.8-.905-.798-2.552-1.81-3.718-2.49zm19.106-8.75c-3.983 1.52-9.002 3.437-10.097 3.89-.6.248-1.17.523-1.75.79.318.888.783 2.116 1.29 3.19.91 1.927 1.908 3.304 1.908 3.304s5.736-1.793 8.234-3.604c2.093-1.52.867-6.12.415-7.57zM74.6 71.27c-3.38 1.194-4.342 1.79-4.16 2.88.107.645 1.353 3.18 2.35 5.14 2.063-.655 4.2-.963 6.195-1.043-.57-2.833-1.94-7.84-4.385-6.977zM57.197 81.867s-1.827 2.768-2.262 4.414c-.338 1.28 2.845 4.244 4.283 5.505 1.096-1.832 2.537-3.916 4.462-6.045-1.613-1.19-3.857-2.813-4.515-3.127-1.062-.506-1.968-.746-1.968-.746zM75.813 28.023c-1.517-4.282-6.59-6.396-11.327-4.72-4.74 1.674-7.353 6.504-5.836 10.786 1.516 4.28 6.588 6.395 11.328 4.72s7.352-6.505 5.835-10.787zM21.81 47.288c-5.042 1.782-7.822 6.92-6.208 11.478 1.614 4.557 7.01 6.806 12.053 5.023 5.043-1.784 7.823-6.923 6.21-11.48-1.615-4.556-7.01-6.805-12.054-5.022z"/><path fill="#B8B8B8" d="M72.337 85.887c-5.386 2.017-8.775 8.927-8.775 8.927l17.24-11.043s-3.08.1-8.465 2.117z"/><path fill="#DBD9BA" d="M104.335 106.334c-3.247-9.17-14.108-13.696-24.257-10.11-10.15 3.59-15.745 13.93-12.498 23.1 3.248 9.17 14.11 13.697 24.258 10.11 10.15-3.587 15.745-13.93 12.497-23.1z"/><path d="M19.482 54.2c-1.57.554-2.392 2.274-1.837 3.843s2.278 2.39 3.848 1.835c1.57-.555 2.392-2.275 1.837-3.844s-2.28-2.39-3.848-1.835zM72.64 27.63c-.44-1.248-1.81-1.9-3.06-1.46-1.246.44-1.9 1.81-1.46 3.056.442 1.247 1.812 1.9 3.06 1.46 1.248-.442 1.9-1.81 1.46-3.057z"/><path fill="#F1F0DF" d="M38.508 79.4c-3.455-4.55-5.437-17.412-5.437-17.412l-6.73 2.715 30.106 42.09 1.625-.376-.82-9.054S45.285 88.325 38.508 79.4zm39.51-40.442L70.58 41.16s5.458.158 7.19 6.215c3.218 11.254 6.816 31.836 6.816 31.836l4.165 2.147 1.27-1.084-12.003-41.315z"/></svg>